<svg width="265" height="61" viewBox="0 0 268 69" fill="none" xmlns="http://www.w3.org/2000/svg">
<rect x="1" y="1" width="254" height="67" rx="19" fill="url(#paint0_linear)" stroke="url(#paint1_linear)" stroke-width="2"/>
<path d="M82.224 21.6C84.1653 21.6 85.8507 21.92 87.28 22.56C88.7307 23.2 89.84 24.1173 90.608 25.312C91.376 26.5067 91.76 27.9253 91.76 29.568C91.76 31.1893 91.376 32.608 90.608 33.824C89.84 35.0187 88.7307 35.936 87.28 36.576C85.8507 37.216 84.1653 37.536 82.224 37.536H77.168V44H73.008V21.6H82.224ZM82.032 34.016C83.8453 34.016 85.2213 33.632 86.16 32.864C87.0987 32.096 87.568 30.9973 87.568 29.568C87.568 28.1387 87.0987 27.04 86.16 26.272C85.2213 25.504 83.8453 25.12 82.032 25.12H77.168V34.016H82.032ZM95.8428 20.256H99.8428V44H95.8428V20.256ZM111.621 26.72C114.138 26.72 116.058 27.328 117.381 28.544C118.725 29.7387 119.397 31.552 119.397 33.984V44H115.621V41.92C115.13 42.6667 114.426 43.2427 113.509 43.648C112.613 44.032 111.525 44.224 110.245 44.224C108.965 44.224 107.845 44.0107 106.885 43.584C105.925 43.136 105.178 42.528 104.645 41.76C104.133 40.9707 103.877 40.0853 103.877 39.104C103.877 37.568 104.442 36.3413 105.573 35.424C106.725 34.4853 108.527 34.016 110.981 34.016H115.397V33.76C115.397 32.5653 115.034 31.648 114.309 31.008C113.605 30.368 112.549 30.048 111.141 30.048C110.181 30.048 109.231 30.1973 108.293 30.496C107.375 30.7947 106.597 31.2107 105.957 31.744L104.389 28.832C105.285 28.1493 106.362 27.6267 107.621 27.264C108.879 26.9013 110.213 26.72 111.621 26.72ZM111.077 41.312C112.079 41.312 112.965 41.088 113.733 40.64C114.522 40.1707 115.077 39.5093 115.397 38.656V36.672H111.269C108.965 36.672 107.813 37.4293 107.813 38.944C107.813 39.6693 108.101 40.2453 108.677 40.672C109.253 41.0987 110.053 41.312 111.077 41.312ZM140.218 26.912L132.218 45.376C131.471 47.232 130.564 48.5333 129.498 49.28C128.431 50.048 127.14 50.432 125.626 50.432C124.772 50.432 123.93 50.2933 123.098 50.016C122.266 49.7387 121.583 49.3547 121.05 48.864L122.65 45.92C123.034 46.2827 123.482 46.5707 123.994 46.784C124.527 46.9973 125.06 47.104 125.594 47.104C126.298 47.104 126.874 46.9227 127.322 46.56C127.791 46.1973 128.218 45.5893 128.602 44.736L128.89 44.064L121.434 26.912H125.594L130.97 39.552L136.378 26.912H140.218ZM158.89 44.32C157.162 44.32 155.487 44.0747 153.866 43.584C152.266 43.0933 150.996 42.4427 150.058 41.632L151.498 38.4C152.415 39.1253 153.535 39.7227 154.858 40.192C156.202 40.64 157.546 40.864 158.89 40.864C160.554 40.864 161.791 40.5973 162.602 40.064C163.434 39.5307 163.85 38.8267 163.85 37.952C163.85 37.312 163.615 36.7893 163.146 36.384C162.698 35.9573 162.122 35.6267 161.418 35.392C160.714 35.1573 159.754 34.8907 158.538 34.592C156.831 34.1867 155.444 33.7813 154.378 33.376C153.332 32.9707 152.426 32.3413 151.658 31.488C150.911 30.6133 150.538 29.44 150.538 27.968C150.538 26.7307 150.868 25.6107 151.53 24.608C152.212 23.584 153.226 22.7733 154.57 22.176C155.935 21.5787 157.599 21.28 159.562 21.28C160.927 21.28 162.271 21.4507 163.594 21.792C164.916 22.1333 166.058 22.624 167.017 23.264L165.706 26.496C164.724 25.92 163.7 25.4827 162.634 25.184C161.567 24.8853 160.532 24.736 159.53 24.736C157.887 24.736 156.66 25.0133 155.85 25.568C155.06 26.1227 154.666 26.8587 154.666 27.776C154.666 28.416 154.89 28.9387 155.338 29.344C155.807 29.7493 156.394 30.0693 157.098 30.304C157.802 30.5387 158.762 30.8053 159.978 31.104C161.642 31.488 163.007 31.8933 164.074 32.32C165.14 32.7253 166.047 33.3547 166.794 34.208C167.562 35.0613 167.946 36.2133 167.946 37.664C167.946 38.9013 167.604 40.0213 166.922 41.024C166.26 42.0267 165.247 42.8267 163.882 43.424C162.516 44.0213 160.852 44.32 158.89 44.32ZM181.959 43.072C181.489 43.456 180.913 43.744 180.231 43.936C179.569 44.128 178.865 44.224 178.119 44.224C176.241 44.224 174.791 43.7333 173.766 42.752C172.743 41.7707 172.231 40.3413 172.231 38.464V30.24H169.415V27.04H172.231V23.136H176.231V27.04H180.807V30.24H176.231V38.368C176.231 39.2 176.433 39.84 176.839 40.288C177.244 40.7147 177.831 40.928 178.599 40.928C179.495 40.928 180.241 40.6933 180.839 40.224L181.959 43.072ZM192.367 44.224C190.639 44.224 189.081 43.8507 187.695 43.104C186.308 42.3573 185.22 41.3227 184.431 40C183.663 38.656 183.279 37.1413 183.279 35.456C183.279 33.7707 183.663 32.2667 184.431 30.944C185.22 29.6213 186.308 28.5867 187.695 27.84C189.081 27.0933 190.639 26.72 192.367 26.72C194.116 26.72 195.684 27.0933 197.071 27.84C198.457 28.5867 199.535 29.6213 200.303 30.944C201.092 32.2667 201.487 33.7707 201.487 35.456C201.487 37.1413 201.092 38.656 200.303 40C199.535 41.3227 198.457 42.3573 197.071 43.104C195.684 43.8507 194.116 44.224 192.367 44.224ZM192.367 40.8C193.839 40.8 195.055 40.3093 196.015 39.328C196.975 38.3467 197.455 37.056 197.455 35.456C197.455 33.856 196.975 32.5653 196.015 31.584C195.055 30.6027 193.839 30.112 192.367 30.112C190.895 30.112 189.679 30.6027 188.719 31.584C187.78 32.5653 187.311 33.856 187.311 35.456C187.311 37.056 187.78 38.3467 188.719 39.328C189.679 40.3093 190.895 40.8 192.367 40.8ZM209.12 29.408C210.272 27.616 212.298 26.72 215.2 26.72V30.528C214.858 30.464 214.549 30.432 214.272 30.432C212.714 30.432 211.498 30.8907 210.624 31.808C209.749 32.704 209.312 34.0053 209.312 35.712V44H205.312V26.912H209.12V29.408ZM234.501 35.552C234.501 35.8293 234.479 36.224 234.437 36.736H221.029C221.263 37.9947 221.871 38.9973 222.853 39.744C223.855 40.4693 225.093 40.832 226.565 40.832C228.442 40.832 229.989 40.2133 231.205 38.976L233.349 41.44C232.581 42.3573 231.61 43.0507 230.437 43.52C229.263 43.9893 227.941 44.224 226.469 44.224C224.591 44.224 222.938 43.8507 221.509 43.104C220.079 42.3573 218.97 41.3227 218.181 40C217.413 38.656 217.029 37.1413 217.029 35.456C217.029 33.792 217.402 32.2987 218.149 30.976C218.917 29.632 219.973 28.5867 221.317 27.84C222.661 27.0933 224.175 26.72 225.861 26.72C227.525 26.72 229.007 27.0933 230.309 27.84C231.631 28.5653 232.655 29.6 233.381 30.944C234.127 32.2667 234.501 33.8027 234.501 35.552ZM225.861 29.92C224.581 29.92 223.493 30.304 222.597 31.072C221.722 31.8187 221.189 32.8213 220.997 34.08H230.693C230.522 32.8427 229.999 31.84 229.125 31.072C228.25 30.304 227.162 29.92 225.861 29.92Z" fill="black"/>
<g clip-path="url(#clip0)">
<path d="M27.5355 18.1408C27.698 18.0478 27.8821 17.9993 28.0694 18C28.2566 18.0008 28.4404 18.0508 28.6021 18.145L45.3339 27.9051L40.1563 32.5642L27 20.7242V19.0666C26.9998 18.8788 27.0493 18.6943 27.1433 18.5318C27.2373 18.3692 27.3726 18.2343 27.5355 18.1408Z" fill="white"/>
<path d="M27 23.5957V44.4042L38.5627 34L27 23.5957Z" fill="white"/>
<path d="M27 47.2757V48.9333C26.9999 49.121 27.0494 49.3054 27.1434 49.4678C27.2374 49.6303 27.3726 49.7651 27.5353 49.8586C27.6981 49.952 27.8826 50.0009 28.0703 50.0003C28.258 49.9997 28.4422 49.9495 28.6043 49.8549L45.3339 40.0949L40.1563 35.4357L27 47.2757Z" fill="white"/>
<path d="M47.2688 38.9664L54.2021 34.9216C54.3633 34.8277 54.497 34.6932 54.5899 34.5315C54.6829 34.3698 54.7318 34.1865 54.7318 34C54.7318 33.8135 54.6829 33.6302 54.5899 33.4685C54.497 33.3068 54.3633 33.1723 54.2021 33.0784L47.2688 29.0336L41.7499 34L47.2688 38.9664Z" fill="white"/>
</g>
<defs>
<linearGradient id="paint0_linear" x1="0" y1="0" x2="256" y2="69" gradientUnits="userSpaceOnUse">
<stop stop-color="#C4C4C4" stop-opacity="0.8"/>
<stop offset="1" stop-color="#C4C4C4" stop-opacity="0.2"/>
</linearGradient>
<linearGradient id="paint1_linear" x1="0" y1="0" x2="256" y2="69" gradientUnits="userSpaceOnUse">
<stop stop-color="white" stop-opacity="0.8"/>
<stop offset="1" stop-color="white" stop-opacity="0.2"/>
</linearGradient>
<clipPath id="clip0">
<rect width="32" height="32" fill="white" transform="translate(23 18)"/>
</clipPath>
</defs>
</svg>
