<svg width="264" height="61" viewBox="0 0 265 69" fill="none" xmlns="http://www.w3.org/2000/svg">
<rect x="1" y="1" width="254" height="67" rx="19" fill="url(#paint0_linear)" stroke="url(#paint1_linear)" stroke-width="2"/>
<path d="M84.536 39.816H73.336L71.128 45H66.84L76.92 22.6H81.016L91.128 45H86.776L84.536 39.816ZM83.16 36.552L78.936 26.76L74.744 36.552H83.16ZM103.065 27.72C104.729 27.72 106.211 28.0827 107.513 28.808C108.835 29.5333 109.87 30.5573 110.617 31.88C111.363 33.2027 111.737 34.728 111.737 36.456C111.737 38.184 111.363 39.72 110.617 41.064C109.87 42.3867 108.835 43.4107 107.513 44.136C106.211 44.8613 104.729 45.224 103.065 45.224C100.761 45.224 98.9368 44.456 97.5928 42.92V51.208H93.5928V27.912H97.4008V30.152C98.0621 29.3413 98.8728 28.7333 99.8328 28.328C100.814 27.9227 101.891 27.72 103.065 27.72ZM102.617 41.8C104.089 41.8 105.294 41.3093 106.233 40.328C107.193 39.3467 107.673 38.056 107.673 36.456C107.673 34.856 107.193 33.5653 106.233 32.584C105.294 31.6027 104.089 31.112 102.617 31.112C101.657 31.112 100.793 31.336 100.025 31.784C99.2568 32.2107 98.6488 32.8293 98.2008 33.64C97.7528 34.4507 97.5288 35.3893 97.5288 36.456C97.5288 37.5227 97.7528 38.4613 98.2008 39.272C98.6488 40.0827 99.2568 40.712 100.025 41.16C100.793 41.5867 101.657 41.8 102.617 41.8ZM125.002 27.72C126.666 27.72 128.149 28.0827 129.45 28.808C130.773 29.5333 131.808 30.5573 132.554 31.88C133.301 33.2027 133.674 34.728 133.674 36.456C133.674 38.184 133.301 39.72 132.554 41.064C131.808 42.3867 130.773 43.4107 129.45 44.136C128.149 44.8613 126.666 45.224 125.002 45.224C122.698 45.224 120.874 44.456 119.53 42.92V51.208H115.53V27.912H119.338V30.152C120 29.3413 120.81 28.7333 121.77 28.328C122.752 27.9227 123.829 27.72 125.002 27.72ZM124.554 41.8C126.026 41.8 127.232 41.3093 128.17 40.328C129.13 39.3467 129.61 38.056 129.61 36.456C129.61 34.856 129.13 33.5653 128.17 32.584C127.232 31.6027 126.026 31.112 124.554 31.112C123.594 31.112 122.73 31.336 121.962 31.784C121.194 32.2107 120.586 32.8293 120.138 33.64C119.69 34.4507 119.466 35.3893 119.466 36.456C119.466 37.5227 119.69 38.4613 120.138 39.272C120.586 40.0827 121.194 40.712 121.962 41.16C122.73 41.5867 123.594 41.8 124.554 41.8ZM153.64 45.32C151.912 45.32 150.237 45.0747 148.616 44.584C147.016 44.0933 145.746 43.4427 144.808 42.632L146.248 39.4C147.165 40.1253 148.285 40.7227 149.608 41.192C150.952 41.64 152.296 41.864 153.64 41.864C155.304 41.864 156.541 41.5973 157.352 41.064C158.184 40.5307 158.6 39.8267 158.6 38.952C158.6 38.312 158.365 37.7893 157.896 37.384C157.448 36.9573 156.872 36.6267 156.168 36.392C155.464 36.1573 154.504 35.8907 153.288 35.592C151.581 35.1867 150.194 34.7813 149.128 34.376C148.082 33.9707 147.176 33.3413 146.408 32.488C145.661 31.6133 145.288 30.44 145.288 28.968C145.288 27.7307 145.618 26.6107 146.28 25.608C146.962 24.584 147.976 23.7733 149.32 23.176C150.685 22.5787 152.349 22.28 154.312 22.28C155.677 22.28 157.021 22.4507 158.344 22.792C159.666 23.1333 160.808 23.624 161.767 24.264L160.456 27.496C159.474 26.92 158.45 26.4827 157.384 26.184C156.317 25.8853 155.282 25.736 154.28 25.736C152.637 25.736 151.41 26.0133 150.6 26.568C149.81 27.1227 149.416 27.8587 149.416 28.776C149.416 29.416 149.64 29.9387 150.088 30.344C150.557 30.7493 151.144 31.0693 151.848 31.304C152.552 31.5387 153.512 31.8053 154.728 32.104C156.392 32.488 157.757 32.8933 158.824 33.32C159.89 33.7253 160.797 34.3547 161.544 35.208C162.312 36.0613 162.696 37.2133 162.696 38.664C162.696 39.9013 162.354 41.0213 161.672 42.024C161.01 43.0267 159.997 43.8267 158.632 44.424C157.266 45.0213 155.602 45.32 153.64 45.32ZM176.709 44.072C176.239 44.456 175.663 44.744 174.981 44.936C174.319 45.128 173.615 45.224 172.869 45.224C170.991 45.224 169.541 44.7333 168.516 43.752C167.493 42.7707 166.981 41.3413 166.981 39.464V31.24H164.165V28.04H166.981V24.136H170.981V28.04H175.557V31.24H170.981V39.368C170.981 40.2 171.183 40.84 171.589 41.288C171.994 41.7147 172.581 41.928 173.349 41.928C174.245 41.928 174.991 41.6933 175.589 41.224L176.709 44.072ZM187.117 45.224C185.389 45.224 183.831 44.8507 182.445 44.104C181.058 43.3573 179.97 42.3227 179.181 41C178.413 39.656 178.029 38.1413 178.029 36.456C178.029 34.7707 178.413 33.2667 179.181 31.944C179.97 30.6213 181.058 29.5867 182.445 28.84C183.831 28.0933 185.389 27.72 187.117 27.72C188.866 27.72 190.434 28.0933 191.821 28.84C193.207 29.5867 194.285 30.6213 195.053 31.944C195.842 33.2667 196.237 34.7707 196.237 36.456C196.237 38.1413 195.842 39.656 195.053 41C194.285 42.3227 193.207 43.3573 191.821 44.104C190.434 44.8507 188.866 45.224 187.117 45.224ZM187.117 41.8C188.589 41.8 189.805 41.3093 190.765 40.328C191.725 39.3467 192.205 38.056 192.205 36.456C192.205 34.856 191.725 33.5653 190.765 32.584C189.805 31.6027 188.589 31.112 187.117 31.112C185.645 31.112 184.429 31.6027 183.469 32.584C182.53 33.5653 182.061 34.856 182.061 36.456C182.061 38.056 182.53 39.3467 183.469 40.328C184.429 41.3093 185.645 41.8 187.117 41.8ZM203.87 30.408C205.022 28.616 207.048 27.72 209.95 27.72V31.528C209.608 31.464 209.299 31.432 209.022 31.432C207.464 31.432 206.248 31.8907 205.374 32.808C204.499 33.704 204.062 35.0053 204.062 36.712V45H200.062V27.912H203.87V30.408ZM229.251 36.552C229.251 36.8293 229.229 37.224 229.187 37.736H215.779C216.013 38.9947 216.621 39.9973 217.603 40.744C218.605 41.4693 219.843 41.832 221.315 41.832C223.192 41.832 224.739 41.2133 225.955 39.976L228.099 42.44C227.331 43.3573 226.36 44.0507 225.187 44.52C224.013 44.9893 222.691 45.224 221.219 45.224C219.341 45.224 217.688 44.8507 216.259 44.104C214.829 43.3573 213.72 42.3227 212.931 41C212.163 39.656 211.779 38.1413 211.779 36.456C211.779 34.792 212.152 33.2987 212.899 31.976C213.667 30.632 214.723 29.5867 216.067 28.84C217.411 28.0933 218.925 27.72 220.611 27.72C222.275 27.72 223.757 28.0933 225.059 28.84C226.381 29.5653 227.405 30.6 228.131 31.944C228.877 33.2667 229.251 34.8027 229.251 36.552ZM220.611 30.92C219.331 30.92 218.243 31.304 217.347 32.072C216.472 32.8187 215.939 33.8213 215.747 35.08H225.443C225.272 33.8427 224.749 32.84 223.875 32.072C223 31.304 221.912 30.92 220.611 30.92Z" fill="white"/>
<path d="M44.7751 41.0183C44.3136 42.0942 43.7434 43.12 43.0734 44.08C42.1784 45.3583 41.4434 46.2417 40.8801 46.7333C40.0051 47.5367 39.0651 47.95 38.0601 47.9733C37.3401 47.9733 36.4701 47.7683 35.4567 47.3517C34.4401 46.9367 33.5067 46.7333 32.6517 46.7333C31.7567 46.7333 30.7967 46.9367 29.7684 47.3517C28.7417 47.7683 27.9117 47.9867 27.2767 48.0067C26.3151 48.0483 25.3534 47.625 24.3951 46.7333C23.7834 46.2 23.0184 45.2833 22.1001 43.9867C21.1167 42.605 20.3084 40.9967 19.6751 39.1683C18.9967 37.19 18.6567 35.2767 18.6567 33.4233C18.6567 31.3017 19.1151 29.47 20.0334 27.9367C20.728 26.7324 21.721 25.7274 22.9167 25.0183C24.0958 24.3111 25.4419 23.9303 26.8167 23.915C27.5834 23.915 28.5884 24.1517 29.8334 24.6183C31.0784 25.085 31.8784 25.3217 32.2267 25.3217C32.4901 25.3217 33.3751 25.0433 34.8817 24.4917C36.3034 23.98 37.5034 23.7683 38.4867 23.8517C41.1534 24.0667 43.1551 25.1167 44.4867 27.01C42.1034 28.455 40.9251 30.4767 40.9484 33.0717C40.9684 35.0933 41.7034 36.775 43.1434 38.11C43.78 38.7192 44.5228 39.2067 45.3351 39.5483C45.1584 40.06 44.9717 40.5483 44.7751 41.0183ZM38.6634 16.9667C38.6634 18.55 38.0834 20.03 36.9317 21.3983C35.5384 23.025 33.8551 23.9667 32.0301 23.8183C32.0062 23.6192 31.9945 23.4189 31.9951 23.2183C31.9951 21.6967 32.6551 20.07 33.8334 18.7383C34.4201 18.065 35.1667 17.5033 36.0717 17.0567C36.9751 16.6167 37.8284 16.3733 38.6317 16.3317C38.6534 16.545 38.6634 16.7567 38.6634 16.9667Z" fill="black"/>
<defs>
<linearGradient id="paint0_linear" x1="0" y1="0" x2="256" y2="69" gradientUnits="userSpaceOnUse">
<stop stop-color="#C4C4C4" stop-opacity="0.8"/>
<stop offset="1" stop-color="#C4C4C4" stop-opacity="0.2"/>
</linearGradient>
<linearGradient id="paint1_linear" x1="0" y1="0" x2="256" y2="69" gradientUnits="userSpaceOnUse">
<stop stop-color="white" stop-opacity="0.8"/>
<stop offset="1" stop-color="white" stop-opacity="0.2"/>
</linearGradient>
</defs>
</svg>
