<svg width="35" height="35" viewBox="0 0 40 40" fill="none" xmlns="http://www.w3.org/2000/svg">
<path d="M23.3857 2.50003C23.385 1.9575 23.6276 1.42955 24.077 0.996022C24.5263 0.56249 25.1579 0.246952 25.8762 0.097127C26.5946 -0.0526983 27.3606 -0.0286624 28.0584 0.1656C28.7563 0.359862 29.348 0.713784 29.7441 1.17384L38.9927 7.88717C39.3122 8.11922 39.5655 8.39466 39.7383 8.69778C39.9111 9.0009 40 9.32576 39.9998 9.6538C39.9996 9.98185 39.9105 10.3067 39.7374 10.6097C39.5643 10.9127 39.3107 11.188 38.991 11.4199C38.6713 11.6518 38.2919 11.8357 37.8743 11.9611C37.4567 12.0866 37.0091 12.1511 36.5572 12.1509C36.1053 12.1508 35.6578 12.0861 35.2403 11.9605C34.8229 11.8348 34.4436 11.6507 34.1241 11.4187L30.2706 8.61895V27.4752C30.2706 28.1376 29.9081 28.7728 29.2628 29.2412C28.6176 29.7096 27.7424 29.9727 26.8299 29.9727C25.9173 29.9727 25.0422 29.7096 24.3969 29.2412C23.7517 28.7728 23.3892 28.1376 23.3892 27.4752V2.50003H23.3857Z" fill="#338888"/>
<path d="M16.6141 37.5002C16.6148 38.0427 16.3722 38.5706 15.9228 39.0042C15.4735 39.4377 14.8419 39.7532 14.1236 39.9031C13.4052 40.0529 12.6392 40.0289 11.9414 39.8346C11.2435 39.6403 10.6518 39.2864 10.2557 38.8263L1.0071 32.113C0.361942 31.6444 -0.000322412 31.0089 2.1531e-07 30.3464C0.000322843 29.6839 0.363207 29.0486 1.00882 28.5803C1.65443 28.112 2.52989 27.849 3.4426 27.8492C4.35531 27.8495 5.23052 28.1129 5.87567 28.5815L9.72925 31.3812V12.525C9.72925 11.8626 10.0917 11.2273 10.737 10.759C11.3823 10.2906 12.2574 10.0275 13.1699 10.0275C14.0825 10.0275 14.9576 10.2906 15.6029 10.759C16.2481 11.2273 16.6106 11.8626 16.6106 12.525V37.5002H16.6141Z" fill="#338888"/>
</svg>
