<svg width="354" height="209" viewBox="0 0 354 209" fill="none" xmlns="http://www.w3.org/2000/svg">
<path fill-rule="evenodd" clip-rule="evenodd" d="M58.5 111C26.1897 111 0 86.8249 0 57C0 27.1751 26.1897 3 58.5 3C90.8103 3 117 27.1751 117 57C117 86.8249 90.8103 111 58.5 111ZM73.9111 27.3L67.6114 25.8487L65.1507 35.2177C63.4908 34.8229 61.787 34.4719 60.1307 34.1175L62.6389 24.7013L56.3428 23.25L53.7834 32.8417C52.4123 32.5346 51.0888 32.268 49.7616 31.9642L41.0962 29.9392L39.4363 36.1864C39.4363 36.1864 44.1236 37.1989 44.0286 37.2427C46.5879 37.8165 47.0632 39.3994 46.9682 40.6312L45.0706 47.6715L43.4143 53.787L39.8641 66.99C39.5314 67.692 38.7745 68.7923 36.9757 68.3974C37.0195 68.4851 32.3797 67.341 32.3797 67.341L29.25 73.9864L37.44 75.8764C38.9573 76.2308 40.4747 76.6256 41.9445 76.9766L39.3376 86.7034L45.6373 88.1546L48.1967 78.5156L50.2296 71.4754L53.6884 58.5829C54.3977 58.7617 55.1582 58.8934 55.9626 59.0689C58.5219 59.5954 61.1727 59.8147 63.776 59.9936C65.3847 60.1252 66.9496 60.1691 68.5583 60.1691C70.9601 60.1202 73.3396 59.7332 75.6149 59.0216C77.5125 58.4513 79.7355 57.7054 81.1578 56.2946C82.8141 54.6679 83.6221 52.5146 83.9512 50.3546C85.0882 43.2705 79.2638 39.4433 71.3554 36.8884L73.9111 27.3ZM73.3919 62.0625C71.6369 62.3257 70.7375 62.4574 68.9861 62.5451L66.5218 62.6767C68.8911 64.1719 70.3609 66.2407 69.6004 69.0994C68.1817 74.469 60.6499 73.7231 55.0631 72.5756L53.1655 79.707L53.0741 80.0107L50.6573 89.2988L56.9095 90.75L59.5128 81.0266C70.2183 82.9166 78.3169 82.1707 81.677 73.1055C83.8086 67.5165 82.2473 63.1594 78.9787 60.4763C78.9311 60.5201 78.8361 60.5201 78.7885 60.564C77.2748 61.1377 75.1432 61.7959 73.3919 62.0591V62.0625ZM71.5418 50.2669C69.7905 56.8684 58.8035 53.5238 55.2496 52.6868L58.3757 40.9823C61.9296 41.8631 73.3919 43.3582 71.5418 50.2669Z" fill="#FFD54F"/>
<g clip-path="url(#clip0)">
<path fill-rule="evenodd" clip-rule="evenodd" d="M166.622 197.82C141.091 203.855 115.864 189.577 110.274 165.927C104.683 142.277 120.847 118.215 146.378 112.18C171.909 106.145 197.135 120.423 202.726 144.073C208.316 167.723 192.153 191.785 166.622 197.82ZM175.949 150.402L154.09 144.803L137.05 159.598L158.892 165.119L175.948 150.397L175.949 150.402ZM159.693 168.507C152.12 166.568 144.546 164.636 136.969 162.711C145.03 169.984 155.025 178.958 164.091 187.112C168.547 175.765 173.465 163.262 177.416 153.15C171.503 158.263 165.595 163.382 159.693 168.507ZM153.31 141.506L176.006 147.182L148.908 122.885L135.559 156.746L153.311 141.509L153.31 141.506Z" fill="#FFD54F"/>
<path d="M175.871 150.353L156.818 156.487L154.048 144.768L175.868 150.354L175.871 150.353ZM159.64 168.426C164.652 164.077 171.126 158.466 177.334 153.099C173.387 163.193 168.478 175.668 164.029 186.994L159.64 168.426ZM153.27 141.479L148.877 122.893L175.927 147.144L153.27 141.479Z" fill="black" fill-opacity="0.296"/>
<path fill-rule="evenodd" clip-rule="evenodd" d="M156.818 156.488L175.868 150.354L158.841 165.046L156.818 156.488Z" fill="black" fill-opacity="0.803"/>
<path opacity="0.311" fill-rule="evenodd" clip-rule="evenodd" d="M156.815 156.488L137.032 159.534L158.838 165.047L156.815 156.488Z" fill="#FFD54F"/>
</g>
<g clip-path="url(#clip1)">
<path d="M312.298 32.6658C334.998 50.7075 338.356 84.2571 319.799 107.606C301.242 130.954 267.8 135.256 245.1 117.214C222.4 99.1723 219.042 65.6227 237.599 42.2741C256.156 18.9256 289.598 14.624 312.298 32.6658ZM275.225 34.486L254.6 100.489L308.862 88.0272L306.719 70.9681L275.225 34.486ZM302.32 86.1004L262.996 95.1294L282.6 75.6478L302.318 86.1031L302.32 86.1004ZM275.605 44.4067L281.09 72.4857L260.406 93.036L275.607 44.4041L275.605 44.4067ZM303.666 73.5857L304.93 83.6394L287.125 74.2L303.666 73.5857ZM278.951 44.0048L301.651 70.2987L284.215 70.9428L278.951 44.0048Z" fill="#FFD54F"/>
</g>
<defs>
<clipPath id="clip0">
<rect width="95" height="88" fill="white" transform="translate(100.152 123.107) rotate(-13.2997)"/>
</clipPath>
<clipPath id="clip1">
<rect width="105" height="108" fill="white" transform="translate(271.198) rotate(38.4773)"/>
</clipPath>
</defs>
</svg>
