<svg width="700" height="140" viewBox="0 0 814 220" fill="none" xmlns="http://www.w3.org/2000/svg">
<g filter="url(#filter0_d)">
<path d="M206.152 109.981C206.152 156.317 166.043 194.462 115.826 194.462C65.6091 194.462 25.5 156.317 25.5 109.981C25.5 63.6443 65.6091 25.5 115.826 25.5C166.043 25.5 206.152 63.6443 206.152 109.981Z" stroke="#00E0FF" stroke-width="11"/>
</g>
<g filter="url(#filter1_d)">
<path d="M30.8 93.5H78.7V86.7H30.8V93.5ZM30.8 117.5H78.7V110.7H30.8V117.5ZM121.269 140.3C131.169 140.3 139.269 136.7 143.969 131.8V101H119.969V108.7H135.469V127.9C132.569 130.6 127.469 132.2 122.269 132.2C106.469 132.2 97.7688 120.6 97.7688 102.1C97.7688 83.8 107.369 72.4 122.069 72.4C129.569 72.4 134.269 75.5 137.969 79.4L142.969 73.4C138.769 68.9 132.069 64.3 121.869 64.3C102.469 64.3 88.2688 78.7 88.2688 102.4C88.2688 126.2 102.069 140.3 121.269 140.3ZM155.214 93.5H203.114V86.7H155.214V93.5ZM155.214 117.5H203.114V110.7H155.214V117.5Z" fill="#00E0FF" fill-opacity="0.9"/>
</g>
<path d="M282.4 179.5C276.2 179.5 271.433 177.967 268.1 174.9C264.833 171.767 262.567 167.4 261.3 161.8C260.1 156.133 259.5 149.533 259.5 142C259.5 136.067 259.867 130.767 260.6 126.1C261.4 121.433 262.767 117.5 264.7 114.3C266.7 111.033 269.467 108.567 273 106.9C276.6 105.167 281.2 104.3 286.8 104.3C291.933 104.3 296.433 104.6 300.3 105.2C304.167 105.8 308 106.6 311.8 107.6V119C309.667 118.733 306.567 118.433 302.5 118.1C298.433 117.767 294.1 117.6 289.5 117.6C285.3 117.6 282.1 118.367 279.9 119.9C277.7 121.433 276.2 123.967 275.4 127.5C274.667 131.033 274.3 135.9 274.3 142.1C274.3 148.5 274.7 153.433 275.5 156.9C276.3 160.3 277.633 162.667 279.5 164C281.367 165.267 283.9 165.9 287.1 165.9C289.9 165.9 292.533 165.667 295 165.2C297.467 164.733 299.467 164.267 301 163.8V149.4H287.7V137.7C289.767 137.433 292.4 137.2 295.6 137C298.867 136.8 301.933 136.7 304.8 136.7C306.933 136.7 308.833 136.733 310.5 136.8C312.233 136.867 313.8 136.933 315.2 137V179H304.1L302.1 174C300.167 175.133 297.433 176.333 293.9 177.6C290.367 178.867 286.533 179.5 282.4 179.5ZM344.102 179.2C338.435 179.2 334.202 177.8 331.402 175C328.668 172.2 327.302 167.767 327.302 161.7V102.7H342.102V159.5C342.102 162.5 342.568 164.6 343.502 165.8C344.435 166.933 345.835 167.633 347.702 167.9L351.802 168.5V179.2H344.102ZM370.049 179.6C365.983 179.6 362.683 178.4 360.149 176C357.616 173.6 356.349 170.267 356.349 166V161.2C356.349 157.133 357.783 153.8 360.649 151.2C363.516 148.533 367.983 147.2 374.049 147.2H387.749V143.5C387.749 141.833 387.449 140.467 386.849 139.4C386.316 138.267 385.216 137.467 383.549 137C381.883 136.467 379.383 136.2 376.049 136.2H359.949V127.6C362.616 126.8 365.649 126.1 369.049 125.5C372.449 124.9 376.583 124.6 381.449 124.6C385.916 124.6 389.716 125.133 392.849 126.2C395.983 127.267 398.383 129.1 400.049 131.7C401.716 134.3 402.549 137.9 402.549 142.5V179H390.849L388.449 173.3C387.849 173.967 386.649 174.8 384.849 175.8C383.049 176.733 380.849 177.6 378.249 178.4C375.716 179.2 372.983 179.6 370.049 179.6ZM377.549 169.3C378.683 169.3 379.983 169.133 381.449 168.8C382.983 168.4 384.349 168 385.549 167.6C386.816 167.133 387.549 166.833 387.749 166.7V154.2L378.749 154.8C373.683 155.2 371.149 157.4 371.149 161.4V163.6C371.149 165.733 371.749 167.233 372.949 168.1C374.216 168.9 375.749 169.3 377.549 169.3ZM433.13 179.6C430.863 179.6 428.396 179.5 425.73 179.3C423.13 179.167 420.63 178.933 418.23 178.6C415.83 178.2 413.863 177.733 412.33 177.2V168.5H436.13C438.196 168.5 439.73 168.233 440.73 167.7C441.73 167.1 442.23 165.9 442.23 164.1V162.4C442.23 161.067 441.796 160.033 440.93 159.3C440.063 158.567 438.463 158.2 436.13 158.2H427.73C424.663 158.2 421.896 157.767 419.43 156.9C416.963 155.967 414.996 154.433 413.53 152.3C412.13 150.167 411.43 147.267 411.43 143.6V140.5C411.43 137.1 412.096 134.233 413.43 131.9C414.763 129.567 416.996 127.8 420.13 126.6C423.263 125.4 427.563 124.8 433.03 124.8C435.23 124.8 437.563 124.933 440.03 125.2C442.563 125.4 444.93 125.7 447.13 126.1C449.396 126.5 451.196 126.9 452.53 127.3V136H430.03C428.096 136 426.63 136.333 425.63 137C424.63 137.6 424.13 138.767 424.13 140.5V142.1C424.13 143.833 424.663 144.967 425.73 145.5C426.796 146.033 428.43 146.3 430.63 146.3H439.23C444.696 146.3 448.663 147.567 451.13 150.1C453.663 152.567 454.93 156 454.93 160.4V165.2C454.93 170.667 453.03 174.433 449.23 176.5C445.496 178.567 440.13 179.6 433.13 179.6ZM483.618 179.6C481.351 179.6 478.885 179.5 476.218 179.3C473.618 179.167 471.118 178.933 468.718 178.6C466.318 178.2 464.351 177.733 462.818 177.2V168.5H486.618C488.685 168.5 490.218 168.233 491.218 167.7C492.218 167.1 492.718 165.9 492.718 164.1V162.4C492.718 161.067 492.285 160.033 491.418 159.3C490.551 158.567 488.951 158.2 486.618 158.2H478.218C475.151 158.2 472.385 157.767 469.918 156.9C467.451 155.967 465.485 154.433 464.018 152.3C462.618 150.167 461.918 147.267 461.918 143.6V140.5C461.918 137.1 462.585 134.233 463.918 131.9C465.251 129.567 467.485 127.8 470.618 126.6C473.751 125.4 478.051 124.8 483.518 124.8C485.718 124.8 488.051 124.933 490.518 125.2C493.051 125.4 495.418 125.7 497.618 126.1C499.885 126.5 501.685 126.9 503.018 127.3V136H480.518C478.585 136 477.118 136.333 476.118 137C475.118 137.6 474.618 138.767 474.618 140.5V142.1C474.618 143.833 475.151 144.967 476.218 145.5C477.285 146.033 478.918 146.3 481.118 146.3H489.718C495.185 146.3 499.151 147.567 501.618 150.1C504.151 152.567 505.418 156 505.418 160.4V165.2C505.418 170.667 503.518 174.433 499.718 176.5C495.985 178.567 490.618 179.6 483.618 179.6ZM565.988 179.6C561.721 179.6 557.921 179.1 554.588 178.1C551.254 177.1 548.454 175.267 546.188 172.6C543.921 169.933 542.188 166.133 540.988 161.2C539.788 156.2 539.188 149.733 539.188 141.8C539.188 134.133 539.788 127.867 540.988 123C542.254 118.133 544.054 114.333 546.388 111.6C548.721 108.867 551.554 106.967 554.888 105.9C558.221 104.833 561.988 104.3 566.188 104.3C571.121 104.3 575.588 104.7 579.588 105.5C583.654 106.233 586.888 107 589.288 107.8V119.3C587.488 118.9 584.754 118.533 581.088 118.2C577.488 117.8 573.554 117.6 569.288 117.6C566.488 117.6 564.088 117.933 562.088 118.6C560.154 119.2 558.588 120.367 557.388 122.1C556.254 123.767 555.388 126.2 554.788 129.4C554.254 132.6 553.988 136.767 553.988 141.9C553.988 148.567 554.421 153.667 555.288 157.2C556.154 160.667 557.688 163.067 559.888 164.4C562.088 165.667 565.221 166.3 569.288 166.3C574.288 166.3 578.388 166.2 581.588 166C584.788 165.8 587.354 165.567 589.288 165.3V176.7C586.554 177.633 583.254 178.367 579.388 178.9C575.588 179.367 571.121 179.6 565.988 179.6ZM621.005 179.5C615.071 179.5 610.305 178.667 606.705 177C603.105 175.267 600.471 172.4 598.805 168.4C597.205 164.4 596.405 158.933 596.405 152C596.405 144.667 597.238 139.033 598.905 135.1C600.571 131.1 603.205 128.333 606.805 126.8C610.405 125.267 615.138 124.5 621.005 124.5C626.938 124.5 631.705 125.3 635.305 126.9C638.971 128.5 641.605 131.3 643.205 135.3C644.871 139.3 645.705 144.867 645.705 152C645.705 159.133 644.905 164.7 643.305 168.7C641.705 172.7 639.105 175.5 635.505 177.1C631.905 178.7 627.071 179.5 621.005 179.5ZM621.005 167.7C623.338 167.7 625.238 167.367 626.705 166.7C628.171 166.033 629.238 164.6 629.905 162.4C630.571 160.133 630.905 156.667 630.905 152C630.905 147.267 630.571 143.8 629.905 141.6C629.238 139.4 628.171 137.967 626.705 137.3C625.238 136.633 623.338 136.3 621.005 136.3C618.671 136.3 616.771 136.633 615.305 137.3C613.905 137.967 612.871 139.4 612.205 141.6C611.538 143.8 611.205 147.267 611.205 152C611.205 156.667 611.538 160.133 612.205 162.4C612.871 164.6 613.905 166.033 615.305 166.7C616.771 167.367 618.671 167.7 621.005 167.7ZM657.324 117.4C655.924 117.4 655.224 116.733 655.224 115.4V105.6C655.224 104.2 655.924 103.5 657.324 103.5H668.724C669.991 103.5 670.624 104.2 670.624 105.6V115.4C670.624 116.733 669.991 117.4 668.724 117.4H657.324ZM655.524 179V125.3H670.324V179H655.524ZM681.696 179V125.3H693.896L696.496 130.8C698.496 129.2 701.029 127.733 704.096 126.4C707.163 125.067 710.263 124.4 713.396 124.4C717.796 124.4 721.196 125.267 723.596 127C725.996 128.733 727.663 131.067 728.596 134C729.596 136.867 730.096 140.067 730.096 143.6V179H715.296V145.5C715.296 142.9 714.596 140.967 713.196 139.7C711.796 138.367 709.929 137.7 707.596 137.7C705.463 137.7 703.463 138.067 701.596 138.8C699.796 139.533 698.096 140.5 696.496 141.7V179H681.696Z" fill="white"/>
<defs>
<filter id="filter0_d" x="0" y="0" width="231.652" height="219.962" filterUnits="userSpaceOnUse" color-interpolation-filters="sRGB">
<feFlood flood-opacity="0" result="BackgroundImageFix"/>
<feColorMatrix in="SourceAlpha" type="matrix" values="0 0 0 0 0 0 0 0 0 0 0 0 0 0 0 0 0 0 127 0"/>
<feOffset/>
<feGaussianBlur stdDeviation="10"/>
<feColorMatrix type="matrix" values="0 0 0 0 0 0 0 0 0 0.88 0 0 0 0 1 0 0 0 1 0"/>
<feBlend mode="normal" in2="BackgroundImageFix" result="effect1_dropShadow"/>
<feBlend mode="normal" in="SourceGraphic" in2="effect1_dropShadow" result="shape"/>
</filter>
<filter id="filter1_d" x="10.7998" y="44.3" width="212.314" height="116" filterUnits="userSpaceOnUse" color-interpolation-filters="sRGB">
<feFlood flood-opacity="0" result="BackgroundImageFix"/>
<feColorMatrix in="SourceAlpha" type="matrix" values="0 0 0 0 0 0 0 0 0 0 0 0 0 0 0 0 0 0 127 0"/>
<feOffset/>
<feGaussianBlur stdDeviation="10"/>
<feColorMatrix type="matrix" values="0 0 0 0 0 0 0 0 0 0.88 0 0 0 0 1 0 0 0 1 0"/>
<feBlend mode="normal" in2="BackgroundImageFix" result="effect1_dropShadow"/>
<feBlend mode="normal" in="SourceGraphic" in2="effect1_dropShadow" result="shape"/>
</filter>
</defs>
</svg>
