<svg width="376" height="137" viewBox="0 0 376 137" fill="none" xmlns="http://www.w3.org/2000/svg">
<path d="M148.7 98.25C145.6 98.25 143.217 97.4833 141.55 95.95C139.917 94.3833 138.783 92.2 138.15 89.4C137.55 86.5667 137.25 83.2667 137.25 79.5C137.25 76.5333 137.433 73.8833 137.8 71.55C138.2 69.2167 138.883 67.25 139.85 65.65C140.85 64.0167 142.233 62.7833 144 61.95C145.8 61.0833 148.1 60.65 150.9 60.65C153.467 60.65 155.717 60.8 157.65 61.1C159.583 61.4 161.5 61.8 163.4 62.3V68C162.333 67.8667 160.783 67.7167 158.75 67.55C156.717 67.3833 154.55 67.3 152.25 67.3C150.15 67.3 148.55 67.6833 147.45 68.45C146.35 69.2167 145.6 70.4833 145.2 72.25C144.833 74.0167 144.65 76.45 144.65 79.55C144.65 82.75 144.85 85.2167 145.25 86.95C145.65 88.65 146.317 89.8333 147.25 90.5C148.183 91.1333 149.45 91.45 151.05 91.45C152.45 91.45 153.767 91.3333 155 91.1C156.233 90.8667 157.233 90.6333 158 90.4V83.2H151.35V77.35C152.383 77.2167 153.7 77.1 155.3 77C156.933 76.9 158.467 76.85 159.9 76.85C160.967 76.85 161.917 76.8667 162.75 76.9C163.617 76.9333 164.4 76.9667 165.1 77V98H159.55L158.55 95.5C157.583 96.0667 156.217 96.6667 154.45 97.3C152.683 97.9333 150.767 98.25 148.7 98.25ZM179.551 98.1C176.717 98.1 174.601 97.4 173.201 96C171.834 94.6 171.151 92.3833 171.151 89.35V59.85H178.551V88.25C178.551 89.75 178.784 90.8 179.251 91.4C179.717 91.9667 180.417 92.3167 181.351 92.45L183.401 92.75V98.1H179.551ZM192.525 98.3C190.491 98.3 188.841 97.7 187.575 96.5C186.308 95.3 185.675 93.6333 185.675 91.5V89.1C185.675 87.0667 186.391 85.4 187.825 84.1C189.258 82.7667 191.491 82.1 194.525 82.1H201.375V80.25C201.375 79.4167 201.225 78.7333 200.925 78.2C200.658 77.6333 200.108 77.2333 199.275 77C198.441 76.7333 197.191 76.6 195.525 76.6H187.475V72.3C188.808 71.9 190.325 71.55 192.025 71.25C193.725 70.95 195.791 70.8 198.225 70.8C200.458 70.8 202.358 71.0667 203.925 71.6C205.491 72.1333 206.691 73.05 207.525 74.35C208.358 75.65 208.775 77.45 208.775 79.75V98H202.925L201.725 95.15C201.425 95.4833 200.825 95.9 199.925 96.4C199.025 96.8667 197.925 97.3 196.625 97.7C195.358 98.1 193.991 98.3 192.525 98.3ZM196.275 93.15C196.841 93.15 197.491 93.0667 198.225 92.9C198.991 92.7 199.675 92.5 200.275 92.3C200.908 92.0667 201.275 91.9167 201.375 91.85V85.6L196.875 85.9C194.341 86.1 193.075 87.2 193.075 89.2V90.3C193.075 91.3667 193.375 92.1167 193.975 92.55C194.608 92.95 195.375 93.15 196.275 93.15ZM224.065 98.3C222.932 98.3 221.698 98.25 220.365 98.15C219.065 98.0833 217.815 97.9667 216.615 97.8C215.415 97.6 214.432 97.3667 213.665 97.1V92.75H225.565C226.598 92.75 227.365 92.6167 227.865 92.35C228.365 92.05 228.615 91.45 228.615 90.55V89.7C228.615 89.0333 228.398 88.5167 227.965 88.15C227.532 87.7833 226.732 87.6 225.565 87.6H221.365C219.832 87.6 218.448 87.3833 217.215 86.95C215.982 86.4833 214.998 85.7167 214.265 84.65C213.565 83.5833 213.215 82.1333 213.215 80.3V78.75C213.215 77.05 213.548 75.6167 214.215 74.45C214.882 73.2833 215.998 72.4 217.565 71.8C219.132 71.2 221.282 70.9 224.015 70.9C225.115 70.9 226.282 70.9667 227.515 71.1C228.782 71.2 229.965 71.35 231.065 71.55C232.198 71.75 233.098 71.95 233.765 72.15V76.5H222.515C221.548 76.5 220.815 76.6667 220.315 77C219.815 77.3 219.565 77.8833 219.565 78.75V79.55C219.565 80.4167 219.832 80.9833 220.365 81.25C220.898 81.5167 221.715 81.65 222.815 81.65H227.115C229.848 81.65 231.832 82.2833 233.065 83.55C234.332 84.7833 234.965 86.5 234.965 88.7V91.1C234.965 93.8333 234.015 95.7167 232.115 96.75C230.248 97.7833 227.565 98.3 224.065 98.3ZM249.309 98.3C248.176 98.3 246.942 98.25 245.609 98.15C244.309 98.0833 243.059 97.9667 241.859 97.8C240.659 97.6 239.676 97.3667 238.909 97.1V92.75H250.809C251.842 92.75 252.609 92.6167 253.109 92.35C253.609 92.05 253.859 91.45 253.859 90.55V89.7C253.859 89.0333 253.642 88.5167 253.209 88.15C252.776 87.7833 251.976 87.6 250.809 87.6H246.609C245.076 87.6 243.692 87.3833 242.459 86.95C241.226 86.4833 240.242 85.7167 239.509 84.65C238.809 83.5833 238.459 82.1333 238.459 80.3V78.75C238.459 77.05 238.792 75.6167 239.459 74.45C240.126 73.2833 241.242 72.4 242.809 71.8C244.376 71.2 246.526 70.9 249.259 70.9C250.359 70.9 251.526 70.9667 252.759 71.1C254.026 71.2 255.209 71.35 256.309 71.55C257.442 71.75 258.342 71.95 259.009 72.15V76.5H247.759C246.792 76.5 246.059 76.6667 245.559 77C245.059 77.3 244.809 77.8833 244.809 78.75V79.55C244.809 80.4167 245.076 80.9833 245.609 81.25C246.142 81.5167 246.959 81.65 248.059 81.65H252.359C255.092 81.65 257.076 82.2833 258.309 83.55C259.576 84.7833 260.209 86.5 260.209 88.7V91.1C260.209 93.8333 259.259 95.7167 257.359 96.75C255.492 97.7833 252.809 98.3 249.309 98.3ZM290.494 98.3C288.36 98.3 286.46 98.05 284.794 97.55C283.127 97.05 281.727 96.1333 280.594 94.8C279.46 93.4667 278.594 91.5667 277.994 89.1C277.394 86.6 277.094 83.3667 277.094 79.4C277.094 75.5667 277.394 72.4333 277.994 70C278.627 67.5667 279.527 65.6667 280.694 64.3C281.86 62.9333 283.277 61.9833 284.944 61.45C286.61 60.9167 288.494 60.65 290.594 60.65C293.06 60.65 295.294 60.85 297.294 61.25C299.327 61.6167 300.944 62 302.144 62.4V68.15C301.244 67.95 299.877 67.7667 298.044 67.6C296.244 67.4 294.277 67.3 292.144 67.3C290.744 67.3 289.544 67.4667 288.544 67.8C287.577 68.1 286.794 68.6833 286.194 69.55C285.627 70.3833 285.194 71.6 284.894 73.2C284.627 74.8 284.494 76.8833 284.494 79.45C284.494 82.7833 284.71 85.3333 285.144 87.1C285.577 88.8333 286.344 90.0333 287.444 90.7C288.544 91.3333 290.11 91.65 292.144 91.65C294.644 91.65 296.694 91.6 298.294 91.5C299.894 91.4 301.177 91.2833 302.144 91.15V96.85C300.777 97.3167 299.127 97.6833 297.194 97.95C295.294 98.1833 293.06 98.3 290.494 98.3ZM318.002 98.25C315.036 98.25 312.652 97.8333 310.852 97C309.052 96.1333 307.736 94.7 306.902 92.7C306.102 90.7 305.702 87.9667 305.702 84.5C305.702 80.8333 306.119 78.0167 306.952 76.05C307.786 74.05 309.102 72.6667 310.902 71.9C312.702 71.1333 315.069 70.75 318.002 70.75C320.969 70.75 323.352 71.15 325.152 71.95C326.986 72.75 328.302 74.15 329.102 76.15C329.936 78.15 330.352 80.9333 330.352 84.5C330.352 88.0667 329.952 90.85 329.152 92.85C328.352 94.85 327.052 96.25 325.252 97.05C323.452 97.85 321.036 98.25 318.002 98.25ZM318.002 92.35C319.169 92.35 320.119 92.1833 320.852 91.85C321.586 91.5167 322.119 90.8 322.452 89.7C322.786 88.5667 322.952 86.8333 322.952 84.5C322.952 82.1333 322.786 80.4 322.452 79.3C322.119 78.2 321.586 77.4833 320.852 77.15C320.119 76.8167 319.169 76.65 318.002 76.65C316.836 76.65 315.886 76.8167 315.152 77.15C314.452 77.4833 313.936 78.2 313.602 79.3C313.269 80.4 313.102 82.1333 313.102 84.5C313.102 86.8333 313.269 88.5667 313.602 89.7C313.936 90.8 314.452 91.5167 315.152 91.85C315.886 92.1833 316.836 92.35 318.002 92.35ZM336.162 67.2C335.462 67.2 335.112 66.8667 335.112 66.2V61.3C335.112 60.6 335.462 60.25 336.162 60.25H341.862C342.495 60.25 342.812 60.6 342.812 61.3V66.2C342.812 66.8667 342.495 67.2 341.862 67.2H336.162ZM335.262 98V71.15H342.662V98H335.262ZM348.348 98V71.15H354.448L355.748 73.9C356.748 73.1 358.015 72.3667 359.548 71.7C361.081 71.0333 362.631 70.7 364.198 70.7C366.398 70.7 368.098 71.1333 369.298 72C370.498 72.8667 371.331 74.0333 371.798 75.5C372.298 76.9333 372.548 78.5333 372.548 80.3V98H365.148V81.25C365.148 79.95 364.798 78.9833 364.098 78.35C363.398 77.6833 362.465 77.35 361.298 77.35C360.231 77.35 359.231 77.5333 358.298 77.9C357.398 78.2667 356.548 78.75 355.748 79.35V98H348.348Z" fill="white"/>
<g filter="url(#filter0_d)">
<path d="M114.324 68.5C114.324 93.9094 93.7644 114.5 68.4121 114.5C43.0598 114.5 22.5 93.9094 22.5 68.5C22.5 43.0906 43.0598 22.5 68.4121 22.5C93.7644 22.5 114.324 43.0906 114.324 68.5Z" stroke="#00E0FF" stroke-width="5"/>
</g>
<g filter="url(#filter1_d)">
<path d="M25.631 65.25H49.581V61.85H25.631V65.25ZM25.631 77.25H49.581V73.85H25.631V77.25ZM70.8653 88.65C75.8153 88.65 79.8653 86.85 82.2153 84.4V69H70.2153V72.85H77.9653V82.45C76.5153 83.8 73.9653 84.6 71.3653 84.6C63.4653 84.6 59.1153 78.8 59.1153 69.55C59.1153 60.4 63.9153 54.7 71.2653 54.7C75.0153 54.7 77.3653 56.25 79.2153 58.2L81.7153 55.2C79.6153 52.95 76.2653 50.65 71.1653 50.65C61.4653 50.65 54.3653 57.85 54.3653 69.7C54.3653 81.6 61.2653 88.65 70.8653 88.65ZM87.838 65.25H111.788V61.85H87.838V65.25ZM87.838 77.25H111.788V73.85H87.838V77.25Z" fill="#00E0FF" fill-opacity="0.9"/>
</g>
<defs>
<filter id="filter0_d" x="0" y="0" width="136.824" height="137" filterUnits="userSpaceOnUse" color-interpolation-filters="sRGB">
<feFlood flood-opacity="0" result="BackgroundImageFix"/>
<feColorMatrix in="SourceAlpha" type="matrix" values="0 0 0 0 0 0 0 0 0 0 0 0 0 0 0 0 0 0 127 0"/>
<feOffset/>
<feGaussianBlur stdDeviation="10"/>
<feColorMatrix type="matrix" values="0 0 0 0 0 0 0 0 0 0.88 0 0 0 0 1 0 0 0 1 0"/>
<feBlend mode="normal" in2="BackgroundImageFix" result="effect1_dropShadow"/>
<feBlend mode="normal" in="SourceGraphic" in2="effect1_dropShadow" result="shape"/>
</filter>
<filter id="filter1_d" x="5.63086" y="30.6499" width="126.157" height="78" filterUnits="userSpaceOnUse" color-interpolation-filters="sRGB">
<feFlood flood-opacity="0" result="BackgroundImageFix"/>
<feColorMatrix in="SourceAlpha" type="matrix" values="0 0 0 0 0 0 0 0 0 0 0 0 0 0 0 0 0 0 127 0"/>
<feOffset/>
<feGaussianBlur stdDeviation="10"/>
<feColorMatrix type="matrix" values="0 0 0 0 0 0 0 0 0 0.88 0 0 0 0 1 0 0 0 1 0"/>
<feBlend mode="normal" in2="BackgroundImageFix" result="effect1_dropShadow"/>
<feBlend mode="normal" in="SourceGraphic" in2="effect1_dropShadow" result="shape"/>
</filter>
</defs>
</svg>
