<svg width="411" height="849" viewBox="0 0 411 849" fill="none" xmlns="http://www.w3.org/2000/svg">
<rect x="26" width="254" height="138" rx="30" fill="#00B9D2" fill-opacity="0.9"/>
<path d="M58.72 50V64H54.76V58.54H49.36V64H45.4V50H49.36V55.26H54.76V50H58.72ZM75.1133 58.6C75.1133 58.6267 75.0933 58.94 75.0533 59.54H67.1733C67.3333 60.1 67.6399 60.5333 68.0933 60.84C68.5599 61.1333 69.1399 61.28 69.8333 61.28C70.3533 61.28 70.7999 61.2067 71.1733 61.06C71.5599 60.9133 71.9466 60.6733 72.3333 60.34L74.3333 62.42C73.2799 63.5933 71.7399 64.18 69.7133 64.18C68.4466 64.18 67.3333 63.94 66.3733 63.46C65.4133 62.98 64.6666 62.3133 64.1333 61.46C63.6133 60.6067 63.3533 59.64 63.3533 58.56C63.3533 57.4933 63.6066 56.54 64.1133 55.7C64.6333 54.8467 65.3466 54.18 66.2533 53.7C67.1599 53.22 68.1799 52.98 69.3133 52.98C70.3933 52.98 71.3733 53.2067 72.2533 53.66C73.1333 54.1 73.8266 54.7467 74.3333 55.6C74.8533 56.44 75.1133 57.44 75.1133 58.6ZM69.3333 55.68C68.7466 55.68 68.2533 55.8467 67.8533 56.18C67.4666 56.5133 67.2199 56.9667 67.1133 57.54H71.5533C71.4466 56.9667 71.1933 56.5133 70.7933 56.18C70.4066 55.8467 69.9199 55.68 69.3333 55.68ZM79.5653 49.16H83.3653V64H79.5653V49.16ZM88.5348 49.16H92.3348V64H88.5348V49.16ZM97.5044 49.16H101.304V64H97.5044V49.16ZM111.914 64.18C110.754 64.18 109.707 63.94 108.774 63.46C107.841 62.98 107.107 62.3133 106.574 61.46C106.054 60.6067 105.794 59.64 105.794 58.56C105.794 57.4933 106.054 56.5333 106.574 55.68C107.107 54.8267 107.834 54.1667 108.754 53.7C109.687 53.22 110.741 52.98 111.914 52.98C113.087 52.98 114.141 53.22 115.074 53.7C116.007 54.1667 116.734 54.8267 117.254 55.68C117.774 56.52 118.034 57.48 118.034 58.56C118.034 59.64 117.774 60.6067 117.254 61.46C116.734 62.3133 116.007 62.98 115.074 63.46C114.141 63.94 113.087 64.18 111.914 64.18ZM111.914 61.16C112.581 61.16 113.127 60.9333 113.554 60.48C113.981 60.0133 114.194 59.3733 114.194 58.56C114.194 57.76 113.981 57.1333 113.554 56.68C113.127 56.2267 112.581 56 111.914 56C111.247 56 110.701 56.2267 110.274 56.68C109.847 57.1333 109.634 57.76 109.634 58.56C109.634 59.3733 109.847 60.0133 110.274 60.48C110.701 60.9333 111.247 61.16 111.914 61.16ZM134.255 64.28C133.228 64.28 132.295 64.1067 131.455 63.76C130.615 63.4 129.928 62.8867 129.395 62.22L131.555 59.66C132.301 60.6333 133.108 61.12 133.975 61.12C134.548 61.12 134.981 60.9467 135.275 60.6C135.581 60.2533 135.735 59.7467 135.735 59.08V53.06H130.895V50H139.655V58.84C139.655 60.6533 139.195 62.0133 138.275 62.92C137.368 63.8267 136.028 64.28 134.255 64.28ZM150.287 64.18C149.127 64.18 148.081 63.94 147.147 63.46C146.214 62.98 145.481 62.3133 144.947 61.46C144.427 60.6067 144.167 59.64 144.167 58.56C144.167 57.4933 144.427 56.5333 144.947 55.68C145.481 54.8267 146.207 54.1667 147.127 53.7C148.061 53.22 149.114 52.98 150.287 52.98C151.461 52.98 152.514 53.22 153.447 53.7C154.381 54.1667 155.107 54.8267 155.627 55.68C156.147 56.52 156.407 57.48 156.407 58.56C156.407 59.64 156.147 60.6067 155.627 61.46C155.107 62.3133 154.381 62.98 153.447 63.46C152.514 63.94 151.461 64.18 150.287 64.18ZM150.287 61.16C150.954 61.16 151.501 60.9333 151.927 60.48C152.354 60.0133 152.567 59.3733 152.567 58.56C152.567 57.76 152.354 57.1333 151.927 56.68C151.501 56.2267 150.954 56 150.287 56C149.621 56 149.074 56.2267 148.647 56.68C148.221 57.1333 148.007 57.76 148.007 58.56C148.007 59.3733 148.221 60.0133 148.647 60.48C149.074 60.9333 149.621 61.16 150.287 61.16ZM167.928 52.98C169.274 52.98 170.354 53.38 171.168 54.18C171.994 54.98 172.408 56.1867 172.408 57.8V64H168.608V58.42C168.608 56.94 168.014 56.2 166.828 56.2C166.174 56.2 165.648 56.4133 165.248 56.84C164.861 57.2667 164.668 57.9067 164.668 58.76V64H160.868V49.16H164.668V54.16C165.081 53.7733 165.568 53.48 166.128 53.28C166.688 53.08 167.288 52.98 167.928 52.98ZM184.553 52.98C185.9 52.98 186.98 53.38 187.793 54.18C188.62 54.98 189.033 56.1867 189.033 57.8V64H185.233V58.42C185.233 56.94 184.64 56.2 183.453 56.2C182.8 56.2 182.273 56.4133 181.873 56.84C181.487 57.2667 181.293 57.9067 181.293 58.76V64H177.493V53.16H181.113V54.34C181.54 53.9 182.047 53.5667 182.633 53.34C183.22 53.1 183.86 52.98 184.553 52.98Z" fill="#97F3FF" fill-opacity="0.9"/>
<path d="M235 41.75C233.022 41.75 231.089 42.3273 229.444 43.409C227.8 44.4906 226.518 46.028 225.761 47.8267C225.004 49.6254 224.806 51.6047 225.192 53.5142C225.578 55.4237 226.53 57.1777 227.929 58.5543C229.327 59.931 231.109 60.8685 233.049 61.2484C234.989 61.6282 237 61.4332 238.827 60.6882C240.654 59.9431 242.216 58.6814 243.315 57.0626C244.414 55.4438 245 53.5407 245 51.5938C245 48.983 243.946 46.4792 242.071 44.6332C240.196 42.7871 237.652 41.75 235 41.75ZM235 57.5C233.813 57.5 232.653 57.1536 231.667 56.5046C230.68 55.8556 229.911 54.9332 229.457 53.854C229.003 52.7747 228.884 51.5872 229.115 50.4415C229.347 49.2958 229.918 48.2434 230.757 47.4174C231.596 46.5914 232.666 46.0289 233.829 45.801C234.993 45.5731 236.2 45.6901 237.296 46.1371C238.392 46.5841 239.33 47.3411 239.989 48.3124C240.648 49.2837 241 50.4256 241 51.5938C240.998 53.1597 240.366 54.6611 239.241 55.7684C238.116 56.8757 236.591 57.4984 235 57.5Z" fill="#E3E3E3"/>
<path d="M235 29.9375C229.462 29.9375 224.049 31.554 219.444 34.5826C214.839 37.6112 211.251 41.9159 209.131 46.9523C207.012 51.9887 206.458 57.5306 207.538 62.8772C208.618 68.2238 211.285 73.1349 215.201 76.9896C219.117 80.8443 224.106 83.4694 229.537 84.5329C234.969 85.5964 240.599 85.0506 245.715 82.9644C250.831 80.8783 255.204 77.3455 258.281 72.8129C261.358 68.2803 263 62.9513 263 57.5C262.992 50.1925 260.039 43.1867 254.79 38.0196C249.54 32.8524 242.423 29.9458 235 29.9375ZM223 77.9297V75.2188C223.002 73.6528 223.634 72.1514 224.759 71.0441C225.884 69.9368 227.409 69.3141 229 69.3125H241C242.591 69.3141 244.116 69.9368 245.241 71.0441C246.366 72.1514 246.998 73.6528 247 75.2188V77.9297C243.358 80.0229 239.217 81.126 235 81.126C230.783 81.126 226.642 80.0229 223 77.9297ZM250.984 75.0731C250.944 72.4907 249.875 70.0271 248.008 68.2131C246.14 66.3991 243.624 65.3799 241 65.375H229C226.376 65.3799 223.86 66.3991 221.992 68.2131C220.125 70.0271 219.056 72.4907 219.016 75.0731C215.389 71.8852 212.831 67.688 211.682 63.0374C210.532 58.3868 210.844 53.5021 212.577 49.0302C214.31 44.5582 217.382 40.7098 221.387 37.9947C225.391 35.2796 230.139 33.8258 235.001 33.8258C239.863 33.8258 244.611 35.2796 248.615 37.9947C252.62 40.7098 255.692 44.5582 257.425 49.0302C259.158 53.5021 259.47 58.3868 258.32 63.0374C257.171 67.688 254.613 71.8852 250.986 75.0731H250.984Z" fill="#EDEDED"/>
<g filter="url(#filter0_bd)">
<rect width="360.943" height="186.103" rx="30" transform="matrix(0.999999 0.00125635 -0.00100786 0.999999 22.1873 164)" fill="url(#paint0_linear)" fill-opacity="0.23"/>
<rect x="0.499496" y="0.500628" width="359.943" height="185.103" rx="29.5" transform="matrix(0.999999 0.00125635 -0.00100786 0.999999 22.1878 163.999)" stroke="url(#paint1_linear)"/>
</g>
<g filter="url(#filter1_d)">
<path d="M102.174 218.932C102.174 236.562 89.4547 250.364 74.3368 250.364C59.2189 250.364 46.5 236.562 46.5 218.932C46.5 201.302 59.2189 187.5 74.3368 187.5C89.4547 187.5 102.174 201.302 102.174 218.932Z" stroke="#00E0FF" stroke-width="5"/>
</g>
<g filter="url(#filter2_d)">
<path d="M47.3011 213.46H61.6711V211.42H47.3011V213.46ZM47.3011 220.66H61.6711V218.62H47.3011V220.66ZM74.4418 227.5C77.4118 227.5 79.8418 226.42 81.2518 224.95V215.71H74.0518V218.02H78.7018V223.78C77.8318 224.59 76.3018 225.07 74.7418 225.07C70.0018 225.07 67.3918 221.59 67.3918 216.04C67.3918 210.55 70.2718 207.13 74.6818 207.13C76.9318 207.13 78.3418 208.06 79.4518 209.23L80.9518 207.43C79.6918 206.08 77.6818 204.7 74.6218 204.7C68.8018 204.7 64.5418 209.02 64.5418 216.13C64.5418 223.27 68.6818 227.5 74.4418 227.5ZM84.6254 213.46H98.9954V211.42H84.6254V213.46ZM84.6254 220.66H98.9954V218.62H84.6254V220.66Z" fill="#00E0FF" fill-opacity="0.9"/>
</g>
<path d="M243.839 200.75H244.904V204.755C244.414 205.185 243.834 205.515 243.164 205.745C242.494 205.975 241.789 206.09 241.049 206.09C239.999 206.09 239.054 205.86 238.214 205.4C237.374 204.94 236.714 204.305 236.234 203.495C235.754 202.675 235.514 201.76 235.514 200.75C235.514 199.74 235.754 198.83 236.234 198.02C236.714 197.2 237.374 196.56 238.214 196.1C239.054 195.64 240.004 195.41 241.064 195.41C241.864 195.41 242.599 195.54 243.269 195.8C243.939 196.05 244.504 196.425 244.964 196.925L244.274 197.63C243.444 196.81 242.389 196.4 241.109 196.4C240.259 196.4 239.489 196.59 238.799 196.97C238.119 197.34 237.584 197.86 237.194 198.53C236.804 199.19 236.609 199.93 236.609 200.75C236.609 201.57 236.804 202.31 237.194 202.97C237.584 203.63 238.119 204.15 238.799 204.53C239.479 204.91 240.244 205.1 241.094 205.1C242.174 205.1 243.089 204.83 243.839 204.29V200.75ZM254.63 206.09C253.59 206.09 252.65 205.86 251.81 205.4C250.98 204.94 250.325 204.305 249.845 203.495C249.375 202.675 249.14 201.76 249.14 200.75C249.14 199.74 249.375 198.83 249.845 198.02C250.325 197.2 250.985 196.56 251.825 196.1C252.665 195.64 253.605 195.41 254.645 195.41C255.425 195.41 256.145 195.54 256.805 195.8C257.465 196.06 258.025 196.44 258.485 196.94L257.78 197.645C256.96 196.815 255.925 196.4 254.675 196.4C253.845 196.4 253.09 196.59 252.41 196.97C251.73 197.35 251.195 197.87 250.805 198.53C250.425 199.19 250.235 199.93 250.235 200.75C250.235 201.57 250.425 202.31 250.805 202.97C251.195 203.63 251.73 204.15 252.41 204.53C253.09 204.91 253.845 205.1 254.675 205.1C255.935 205.1 256.97 204.68 257.78 203.84L258.485 204.545C258.025 205.045 257.46 205.43 256.79 205.7C256.13 205.96 255.41 206.09 254.63 206.09ZM279.732 195.5V206H278.667V197.6L274.542 204.665H274.017L269.892 197.645V206H268.827V195.5H269.742L274.302 203.285L278.817 195.5H279.732ZM292.604 205.04V206H285.179V195.5H292.379V196.46H286.289V200.195H291.719V201.14H286.289V205.04H292.604ZM308.143 195.5V206H307.078V197.6L302.953 204.665H302.428L298.303 197.645V206H297.238V195.5H298.153L302.713 203.285L307.228 195.5H308.143ZM320.204 200.585C320.894 200.735 321.424 201.035 321.794 201.485C322.174 201.925 322.364 202.495 322.364 203.195C322.364 204.095 322.029 204.79 321.359 205.28C320.699 205.76 319.719 206 318.419 206H313.589V195.5H318.119C319.289 195.5 320.194 195.735 320.834 196.205C321.484 196.675 321.809 197.34 321.809 198.2C321.809 198.78 321.664 199.275 321.374 199.685C321.094 200.085 320.704 200.385 320.204 200.585ZM314.699 196.415V200.225H318.044C318.894 200.225 319.549 200.065 320.009 199.745C320.469 199.415 320.699 198.94 320.699 198.32C320.699 197.7 320.469 197.23 320.009 196.91C319.549 196.58 318.894 196.415 318.044 196.415H314.699ZM318.404 205.085C319.344 205.085 320.054 204.925 320.534 204.605C321.014 204.285 321.254 203.785 321.254 203.105C321.254 201.795 320.304 201.14 318.404 201.14H314.699V205.085H318.404ZM334.348 205.04V206H326.923V195.5H334.123V196.46H328.033V200.195H333.463V201.14H328.033V205.04H334.348ZM346.152 206L343.752 202.625C343.482 202.655 343.202 202.67 342.912 202.67H340.092V206H338.982V195.5H342.912C344.252 195.5 345.302 195.82 346.062 196.46C346.822 197.1 347.202 197.98 347.202 199.1C347.202 199.92 346.992 200.615 346.572 201.185C346.162 201.745 345.572 202.15 344.802 202.4L347.367 206H346.152ZM342.882 201.725C343.922 201.725 344.717 201.495 345.267 201.035C345.817 200.575 346.092 199.93 346.092 199.1C346.092 198.25 345.817 197.6 345.267 197.15C344.717 196.69 343.922 196.46 342.882 196.46H340.092V201.725H342.882Z" fill="white"/>
<g style="mix-blend-mode:overlay">
<path d="M56.95 298.04V299H49.585V298.235L53.95 293.96C54.5 293.42 54.87 292.955 55.06 292.565C55.26 292.165 55.36 291.765 55.36 291.365C55.36 290.745 55.145 290.265 54.715 289.925C54.295 289.575 53.69 289.4 52.9 289.4C51.67 289.4 50.715 289.79 50.035 290.57L49.27 289.91C49.68 289.43 50.2 289.06 50.83 288.8C51.47 288.54 52.19 288.41 52.99 288.41C54.06 288.41 54.905 288.665 55.525 289.175C56.155 289.675 56.47 290.365 56.47 291.245C56.47 291.785 56.35 292.305 56.11 292.805C55.87 293.305 55.415 293.88 54.745 294.53L51.175 298.04H56.95ZM64.2154 292.805C65.7354 292.805 66.8404 293.08 67.5304 293.63C68.2304 294.17 68.5804 294.93 68.5804 295.91C68.5804 296.52 68.4354 297.065 68.1454 297.545C67.8654 298.025 67.4404 298.405 66.8704 298.685C66.3004 298.955 65.6004 299.09 64.7704 299.09C64.0204 299.09 63.3054 298.97 62.6254 298.73C61.9554 298.48 61.4154 298.15 61.0054 297.74L61.5304 296.885C61.8804 297.245 62.3404 297.54 62.9104 297.77C63.4804 297.99 64.0954 298.1 64.7554 298.1C65.6254 298.1 66.2954 297.905 66.7654 297.515C67.2454 297.125 67.4854 296.605 67.4854 295.955C67.4854 295.235 67.2154 294.69 66.6754 294.32C66.1454 293.95 65.2454 293.765 63.9754 293.765H61.7404L62.2804 288.5H68.0254V289.46H63.2254L62.8654 292.805H64.2154ZM76.0115 288.5V299H74.9315V289.46H72.4565V288.5H76.0115ZM85.8564 299.09C85.0464 299.09 84.3214 298.875 83.6814 298.445C83.0514 298.015 82.5564 297.4 82.1964 296.6C81.8464 295.79 81.6714 294.84 81.6714 293.75C81.6714 292.66 81.8464 291.715 82.1964 290.915C82.5564 290.105 83.0514 289.485 83.6814 289.055C84.3214 288.625 85.0464 288.41 85.8564 288.41C86.6664 288.41 87.3864 288.625 88.0164 289.055C88.6564 289.485 89.1564 290.105 89.5164 290.915C89.8764 291.715 90.0564 292.66 90.0564 293.75C90.0564 294.84 89.8764 295.79 89.5164 296.6C89.1564 297.4 88.6564 298.015 88.0164 298.445C87.3864 298.875 86.6664 299.09 85.8564 299.09ZM85.8564 298.1C86.4664 298.1 87.0014 297.93 87.4614 297.59C87.9314 297.25 88.2964 296.755 88.5564 296.105C88.8164 295.455 88.9464 294.67 88.9464 293.75C88.9464 292.83 88.8164 292.045 88.5564 291.395C88.2964 290.745 87.9314 290.25 87.4614 289.91C87.0014 289.57 86.4664 289.4 85.8564 289.4C85.2464 289.4 84.7064 289.57 84.2364 289.91C83.7764 290.25 83.4164 290.745 83.1564 291.395C82.8964 292.045 82.7664 292.83 82.7664 293.75C82.7664 294.67 82.8964 295.455 83.1564 296.105C83.4164 296.755 83.7764 297.25 84.2364 297.59C84.7064 297.93 85.2464 298.1 85.8564 298.1ZM106.014 299.09C105.204 299.09 104.479 298.875 103.839 298.445C103.209 298.015 102.714 297.4 102.354 296.6C102.004 295.79 101.829 294.84 101.829 293.75C101.829 292.66 102.004 291.715 102.354 290.915C102.714 290.105 103.209 289.485 103.839 289.055C104.479 288.625 105.204 288.41 106.014 288.41C106.824 288.41 107.544 288.625 108.174 289.055C108.814 289.485 109.314 290.105 109.674 290.915C110.034 291.715 110.214 292.66 110.214 293.75C110.214 294.84 110.034 295.79 109.674 296.6C109.314 297.4 108.814 298.015 108.174 298.445C107.544 298.875 106.824 299.09 106.014 299.09ZM106.014 298.1C106.624 298.1 107.159 297.93 107.619 297.59C108.089 297.25 108.454 296.755 108.714 296.105C108.974 295.455 109.104 294.67 109.104 293.75C109.104 292.83 108.974 292.045 108.714 291.395C108.454 290.745 108.089 290.25 107.619 289.91C107.159 289.57 106.624 289.4 106.014 289.4C105.404 289.4 104.864 289.57 104.394 289.91C103.934 290.25 103.574 290.745 103.314 291.395C103.054 292.045 102.924 292.83 102.924 293.75C102.924 294.67 103.054 295.455 103.314 296.105C103.574 296.755 103.934 297.25 104.394 297.59C104.864 297.93 105.404 298.1 106.014 298.1ZM123.835 296.24H121.735V299H120.655V296.24H114.73V295.46L120.295 288.5H121.495L116.125 295.28H120.685V292.85H121.735V295.28H123.835V296.24ZM135.089 298.04V299H127.724V298.235L132.089 293.96C132.639 293.42 133.009 292.955 133.199 292.565C133.399 292.165 133.499 291.765 133.499 291.365C133.499 290.745 133.284 290.265 132.854 289.925C132.434 289.575 131.829 289.4 131.039 289.4C129.809 289.4 128.854 289.79 128.174 290.57L127.409 289.91C127.819 289.43 128.339 289.06 128.969 288.8C129.609 288.54 130.329 288.41 131.129 288.41C132.199 288.41 133.044 288.665 133.664 289.175C134.294 289.675 134.609 290.365 134.609 291.245C134.609 291.785 134.489 292.305 134.249 292.805C134.009 293.305 133.554 293.88 132.884 294.53L129.314 298.04H135.089ZM143.721 299.09C142.911 299.09 142.186 298.875 141.546 298.445C140.916 298.015 140.421 297.4 140.061 296.6C139.711 295.79 139.536 294.84 139.536 293.75C139.536 292.66 139.711 291.715 140.061 290.915C140.421 290.105 140.916 289.485 141.546 289.055C142.186 288.625 142.911 288.41 143.721 288.41C144.531 288.41 145.251 288.625 145.881 289.055C146.521 289.485 147.021 290.105 147.381 290.915C147.741 291.715 147.921 292.66 147.921 293.75C147.921 294.84 147.741 295.79 147.381 296.6C147.021 297.4 146.521 298.015 145.881 298.445C145.251 298.875 144.531 299.09 143.721 299.09ZM143.721 298.1C144.331 298.1 144.866 297.93 145.326 297.59C145.796 297.25 146.161 296.755 146.421 296.105C146.681 295.455 146.811 294.67 146.811 293.75C146.811 292.83 146.681 292.045 146.421 291.395C146.161 290.745 145.796 290.25 145.326 289.91C144.866 289.57 144.331 289.4 143.721 289.4C143.111 289.4 142.571 289.57 142.101 289.91C141.641 290.25 141.281 290.745 141.021 291.395C140.761 292.045 140.631 292.83 140.631 293.75C140.631 294.67 140.761 295.455 141.021 296.105C141.281 296.755 141.641 297.25 142.101 297.59C142.571 297.93 143.111 298.1 143.721 298.1ZM164.043 292.715C164.733 292.715 165.343 292.845 165.873 293.105C166.413 293.365 166.833 293.735 167.133 294.215C167.433 294.685 167.583 295.235 167.583 295.865C167.583 296.505 167.428 297.07 167.118 297.56C166.808 298.05 166.378 298.43 165.828 298.7C165.288 298.96 164.678 299.09 163.998 299.09C162.608 299.09 161.543 298.635 160.803 297.725C160.063 296.805 159.693 295.51 159.693 293.84C159.693 292.67 159.893 291.68 160.293 290.87C160.693 290.06 161.253 289.45 161.973 289.04C162.693 288.62 163.533 288.41 164.493 288.41C165.533 288.41 166.363 288.6 166.983 288.98L166.548 289.85C166.048 289.52 165.368 289.355 164.508 289.355C163.348 289.355 162.438 289.725 161.778 290.465C161.118 291.195 160.788 292.26 160.788 293.66C160.788 293.91 160.803 294.195 160.833 294.515C161.093 293.945 161.508 293.505 162.078 293.195C162.648 292.875 163.303 292.715 164.043 292.715ZM163.953 298.175C164.713 298.175 165.328 297.97 165.798 297.56C166.278 297.14 166.518 296.585 166.518 295.895C166.518 295.205 166.278 294.655 165.798 294.245C165.328 293.835 164.688 293.63 163.878 293.63C163.348 293.63 162.878 293.73 162.468 293.93C162.068 294.13 161.753 294.405 161.523 294.755C161.293 295.105 161.178 295.495 161.178 295.925C161.178 296.325 161.283 296.695 161.493 297.035C161.713 297.375 162.033 297.65 162.453 297.86C162.873 298.07 163.373 298.175 163.953 298.175ZM175.254 288.41C176.644 288.41 177.709 288.87 178.449 289.79C179.189 290.7 179.559 291.99 179.559 293.66C179.559 294.83 179.359 295.82 178.959 296.63C178.559 297.44 177.999 298.055 177.279 298.475C176.559 298.885 175.719 299.09 174.759 299.09C173.719 299.09 172.889 298.9 172.269 298.52L172.704 297.65C173.204 297.98 173.884 298.145 174.744 298.145C175.904 298.145 176.814 297.78 177.474 297.05C178.134 296.31 178.464 295.24 178.464 293.84C178.464 293.58 178.449 293.295 178.419 292.985C178.159 293.555 177.744 294 177.174 294.32C176.604 294.63 175.949 294.785 175.209 294.785C174.519 294.785 173.904 294.655 173.364 294.395C172.834 294.135 172.419 293.77 172.119 293.3C171.819 292.82 171.669 292.265 171.669 291.635C171.669 290.995 171.824 290.43 172.134 289.94C172.444 289.45 172.869 289.075 173.409 288.815C173.959 288.545 174.574 288.41 175.254 288.41ZM175.374 293.87C175.904 293.87 176.369 293.77 176.769 293.57C177.179 293.37 177.499 293.095 177.729 292.745C177.959 292.395 178.074 292.005 178.074 291.575C178.074 291.175 177.964 290.805 177.744 290.465C177.534 290.125 177.219 289.85 176.799 289.64C176.379 289.43 175.879 289.325 175.299 289.325C174.539 289.325 173.919 289.535 173.439 289.955C172.969 290.365 172.734 290.915 172.734 291.605C172.734 292.295 172.969 292.845 173.439 293.255C173.919 293.665 174.564 293.87 175.374 293.87ZM188.624 292.715C189.314 292.715 189.924 292.845 190.454 293.105C190.994 293.365 191.414 293.735 191.714 294.215C192.014 294.685 192.164 295.235 192.164 295.865C192.164 296.505 192.009 297.07 191.699 297.56C191.389 298.05 190.959 298.43 190.409 298.7C189.869 298.96 189.259 299.09 188.579 299.09C187.189 299.09 186.124 298.635 185.384 297.725C184.644 296.805 184.274 295.51 184.274 293.84C184.274 292.67 184.474 291.68 184.874 290.87C185.274 290.06 185.834 289.45 186.554 289.04C187.274 288.62 188.114 288.41 189.074 288.41C190.114 288.41 190.944 288.6 191.564 288.98L191.129 289.85C190.629 289.52 189.949 289.355 189.089 289.355C187.929 289.355 187.019 289.725 186.359 290.465C185.699 291.195 185.369 292.26 185.369 293.66C185.369 293.91 185.384 294.195 185.414 294.515C185.674 293.945 186.089 293.505 186.659 293.195C187.229 292.875 187.884 292.715 188.624 292.715ZM188.534 298.175C189.294 298.175 189.909 297.97 190.379 297.56C190.859 297.14 191.099 296.585 191.099 295.895C191.099 295.205 190.859 294.655 190.379 294.245C189.909 293.835 189.269 293.63 188.459 293.63C187.929 293.63 187.459 293.73 187.049 293.93C186.649 294.13 186.334 294.405 186.104 294.755C185.874 295.105 185.759 295.495 185.759 295.925C185.759 296.325 185.864 296.695 186.074 297.035C186.294 297.375 186.614 297.65 187.034 297.86C187.454 298.07 187.954 298.175 188.534 298.175ZM199.835 288.41C201.225 288.41 202.29 288.87 203.03 289.79C203.77 290.7 204.14 291.99 204.14 293.66C204.14 294.83 203.94 295.82 203.54 296.63C203.14 297.44 202.58 298.055 201.86 298.475C201.14 298.885 200.3 299.09 199.34 299.09C198.3 299.09 197.47 298.9 196.85 298.52L197.285 297.65C197.785 297.98 198.465 298.145 199.325 298.145C200.485 298.145 201.395 297.78 202.055 297.05C202.715 296.31 203.045 295.24 203.045 293.84C203.045 293.58 203.03 293.295 203 292.985C202.74 293.555 202.325 294 201.755 294.32C201.185 294.63 200.53 294.785 199.79 294.785C199.1 294.785 198.485 294.655 197.945 294.395C197.415 294.135 197 293.77 196.7 293.3C196.4 292.82 196.25 292.265 196.25 291.635C196.25 290.995 196.405 290.43 196.715 289.94C197.025 289.45 197.45 289.075 197.99 288.815C198.54 288.545 199.155 288.41 199.835 288.41ZM199.955 293.87C200.485 293.87 200.95 293.77 201.35 293.57C201.76 293.37 202.08 293.095 202.31 292.745C202.54 292.395 202.655 292.005 202.655 291.575C202.655 291.175 202.545 290.805 202.325 290.465C202.115 290.125 201.8 289.85 201.38 289.64C200.96 289.43 200.46 289.325 199.88 289.325C199.12 289.325 198.5 289.535 198.02 289.955C197.55 290.365 197.315 290.915 197.315 291.605C197.315 292.295 197.55 292.845 198.02 293.255C198.5 293.665 199.145 293.87 199.955 293.87Z" fill="white"/>
</g>
<g style="mix-blend-mode:overlay">
<path d="M53.78 331.12C52.98 331.12 52.24 330.947 51.56 330.6C50.88 330.253 50.3267 329.76 49.9 329.12L50.78 328.12C51.5533 329.267 52.56 329.84 53.8 329.84C55.5333 329.84 56.4 328.813 56.4 326.76V318.28H51.28V317H57.86V326.7C57.86 328.167 57.5133 329.273 56.82 330.02C56.14 330.753 55.1267 331.12 53.78 331.12ZM72.6195 331.12C71.2329 331.12 69.9729 330.813 68.8395 330.2C67.7195 329.573 66.8395 328.72 66.1995 327.64C65.5729 326.56 65.2595 325.347 65.2595 324C65.2595 322.653 65.5729 321.44 66.1995 320.36C66.8395 319.28 67.7195 318.433 68.8395 317.82C69.9729 317.193 71.2329 316.88 72.6195 316.88C74.0062 316.88 75.2529 317.187 76.3595 317.8C77.4795 318.413 78.3595 319.267 78.9995 320.36C79.6395 321.44 79.9595 322.653 79.9595 324C79.9595 325.347 79.6395 326.567 78.9995 327.66C78.3595 328.74 77.4795 329.587 76.3595 330.2C75.2529 330.813 74.0062 331.12 72.6195 331.12ZM72.6195 329.8C73.7262 329.8 74.7262 329.553 75.6195 329.06C76.5129 328.553 77.2129 327.86 77.7195 326.98C78.2262 326.087 78.4795 325.093 78.4795 324C78.4795 322.907 78.2262 321.92 77.7195 321.04C77.2129 320.147 76.5129 319.453 75.6195 318.96C74.7262 318.453 73.7262 318.2 72.6195 318.2C71.5129 318.2 70.5062 318.453 69.5995 318.96C68.7062 319.453 67.9995 320.147 67.4795 321.04C66.9729 321.92 66.7195 322.907 66.7195 324C66.7195 325.093 66.9729 326.087 67.4795 326.98C67.9995 327.86 68.7062 328.553 69.5995 329.06C70.5062 329.553 71.5129 329.8 72.6195 329.8ZM99.1769 317V331H97.7169V324.54H88.9569V331H87.4769V317H88.9569V323.24H97.7169V317H99.1769ZM119.646 317V331H118.426L109.426 319.64V331H107.946V317H109.166L118.186 328.36V317H119.646ZM137.85 317H143.55C145.03 317 146.337 317.3 147.47 317.9C148.604 318.487 149.484 319.313 150.11 320.38C150.737 321.433 151.05 322.64 151.05 324C151.05 325.36 150.737 326.573 150.11 327.64C149.484 328.693 148.604 329.52 147.47 330.12C146.337 330.707 145.03 331 143.55 331H137.85V317ZM143.47 329.72C144.697 329.72 145.77 329.48 146.69 329C147.61 328.507 148.324 327.833 148.83 326.98C149.337 326.113 149.59 325.12 149.59 324C149.59 322.88 149.337 321.893 148.83 321.04C148.324 320.173 147.61 319.5 146.69 319.02C145.77 318.527 144.697 318.28 143.47 318.28H139.33V329.72H143.47ZM164.694 331.12C163.307 331.12 162.047 330.813 160.914 330.2C159.794 329.573 158.914 328.72 158.274 327.64C157.647 326.56 157.334 325.347 157.334 324C157.334 322.653 157.647 321.44 158.274 320.36C158.914 319.28 159.794 318.433 160.914 317.82C162.047 317.193 163.307 316.88 164.694 316.88C166.08 316.88 167.327 317.187 168.434 317.8C169.554 318.413 170.434 319.267 171.074 320.36C171.714 321.44 172.034 322.653 172.034 324C172.034 325.347 171.714 326.567 171.074 327.66C170.434 328.74 169.554 329.587 168.434 330.2C167.327 330.813 166.08 331.12 164.694 331.12ZM164.694 329.8C165.8 329.8 166.8 329.553 167.694 329.06C168.587 328.553 169.287 327.86 169.794 326.98C170.3 326.087 170.554 325.093 170.554 324C170.554 322.907 170.3 321.92 169.794 321.04C169.287 320.147 168.587 319.453 167.694 318.96C166.8 318.453 165.8 318.2 164.694 318.2C163.587 318.2 162.58 318.453 161.674 318.96C160.78 319.453 160.074 320.147 159.554 321.04C159.047 321.92 158.794 322.907 158.794 324C158.794 325.093 159.047 326.087 159.554 326.98C160.074 327.86 160.78 328.553 161.674 329.06C162.58 329.553 163.587 329.8 164.694 329.8ZM189.451 329.72V331H179.551V317H189.151V318.28H181.031V323.26H188.271V324.52H181.031V329.72H189.451Z" fill="white"/>
</g>
<g clip-path="url(#clip0)">
<path opacity="0.5" d="M341.244 321.695C339.958 321.226 338.598 320.991 337.228 321C332.8 321 329.673 323.232 329.651 326.437C329.623 328.791 331.873 330.117 333.575 330.904C335.322 331.712 335.906 332.222 335.9 332.945C335.889 334.044 334.505 334.543 333.218 334.543C331.45 334.543 330.484 334.296 328.998 333.679L328.447 333.421L327.818 337.11C328.895 337.558 330.835 337.943 332.839 337.977C337.547 337.977 340.624 335.758 340.66 332.349C340.699 330.469 339.481 329.048 336.919 327.874C335.36 327.112 334.394 326.603 334.394 325.83C334.394 325.146 335.222 324.415 336.952 324.415C338.103 324.387 339.247 324.603 340.309 325.049L340.724 325.235L341.352 321.67L341.244 321.695ZM352.736 321.299H349.276C348.199 321.299 347.389 321.596 346.918 322.665L340.265 337.747H344.972L345.913 335.274L351.659 335.279C351.795 335.858 352.21 337.747 352.21 337.747H356.361L352.736 321.299ZM323.282 321.161H327.769L324.962 337.617H320.481L323.282 321.155V321.161ZM311.893 330.231L312.358 332.515L316.742 321.299H321.494L314.434 337.725H309.693L305.818 323.817C305.756 323.587 305.608 323.39 305.406 323.266C304.01 322.544 302.53 321.996 301 321.634L301.061 321.288H308.282C309.261 321.327 310.05 321.634 310.313 322.681L311.891 330.239V330.231H311.893ZM347.2 331.909L348.988 327.306C348.966 327.356 349.356 326.356 349.583 325.739L349.89 327.159L350.928 331.906H347.198V331.909H347.2Z" fill="black"/>
</g>
<path d="M328.799 257.659V242.267C328.799 240.728 329.927 239.469 331.305 239.469H350.104C351.483 239.469 352.611 240.728 352.611 242.267V257.659C352.611 259.199 351.483 260.458 350.104 260.458H331.305C329.927 260.458 328.799 259.199 328.799 257.659Z" fill="#FF9800"/>
<path d="M352.611 247.864V246.465H345.091C344.402 246.465 343.838 245.836 343.838 245.066C343.838 244.296 344.402 243.667 345.091 243.667H345.718V242.267H345.091C343.713 242.267 342.585 243.527 342.585 245.066C342.585 246.605 343.713 247.864 345.091 247.864H346.971V252.062H345.091C343.337 252.062 341.958 253.601 341.958 255.56C341.958 257.519 343.337 259.059 345.091 259.059H346.345V257.659H345.091C344.026 257.659 343.212 256.75 343.212 255.56C343.212 254.371 344.026 253.462 345.091 253.462H352.611V252.062H348.225V247.864H352.611Z" fill="#FFD54F"/>
<path d="M336.318 252.062H334.439V247.864H336.318C337.697 247.864 338.825 246.605 338.825 245.066C338.825 243.527 337.697 242.267 336.318 242.267H334.439V243.667H336.318C337.008 243.667 337.572 244.296 337.572 245.066C337.572 245.836 337.008 246.465 336.318 246.465H328.799V247.864H333.185V252.062H328.799V253.462H336.318C337.384 253.462 338.198 254.371 338.198 255.56C338.198 256.75 337.384 257.659 336.318 257.659H335.065V259.059H336.318C338.073 259.059 339.452 257.519 339.452 255.56C339.452 253.601 338.073 252.062 336.318 252.062Z" fill="#FFD54F"/>
<rect x="26" y="412" width="278" height="62" rx="30" fill="#00B9D2" fill-opacity="0.9"/>
<path d="M224.682 434.9V451H220.128V438.419H217.138V434.9H224.682ZM238.442 440.742C239.454 440.742 240.382 440.957 241.225 441.386C242.069 441.8 242.736 442.398 243.226 443.18C243.732 443.947 243.985 444.828 243.985 445.825C243.985 446.914 243.702 447.88 243.134 448.723C242.582 449.551 241.823 450.195 240.857 450.655C239.907 451.1 238.841 451.322 237.66 451.322C235.36 451.322 233.543 450.64 232.209 449.275C230.875 447.91 230.208 445.948 230.208 443.387C230.208 441.547 230.561 439.968 231.266 438.649C231.987 437.315 232.991 436.303 234.279 435.613C235.567 434.923 237.062 434.578 238.764 434.578C239.684 434.578 240.558 434.678 241.386 434.877C242.214 435.076 242.92 435.368 243.502 435.751L241.846 439.017C241.064 438.465 240.075 438.189 238.879 438.189C237.714 438.189 236.771 438.511 236.05 439.155C235.33 439.799 234.916 440.727 234.808 441.938C235.728 441.141 236.94 440.742 238.442 440.742ZM237.384 448.079C238.028 448.079 238.55 447.895 238.948 447.527C239.362 447.159 239.569 446.661 239.569 446.032C239.569 445.419 239.362 444.928 238.948 444.56C238.55 444.192 238.021 444.008 237.361 444.008C236.702 444.008 236.165 444.2 235.751 444.583C235.337 444.951 235.13 445.442 235.13 446.055C235.13 446.653 235.33 447.144 235.728 447.527C236.142 447.895 236.694 448.079 237.384 448.079ZM250.935 451.207C250.199 451.207 249.578 450.962 249.072 450.471C248.566 449.98 248.313 449.359 248.313 448.608C248.313 447.841 248.559 447.22 249.049 446.745C249.555 446.27 250.184 446.032 250.935 446.032C251.702 446.032 252.331 446.27 252.821 446.745C253.312 447.22 253.557 447.841 253.557 448.608C253.557 449.359 253.304 449.98 252.798 450.471C252.308 450.962 251.687 451.207 250.935 451.207ZM270.761 447.389V451H258.226V448.148L264.252 442.513C264.834 441.961 265.225 441.493 265.425 441.11C265.624 440.711 265.724 440.313 265.724 439.914C265.724 439.393 265.547 438.986 265.195 438.695C264.842 438.404 264.328 438.258 263.654 438.258C263.056 438.258 262.504 438.396 261.998 438.672C261.507 438.933 261.101 439.316 260.779 439.822L257.398 437.936C258.026 436.893 258.908 436.073 260.043 435.475C261.177 434.877 262.519 434.578 264.068 434.578C265.294 434.578 266.375 434.777 267.311 435.176C268.261 435.575 268.997 436.15 269.519 436.901C270.055 437.637 270.324 438.496 270.324 439.477C270.324 440.351 270.132 441.179 269.749 441.961C269.381 442.728 268.66 443.602 267.587 444.583L264.551 447.389H270.761Z" fill="white"/>
<path d="M55.8 442.72C56.5733 442.973 57.1867 443.4 57.64 444C58.0933 444.587 58.32 445.32 58.32 446.2C58.32 447.413 57.8533 448.353 56.92 449.02C55.9867 449.673 54.6267 450 52.84 450H45.88V436H52.44C54.0933 436 55.3667 436.327 56.26 436.98C57.1533 437.62 57.6 438.507 57.6 439.64C57.6 440.333 57.44 440.947 57.12 441.48C56.8 442.013 56.36 442.427 55.8 442.72ZM48.48 438.04V441.9H52.16C53.0667 441.9 53.76 441.74 54.24 441.42C54.7333 441.087 54.98 440.607 54.98 439.98C54.98 439.34 54.7333 438.86 54.24 438.54C53.76 438.207 53.0667 438.04 52.16 438.04H48.48ZM52.68 447.96C54.6933 447.96 55.7 447.287 55.7 445.94C55.7 444.593 54.6933 443.92 52.68 443.92H48.48V447.96H52.68ZM67.6348 439.2C69.2082 439.2 70.4082 439.58 71.2348 440.34C72.0748 441.087 72.4948 442.22 72.4948 443.74V450H70.1348V448.7C69.8282 449.167 69.3882 449.527 68.8148 449.78C68.2548 450.02 67.5748 450.14 66.7748 450.14C65.9748 450.14 65.2748 450.007 64.6748 449.74C64.0748 449.46 63.6082 449.08 63.2748 448.6C62.9548 448.107 62.7948 447.553 62.7948 446.94C62.7948 445.98 63.1482 445.213 63.8548 444.64C64.5748 444.053 65.7015 443.76 67.2348 443.76H69.9948V443.6C69.9948 442.853 69.7682 442.28 69.3148 441.88C68.8748 441.48 68.2148 441.28 67.3348 441.28C66.7348 441.28 66.1415 441.373 65.5548 441.56C64.9815 441.747 64.4948 442.007 64.0948 442.34L63.1148 440.52C63.6748 440.093 64.3482 439.767 65.1348 439.54C65.9215 439.313 66.7548 439.2 67.6348 439.2ZM67.2948 448.32C67.9215 448.32 68.4748 448.18 68.9548 447.9C69.4482 447.607 69.7948 447.193 69.9948 446.66V445.42H67.4148C65.9748 445.42 65.2548 445.893 65.2548 446.84C65.2548 447.293 65.4348 447.653 65.7948 447.92C66.1548 448.187 66.6548 448.32 67.2948 448.32ZM78.4033 435.16H80.9033V450H78.4033V435.16ZM90.9645 439.2C92.5379 439.2 93.7379 439.58 94.5645 440.34C95.4045 441.087 95.8245 442.22 95.8245 443.74V450H93.4645V448.7C93.1579 449.167 92.7179 449.527 92.1445 449.78C91.5845 450.02 90.9045 450.14 90.1045 450.14C89.3045 450.14 88.6045 450.007 88.0045 449.74C87.4045 449.46 86.9379 449.08 86.6045 448.6C86.2845 448.107 86.1245 447.553 86.1245 446.94C86.1245 445.98 86.4779 445.213 87.1845 444.64C87.9045 444.053 89.0312 443.76 90.5645 443.76H93.3245V443.6C93.3245 442.853 93.0979 442.28 92.6445 441.88C92.2045 441.48 91.5445 441.28 90.6645 441.28C90.0645 441.28 89.4712 441.373 88.8845 441.56C88.3112 441.747 87.8245 442.007 87.4245 442.34L86.4445 440.52C87.0045 440.093 87.6779 439.767 88.4645 439.54C89.2512 439.313 90.0845 439.2 90.9645 439.2ZM90.6245 448.32C91.2512 448.32 91.8045 448.18 92.2845 447.9C92.7779 447.607 93.1245 447.193 93.3245 446.66V445.42H90.7445C89.3045 445.42 88.5845 445.893 88.5845 446.84C88.5845 447.293 88.7645 447.653 89.1245 447.92C89.4845 448.187 89.9845 448.32 90.6245 448.32ZM107.793 439.2C109.14 439.2 110.22 439.593 111.033 440.38C111.846 441.167 112.253 442.333 112.253 443.88V450H109.753V444.2C109.753 443.267 109.533 442.567 109.093 442.1C108.653 441.62 108.026 441.38 107.213 441.38C106.293 441.38 105.566 441.66 105.033 442.22C104.5 442.767 104.233 443.56 104.233 444.6V450H101.733V439.32H104.113V440.7C104.526 440.207 105.046 439.833 105.673 439.58C106.3 439.327 107.006 439.2 107.793 439.2ZM123.122 450.14C122.015 450.14 121.022 449.907 120.142 449.44C119.262 448.973 118.575 448.327 118.082 447.5C117.589 446.66 117.342 445.713 117.342 444.66C117.342 443.607 117.589 442.667 118.082 441.84C118.575 441.013 119.255 440.367 120.122 439.9C121.002 439.433 122.002 439.2 123.122 439.2C124.175 439.2 125.095 439.413 125.882 439.84C126.682 440.267 127.282 440.88 127.682 441.68L125.762 442.8C125.455 442.307 125.069 441.94 124.602 441.7C124.149 441.447 123.649 441.32 123.102 441.32C122.169 441.32 121.395 441.627 120.782 442.24C120.169 442.84 119.862 443.647 119.862 444.66C119.862 445.673 120.162 446.487 120.762 447.1C121.375 447.7 122.155 448 123.102 448C123.649 448 124.149 447.88 124.602 447.64C125.069 447.387 125.455 447.013 125.762 446.52L127.682 447.64C127.269 448.44 126.662 449.06 125.862 449.5C125.075 449.927 124.162 450.14 123.122 450.14ZM142.427 444.72C142.427 444.893 142.414 445.14 142.387 445.46H134.007C134.154 446.247 134.534 446.873 135.147 447.34C135.774 447.793 136.547 448.02 137.467 448.02C138.64 448.02 139.607 447.633 140.367 446.86L141.707 448.4C141.227 448.973 140.62 449.407 139.887 449.7C139.154 449.993 138.327 450.14 137.407 450.14C136.234 450.14 135.2 449.907 134.307 449.44C133.414 448.973 132.72 448.327 132.227 447.5C131.747 446.66 131.507 445.713 131.507 444.66C131.507 443.62 131.74 442.687 132.207 441.86C132.687 441.02 133.347 440.367 134.187 439.9C135.027 439.433 135.974 439.2 137.027 439.2C138.067 439.2 138.994 439.433 139.807 439.9C140.634 440.353 141.274 441 141.727 441.84C142.194 442.667 142.427 443.627 142.427 444.72ZM137.027 441.2C136.227 441.2 135.547 441.44 134.987 441.92C134.44 442.387 134.107 443.013 133.987 443.8H140.047C139.94 443.027 139.614 442.4 139.067 441.92C138.52 441.44 137.84 441.2 137.027 441.2ZM165.556 442.84H168.016V448.42C167.296 448.993 166.456 449.433 165.496 449.74C164.536 450.047 163.549 450.2 162.536 450.2C161.109 450.2 159.822 449.893 158.676 449.28C157.529 448.653 156.629 447.793 155.976 446.7C155.322 445.607 154.996 444.373 154.996 443C154.996 441.627 155.322 440.393 155.976 439.3C156.629 438.207 157.529 437.353 158.676 436.74C159.836 436.113 161.136 435.8 162.576 435.8C163.749 435.8 164.816 435.993 165.776 436.38C166.736 436.767 167.542 437.333 168.196 438.08L166.556 439.68C165.489 438.613 164.202 438.08 162.696 438.08C161.709 438.08 160.829 438.287 160.056 438.7C159.296 439.113 158.696 439.693 158.256 440.44C157.829 441.187 157.616 442.04 157.616 443C157.616 443.933 157.829 444.773 158.256 445.52C158.696 446.267 159.296 446.853 160.056 447.28C160.829 447.707 161.702 447.92 162.676 447.92C163.769 447.92 164.729 447.68 165.556 447.2V442.84ZM180.625 450.2C179.212 450.2 177.932 449.893 176.785 449.28C175.652 448.653 174.758 447.793 174.105 446.7C173.465 445.607 173.145 444.373 173.145 443C173.145 441.627 173.472 440.393 174.125 439.3C174.778 438.207 175.672 437.353 176.805 436.74C177.952 436.113 179.232 435.8 180.645 435.8C181.792 435.8 182.838 436 183.785 436.4C184.732 436.8 185.532 437.38 186.185 438.14L184.505 439.72C183.492 438.627 182.245 438.08 180.765 438.08C179.805 438.08 178.945 438.293 178.185 438.72C177.425 439.133 176.832 439.713 176.405 440.46C175.978 441.207 175.765 442.053 175.765 443C175.765 443.947 175.978 444.793 176.405 445.54C176.832 446.287 177.425 446.873 178.185 447.3C178.945 447.713 179.805 447.92 180.765 447.92C182.245 447.92 183.492 447.367 184.505 446.26L186.185 447.86C185.532 448.62 184.725 449.2 183.765 449.6C182.818 450 181.772 450.2 180.625 450.2ZM200.163 442.52C199.71 442.52 199.323 442.367 199.003 442.06C198.683 441.74 198.523 441.34 198.523 440.86C198.523 440.367 198.677 439.967 198.983 439.66C199.303 439.353 199.697 439.2 200.163 439.2C200.63 439.2 201.017 439.353 201.323 439.66C201.643 439.967 201.803 440.367 201.803 440.86C201.803 441.34 201.643 441.74 201.323 442.06C201.003 442.367 200.617 442.52 200.163 442.52ZM200.163 450.14C199.71 450.14 199.323 449.987 199.003 449.68C198.683 449.36 198.523 448.96 198.523 448.48C198.523 447.987 198.677 447.587 198.983 447.28C199.303 446.973 199.697 446.82 200.163 446.82C200.63 446.82 201.017 446.973 201.323 447.28C201.643 447.587 201.803 447.987 201.803 448.48C201.803 448.96 201.643 449.36 201.323 449.68C201.003 449.987 200.617 450.14 200.163 450.14Z" fill="#97F3FF" fill-opacity="0.9"/>
<path d="M11 552C11 535.431 24.4315 522 41 522H371C387.569 522 401 535.431 401 552V832H11V552Z" fill="url(#paint2_linear)"/>
<path d="M130.112 728.3H123.152V725H140.972V728.3H134.012V746H130.112V728.3ZM152.86 729.8C155.22 729.8 157.02 730.37 158.26 731.51C159.52 732.63 160.15 734.33 160.15 736.61V746H156.61V744.05C156.15 744.75 155.49 745.29 154.63 745.67C153.79 746.03 152.77 746.21 151.57 746.21C150.37 746.21 149.32 746.01 148.42 745.61C147.52 745.19 146.82 744.62 146.32 743.9C145.84 743.16 145.6 742.33 145.6 741.41C145.6 739.97 146.13 738.82 147.19 737.96C148.27 737.08 149.96 736.64 152.26 736.64H156.4V736.4C156.4 735.28 156.06 734.42 155.38 733.82C154.72 733.22 153.73 732.92 152.41 732.92C151.51 732.92 150.62 733.06 149.74 733.34C148.88 733.62 148.15 734.01 147.55 734.51L146.08 731.78C146.92 731.14 147.93 730.65 149.11 730.31C150.29 729.97 151.54 729.8 152.86 729.8ZM152.35 743.48C153.29 743.48 154.12 743.27 154.84 742.85C155.58 742.41 156.1 741.79 156.4 740.99V739.13H152.53C150.37 739.13 149.29 739.84 149.29 741.26C149.29 741.94 149.56 742.48 150.1 742.88C150.64 743.28 151.39 743.48 152.35 743.48ZM177.892 729.8C179.452 729.8 180.842 730.14 182.062 730.82C183.302 731.5 184.272 732.46 184.972 733.7C185.672 734.94 186.022 736.37 186.022 737.99C186.022 739.61 185.672 741.05 184.972 742.31C184.272 743.55 183.302 744.51 182.062 745.19C180.842 745.87 179.452 746.21 177.892 746.21C175.732 746.21 174.022 745.49 172.762 744.05V751.82H169.012V729.98H172.582V732.08C173.202 731.32 173.962 730.75 174.862 730.37C175.782 729.99 176.792 729.8 177.892 729.8ZM177.472 743C178.852 743 179.982 742.54 180.862 741.62C181.762 740.7 182.212 739.49 182.212 737.99C182.212 736.49 181.762 735.28 180.862 734.36C179.982 733.44 178.852 732.98 177.472 732.98C176.572 732.98 175.762 733.19 175.042 733.61C174.322 734.01 173.752 734.59 173.332 735.35C172.912 736.11 172.702 736.99 172.702 737.99C172.702 738.99 172.912 739.87 173.332 740.63C173.752 741.39 174.322 741.98 175.042 742.4C175.762 742.8 176.572 743 177.472 743ZM220.97 729.98L213.47 747.29C212.77 749.03 211.92 750.25 210.92 750.95C209.92 751.67 208.71 752.03 207.29 752.03C206.49 752.03 205.7 751.9 204.92 751.64C204.14 751.38 203.5 751.02 203 750.56L204.5 747.8C204.86 748.14 205.28 748.41 205.76 748.61C206.26 748.81 206.76 748.91 207.26 748.91C207.92 748.91 208.46 748.74 208.88 748.4C209.32 748.06 209.72 747.49 210.08 746.69L210.35 746.06L203.36 729.98H207.26L212.3 741.83L217.37 729.98H220.97ZM234.124 746.21C232.504 746.21 231.044 745.86 229.744 745.16C228.444 744.46 227.424 743.49 226.684 742.25C225.964 740.99 225.604 739.57 225.604 737.99C225.604 736.41 225.964 735 226.684 733.76C227.424 732.52 228.444 731.55 229.744 730.85C231.044 730.15 232.504 729.8 234.124 729.8C235.764 729.8 237.234 730.15 238.534 730.85C239.834 731.55 240.844 732.52 241.564 733.76C242.304 735 242.674 736.41 242.674 737.99C242.674 739.57 242.304 740.99 241.564 742.25C240.844 743.49 239.834 744.46 238.534 745.16C237.234 745.86 235.764 746.21 234.124 746.21ZM234.124 743C235.504 743 236.644 742.54 237.544 741.62C238.444 740.7 238.894 739.49 238.894 737.99C238.894 736.49 238.444 735.28 237.544 734.36C236.644 733.44 235.504 732.98 234.124 732.98C232.744 732.98 231.604 733.44 230.704 734.36C229.824 735.28 229.384 736.49 229.384 737.99C229.384 739.49 229.824 740.7 230.704 741.62C231.604 742.54 232.744 743 234.124 743ZM265.82 729.98V746H262.25V743.96C261.65 744.68 260.9 745.24 260 745.64C259.1 746.02 258.13 746.21 257.09 746.21C254.95 746.21 253.26 745.62 252.02 744.44C250.8 743.24 250.19 741.47 250.19 739.13V729.98H253.94V738.62C253.94 740.06 254.26 741.14 254.9 741.86C255.56 742.56 256.49 742.91 257.69 742.91C259.03 742.91 260.09 742.5 260.87 741.68C261.67 740.84 262.07 739.64 262.07 738.08V729.98H265.82ZM278.35 732.32C279.43 730.64 281.33 729.8 284.05 729.8V733.37C283.73 733.31 283.44 733.28 283.18 733.28C281.72 733.28 280.58 733.71 279.76 734.57C278.94 735.41 278.53 736.63 278.53 738.23V746H274.78V729.98H278.35V732.32ZM127.092 766.8C128.652 766.8 130.042 767.14 131.262 767.82C132.502 768.5 133.472 769.46 134.172 770.7C134.872 771.94 135.222 773.37 135.222 774.99C135.222 776.61 134.872 778.05 134.172 779.31C133.472 780.55 132.502 781.51 131.262 782.19C130.042 782.87 128.652 783.21 127.092 783.21C124.932 783.21 123.222 782.49 121.962 781.05V788.82H118.212V766.98H121.782V769.08C122.402 768.32 123.162 767.75 124.062 767.37C124.982 766.99 125.992 766.8 127.092 766.8ZM126.672 780C128.052 780 129.182 779.54 130.062 778.62C130.962 777.7 131.412 776.49 131.412 774.99C131.412 773.49 130.962 772.28 130.062 771.36C129.182 770.44 128.052 769.98 126.672 769.98C125.772 769.98 124.962 770.19 124.242 770.61C123.522 771.01 122.952 771.59 122.532 772.35C122.112 773.11 121.902 773.99 121.902 774.99C121.902 775.99 122.112 776.87 122.532 777.63C122.952 778.39 123.522 778.98 124.242 779.4C124.962 779.8 125.772 780 126.672 780ZM151.919 766.8C153.939 766.8 155.559 767.39 156.779 768.57C157.999 769.75 158.609 771.5 158.609 773.82V783H154.859V774.3C154.859 772.9 154.529 771.85 153.869 771.15C153.209 770.43 152.269 770.07 151.049 770.07C149.669 770.07 148.579 770.49 147.779 771.33C146.979 772.15 146.579 773.34 146.579 774.9V783H142.829V760.74H146.579V768.84C147.199 768.18 147.959 767.68 148.859 767.34C149.779 766.98 150.799 766.8 151.919 766.8ZM174.762 783.21C173.142 783.21 171.682 782.86 170.382 782.16C169.082 781.46 168.062 780.49 167.322 779.25C166.602 777.99 166.242 776.57 166.242 774.99C166.242 773.41 166.602 772 167.322 770.76C168.062 769.52 169.082 768.55 170.382 767.85C171.682 767.15 173.142 766.8 174.762 766.8C176.402 766.8 177.872 767.15 179.172 767.85C180.472 768.55 181.482 769.52 182.202 770.76C182.942 772 183.312 773.41 183.312 774.99C183.312 776.57 182.942 777.99 182.202 779.25C181.482 780.49 180.472 781.46 179.172 782.16C177.872 782.86 176.402 783.21 174.762 783.21ZM174.762 780C176.142 780 177.282 779.54 178.182 778.62C179.082 777.7 179.532 776.49 179.532 774.99C179.532 773.49 179.082 772.28 178.182 771.36C177.282 770.44 176.142 769.98 174.762 769.98C173.382 769.98 172.242 770.44 171.342 771.36C170.462 772.28 170.022 773.49 170.022 774.99C170.022 776.49 170.462 777.7 171.342 778.62C172.242 779.54 173.382 780 174.762 780ZM200.038 766.8C202.058 766.8 203.678 767.39 204.898 768.57C206.118 769.75 206.728 771.5 206.728 773.82V783H202.978V774.3C202.978 772.9 202.648 771.85 201.988 771.15C201.328 770.43 200.388 770.07 199.168 770.07C197.788 770.07 196.698 770.49 195.898 771.33C195.098 772.15 194.698 773.34 194.698 774.9V783H190.948V766.98H194.518V769.05C195.138 768.31 195.918 767.75 196.858 767.37C197.798 766.99 198.858 766.8 200.038 766.8ZM230.742 775.08C230.742 775.34 230.722 775.71 230.682 776.19H218.112C218.332 777.37 218.902 778.31 219.822 779.01C220.762 779.69 221.922 780.03 223.302 780.03C225.062 780.03 226.512 779.45 227.652 778.29L229.662 780.6C228.942 781.46 228.032 782.11 226.932 782.55C225.832 782.99 224.592 783.21 223.212 783.21C221.452 783.21 219.902 782.86 218.562 782.16C217.222 781.46 216.182 780.49 215.442 779.25C214.722 777.99 214.362 776.57 214.362 774.99C214.362 773.43 214.712 772.03 215.412 770.79C216.132 769.53 217.122 768.55 218.382 767.85C219.642 767.15 221.062 766.8 222.642 766.8C224.202 766.8 225.592 767.15 226.812 767.85C228.052 768.53 229.012 769.5 229.692 770.76C230.392 772 230.742 773.44 230.742 775.08ZM222.642 769.8C221.442 769.8 220.422 770.16 219.582 770.88C218.762 771.58 218.262 772.52 218.082 773.7H227.172C227.012 772.54 226.522 771.6 225.702 770.88C224.882 770.16 223.862 769.8 222.642 769.8ZM257.935 783.21C256.315 783.21 254.855 782.86 253.555 782.16C252.255 781.46 251.235 780.49 250.495 779.25C249.775 777.99 249.415 776.57 249.415 774.99C249.415 773.41 249.775 772 250.495 770.76C251.235 769.52 252.255 768.55 253.555 767.85C254.855 767.15 256.315 766.8 257.935 766.8C259.575 766.8 261.045 767.15 262.345 767.85C263.645 768.55 264.655 769.52 265.375 770.76C266.115 772 266.485 773.41 266.485 774.99C266.485 776.57 266.115 777.99 265.375 779.25C264.655 780.49 263.645 781.46 262.345 782.16C261.045 782.86 259.575 783.21 257.935 783.21ZM257.935 780C259.315 780 260.455 779.54 261.355 778.62C262.255 777.7 262.705 776.49 262.705 774.99C262.705 773.49 262.255 772.28 261.355 771.36C260.455 770.44 259.315 769.98 257.935 769.98C256.555 769.98 255.415 770.44 254.515 771.36C253.635 772.28 253.195 773.49 253.195 774.99C253.195 776.49 253.635 777.7 254.515 778.62C255.415 779.54 256.555 780 257.935 780ZM283.211 766.8C285.231 766.8 286.851 767.39 288.071 768.57C289.291 769.75 289.901 771.5 289.901 773.82V783H286.151V774.3C286.151 772.9 285.821 771.85 285.161 771.15C284.501 770.43 283.561 770.07 282.341 770.07C280.961 770.07 279.871 770.49 279.071 771.33C278.271 772.15 277.871 773.34 277.871 774.9V783H274.121V766.98H277.691V769.05C278.311 768.31 279.091 767.75 280.031 767.37C280.971 766.99 282.031 766.8 283.211 766.8ZM122.258 799V820H119.048L107.468 805.78V820H103.598V799H106.808L118.388 813.22V799H122.258ZM135.835 802.27V808.66H145.975V811.96H135.835V820H131.935V799H147.265V802.27H135.835ZM164.572 820.3C162.452 820.3 160.532 819.84 158.812 818.92C157.112 817.98 155.772 816.69 154.792 815.05C153.832 813.41 153.352 811.56 153.352 809.5C153.352 807.44 153.842 805.59 154.822 803.95C155.802 802.31 157.142 801.03 158.842 800.11C160.562 799.17 162.482 798.7 164.602 798.7C166.322 798.7 167.892 799 169.312 799.6C170.732 800.2 171.932 801.07 172.912 802.21L170.392 804.58C168.872 802.94 167.002 802.12 164.782 802.12C163.342 802.12 162.052 802.44 160.912 803.08C159.772 803.7 158.882 804.57 158.242 805.69C157.602 806.81 157.282 808.08 157.282 809.5C157.282 810.92 157.602 812.19 158.242 813.31C158.882 814.43 159.772 815.31 160.912 815.95C162.052 816.57 163.342 816.88 164.782 816.88C167.002 816.88 168.872 816.05 170.392 814.39L172.912 816.79C171.932 817.93 170.722 818.8 169.282 819.4C167.862 820 166.292 820.3 164.572 820.3ZM196.25 806.32C197.33 804.64 199.23 803.8 201.95 803.8V807.37C201.63 807.31 201.34 807.28 201.08 807.28C199.62 807.28 198.48 807.71 197.66 808.57C196.84 809.41 196.43 810.63 196.43 812.23V820H192.68V803.98H196.25V806.32ZM224.095 812.08C224.095 812.34 224.075 812.71 224.035 813.19H211.465C211.685 814.37 212.255 815.31 213.175 816.01C214.115 816.69 215.275 817.03 216.655 817.03C218.415 817.03 219.865 816.45 221.005 815.29L223.015 817.6C222.295 818.46 221.385 819.11 220.285 819.55C219.185 819.99 217.945 820.21 216.565 820.21C214.805 820.21 213.255 819.86 211.915 819.16C210.575 818.46 209.535 817.49 208.795 816.25C208.075 814.99 207.715 813.57 207.715 811.99C207.715 810.43 208.065 809.03 208.765 807.79C209.485 806.53 210.475 805.55 211.735 804.85C212.995 804.15 214.415 803.8 215.995 803.8C217.555 803.8 218.945 804.15 220.165 804.85C221.405 805.53 222.365 806.5 223.045 807.76C223.745 809 224.095 810.44 224.095 812.08ZM215.995 806.8C214.795 806.8 213.775 807.16 212.935 807.88C212.115 808.58 211.615 809.52 211.435 810.7H220.525C220.365 809.54 219.875 808.6 219.055 807.88C218.235 807.16 217.215 806.8 215.995 806.8ZM237.427 803.8C239.787 803.8 241.587 804.37 242.827 805.51C244.087 806.63 244.717 808.33 244.717 810.61V820H241.177V818.05C240.717 818.75 240.057 819.29 239.197 819.67C238.357 820.03 237.337 820.21 236.137 820.21C234.937 820.21 233.887 820.01 232.987 819.61C232.087 819.19 231.387 818.62 230.887 817.9C230.407 817.16 230.167 816.33 230.167 815.41C230.167 813.97 230.697 812.82 231.757 811.96C232.837 811.08 234.527 810.64 236.827 810.64H240.967V810.4C240.967 809.28 240.627 808.42 239.947 807.82C239.287 807.22 238.297 806.92 236.977 806.92C236.077 806.92 235.187 807.06 234.307 807.34C233.447 807.62 232.717 808.01 232.117 808.51L230.647 805.78C231.487 805.14 232.497 804.65 233.677 804.31C234.857 803.97 236.107 803.8 237.427 803.8ZM236.917 817.48C237.857 817.48 238.687 817.27 239.407 816.85C240.147 816.41 240.667 815.79 240.967 814.99V813.13H237.097C234.937 813.13 233.857 813.84 233.857 815.26C233.857 815.94 234.127 816.48 234.667 816.88C235.207 817.28 235.957 817.48 236.917 817.48ZM269.417 797.74V820H265.817V817.93C265.197 818.69 264.427 819.26 263.507 819.64C262.607 820.02 261.607 820.21 260.507 820.21C258.967 820.21 257.577 819.87 256.337 819.19C255.117 818.51 254.157 817.55 253.457 816.31C252.757 815.05 252.407 813.61 252.407 811.99C252.407 810.37 252.757 808.94 253.457 807.7C254.157 806.46 255.117 805.5 256.337 804.82C257.577 804.14 258.967 803.8 260.507 803.8C261.567 803.8 262.537 803.98 263.417 804.34C264.297 804.7 265.047 805.24 265.667 805.96V797.74H269.417ZM260.957 817C261.857 817 262.667 816.8 263.387 816.4C264.107 815.98 264.677 815.39 265.097 814.63C265.517 813.87 265.727 812.99 265.727 811.99C265.727 810.99 265.517 810.11 265.097 809.35C264.677 808.59 264.107 808.01 263.387 807.61C262.667 807.19 261.857 806.98 260.957 806.98C260.057 806.98 259.247 807.19 258.527 807.61C257.807 808.01 257.237 808.59 256.817 809.35C256.397 810.11 256.187 810.99 256.187 811.99C256.187 812.99 256.397 813.87 256.817 814.63C257.237 815.39 257.807 815.98 258.527 816.4C259.247 816.8 260.057 817 260.957 817ZM293.432 812.08C293.432 812.34 293.412 812.71 293.372 813.19H280.802C281.022 814.37 281.592 815.31 282.512 816.01C283.452 816.69 284.612 817.03 285.992 817.03C287.752 817.03 289.202 816.45 290.342 815.29L292.352 817.6C291.632 818.46 290.722 819.11 289.622 819.55C288.522 819.99 287.282 820.21 285.902 820.21C284.142 820.21 282.592 819.86 281.252 819.16C279.912 818.46 278.872 817.49 278.132 816.25C277.412 814.99 277.052 813.57 277.052 811.99C277.052 810.43 277.402 809.03 278.102 807.79C278.822 806.53 279.812 805.55 281.072 804.85C282.332 804.15 283.752 803.8 285.332 803.8C286.892 803.8 288.282 804.15 289.502 804.85C290.742 805.53 291.702 806.5 292.382 807.76C293.082 809 293.432 810.44 293.432 812.08ZM285.332 806.8C284.132 806.8 283.112 807.16 282.272 807.88C281.452 808.58 280.952 809.52 280.772 810.7H289.862C289.702 809.54 289.212 808.6 288.392 807.88C287.572 807.16 286.552 806.8 285.332 806.8ZM304.654 806.32C305.734 804.64 307.634 803.8 310.354 803.8V807.37C310.034 807.31 309.744 807.28 309.484 807.28C308.024 807.28 306.884 807.71 306.064 808.57C305.244 809.41 304.834 810.63 304.834 812.23V820H301.084V803.98H304.654V806.32Z" fill="#FF9800"/>
<path d="M40.856 654.384V657H28.256V640.2H40.52V642.816H31.376V647.184H39.488V649.752H31.376V654.384H40.856ZM54.5581 644.04C56.1741 644.04 57.4701 644.512 58.4461 645.456C59.4221 646.4 59.9101 647.8 59.9101 649.656V657H56.9101V650.04C56.9101 648.92 56.6461 648.08 56.1181 647.52C55.5901 646.944 54.8381 646.656 53.8621 646.656C52.7581 646.656 51.8861 646.992 51.2461 647.664C50.6061 648.32 50.2861 649.272 50.2861 650.52V657H47.2861V644.184H50.1421V645.84C50.6381 645.248 51.2621 644.8 52.0141 644.496C52.7661 644.192 53.6141 644.04 54.5581 644.04ZM74.6598 656.304C74.3078 656.592 73.8758 656.808 73.3638 656.952C72.8678 657.096 72.3398 657.168 71.7798 657.168C70.3718 657.168 69.2838 656.8 68.5158 656.064C67.7478 655.328 67.3638 654.256 67.3638 652.848V646.68H65.2518V644.28H67.3638V641.352H70.3638V644.28H73.7958V646.68H70.3638V652.776C70.3638 653.4 70.5158 653.88 70.8198 654.216C71.1238 654.536 71.5638 654.696 72.1398 654.696C72.8118 654.696 73.3718 654.52 73.8198 654.168L74.6598 656.304ZM91.9938 650.664C91.9938 650.872 91.9778 651.168 91.9458 651.552H81.8898C82.0658 652.496 82.5218 653.248 83.2578 653.808C84.0098 654.352 84.9378 654.624 86.0418 654.624C87.4498 654.624 88.6098 654.16 89.5218 653.232L91.1298 655.08C90.5538 655.768 89.8258 656.288 88.9458 656.64C88.0658 656.992 87.0738 657.168 85.9698 657.168C84.5618 657.168 83.3218 656.888 82.2498 656.328C81.1778 655.768 80.3458 654.992 79.7538 654C79.1778 652.992 78.8898 651.856 78.8898 650.592C78.8898 649.344 79.1698 648.224 79.7298 647.232C80.3058 646.224 81.0978 645.44 82.1058 644.88C83.1138 644.32 84.2498 644.04 85.5138 644.04C86.7618 644.04 87.8738 644.32 88.8498 644.88C89.8418 645.424 90.6098 646.2 91.1538 647.208C91.7138 648.2 91.9938 649.352 91.9938 650.664ZM85.5138 646.44C84.5538 646.44 83.7378 646.728 83.0658 647.304C82.4098 647.864 82.0098 648.616 81.8658 649.56H89.1378C89.0098 648.632 88.6178 647.88 87.9618 647.304C87.3058 646.728 86.4898 646.44 85.5138 646.44ZM100.971 646.056C101.835 644.712 103.355 644.04 105.531 644.04V646.896C105.275 646.848 105.043 646.824 104.835 646.824C103.667 646.824 102.755 647.168 102.099 647.856C101.443 648.528 101.115 649.504 101.115 650.784V657H98.1155V644.184H100.971V646.056ZM132.49 653.112H124.09L122.434 657H119.218L126.778 640.2H129.85L137.434 657H134.17L132.49 653.112ZM131.458 650.664L128.29 643.32L125.146 650.664H131.458ZM158.699 644.04C160.315 644.04 161.595 644.512 162.539 645.456C163.483 646.384 163.955 647.784 163.955 649.656V657H160.955V650.04C160.955 648.92 160.707 648.08 160.211 647.52C159.715 646.944 159.003 646.656 158.075 646.656C157.067 646.656 156.259 646.992 155.651 647.664C155.043 648.32 154.739 649.264 154.739 650.496V657H151.739V650.04C151.739 648.92 151.491 648.08 150.995 647.52C150.499 646.944 149.787 646.656 148.859 646.656C147.835 646.656 147.019 646.984 146.411 647.64C145.819 648.296 145.523 649.248 145.523 650.496V657H142.523V644.184H145.379V645.816C145.859 645.24 146.459 644.8 147.179 644.496C147.899 644.192 148.699 644.04 149.579 644.04C150.539 644.04 151.387 644.224 152.123 644.592C152.875 644.944 153.467 645.472 153.899 646.176C154.427 645.504 155.107 644.984 155.939 644.616C156.771 644.232 157.691 644.04 158.699 644.04ZM176.906 657.168C175.61 657.168 174.442 656.888 173.402 656.328C172.362 655.768 171.546 654.992 170.954 654C170.378 652.992 170.09 651.856 170.09 650.592C170.09 649.328 170.378 648.2 170.954 647.208C171.546 646.216 172.362 645.44 173.402 644.88C174.442 644.32 175.61 644.04 176.906 644.04C178.218 644.04 179.394 644.32 180.434 644.88C181.474 645.44 182.282 646.216 182.858 647.208C183.45 648.2 183.746 649.328 183.746 650.592C183.746 651.856 183.45 652.992 182.858 654C182.282 654.992 181.474 655.768 180.434 656.328C179.394 656.888 178.218 657.168 176.906 657.168ZM176.906 654.6C178.01 654.6 178.922 654.232 179.642 653.496C180.362 652.76 180.722 651.792 180.722 650.592C180.722 649.392 180.362 648.424 179.642 647.688C178.922 646.952 178.01 646.584 176.906 646.584C175.802 646.584 174.89 646.952 174.17 647.688C173.466 648.424 173.114 649.392 173.114 650.592C173.114 651.792 173.466 652.76 174.17 653.496C174.89 654.232 175.802 654.6 176.906 654.6ZM202.263 644.184V657H199.407V655.368C198.927 655.944 198.327 656.392 197.607 656.712C196.887 657.016 196.111 657.168 195.279 657.168C193.567 657.168 192.215 656.696 191.223 655.752C190.247 654.792 189.759 653.376 189.759 651.504V644.184H192.759V651.096C192.759 652.248 193.015 653.112 193.527 653.688C194.055 654.248 194.799 654.528 195.759 654.528C196.831 654.528 197.679 654.2 198.303 653.544C198.943 652.872 199.263 651.912 199.263 650.664V644.184H202.263ZM216.702 644.04C218.318 644.04 219.614 644.512 220.59 645.456C221.566 646.4 222.054 647.8 222.054 649.656V657H219.054V650.04C219.054 648.92 218.79 648.08 218.262 647.52C217.734 646.944 216.982 646.656 216.006 646.656C214.902 646.656 214.03 646.992 213.39 647.664C212.75 648.32 212.43 649.272 212.43 650.52V657H209.43V644.184H212.286V645.84C212.782 645.248 213.406 644.8 214.158 644.496C214.91 644.192 215.758 644.04 216.702 644.04ZM236.804 656.304C236.452 656.592 236.02 656.808 235.508 656.952C235.012 657.096 234.484 657.168 233.924 657.168C232.516 657.168 231.428 656.8 230.66 656.064C229.892 655.328 229.508 654.256 229.508 652.848V646.68H227.396V644.28H229.508V641.352H232.508V644.28H235.94V646.68H232.508V652.776C232.508 653.4 232.66 653.88 232.964 654.216C233.268 654.536 233.708 654.696 234.284 654.696C234.956 654.696 235.516 654.52 235.964 654.168L236.804 656.304ZM253.345 648.024C252.801 648.024 252.337 647.84 251.953 647.472C251.569 647.088 251.377 646.608 251.377 646.032C251.377 645.44 251.561 644.96 251.929 644.592C252.313 644.224 252.785 644.04 253.345 644.04C253.905 644.04 254.369 644.224 254.737 644.592C255.121 644.96 255.313 645.44 255.313 646.032C255.313 646.608 255.121 647.088 254.737 647.472C254.353 647.84 253.889 648.024 253.345 648.024ZM253.345 657.168C252.801 657.168 252.337 656.984 251.953 656.616C251.569 656.232 251.377 655.752 251.377 655.176C251.377 654.584 251.561 654.104 251.929 653.736C252.313 653.368 252.785 653.184 253.345 653.184C253.905 653.184 254.369 653.368 254.737 653.736C255.121 654.104 255.313 654.584 255.313 655.176C255.313 655.752 255.121 656.232 254.737 656.616C254.353 656.984 253.889 657.168 253.345 657.168Z" fill="#217682"/>
<rect x="113" y="539" width="180" height="40" rx="20" fill="#00B9D2" fill-opacity="0.9"/>
<rect x="117" y="544" width="76" height="31" rx="15.5" fill="#00FFE0"/>
<path d="M142.73 553.5C143.64 553.5 144.43 553.65 145.1 553.95C145.78 554.25 146.3 554.68 146.66 555.24C147.02 555.8 147.2 556.465 147.2 557.235C147.2 557.995 147.02 558.66 146.66 559.23C146.3 559.79 145.78 560.22 145.1 560.52C144.43 560.82 143.64 560.97 142.73 560.97H140.36V564H138.41V553.5H142.73ZM142.64 559.32C143.49 559.32 144.135 559.14 144.575 558.78C145.015 558.42 145.235 557.905 145.235 557.235C145.235 556.565 145.015 556.05 144.575 555.69C144.135 555.33 143.49 555.15 142.64 555.15H140.36V559.32H142.64ZM157.455 561.57H152.205L151.17 564H149.16L153.885 553.5H155.805L160.545 564H158.505L157.455 561.57ZM156.81 560.04L154.83 555.45L152.865 560.04H156.81ZM167.805 560.295V564H165.855V560.325L161.73 553.5H163.815L166.89 558.615L169.995 553.5H171.915L167.805 560.295Z" fill="#338888"/>
<rect x="213" y="544" width="76" height="31" rx="15.5" fill="#C4C4C4"/>
<path d="M218.652 557.87H217.028V557.1H221.186V557.87H219.562V562H218.652V557.87ZM226.02 562L225.019 560.565C224.977 560.57 224.914 560.572 224.83 560.572H223.724V562H222.814V557.1H224.83C225.255 557.1 225.623 557.17 225.936 557.31C226.253 557.45 226.496 557.651 226.664 557.912C226.832 558.173 226.916 558.484 226.916 558.843C226.916 559.212 226.825 559.529 226.643 559.795C226.466 560.061 226.209 560.259 225.873 560.39L227 562H226.02ZM225.999 558.843C225.999 558.53 225.896 558.29 225.691 558.122C225.486 557.954 225.185 557.87 224.788 557.87H223.724V559.823H224.788C225.185 559.823 225.486 559.739 225.691 559.571C225.896 559.398 225.999 559.156 225.999 558.843ZM232.057 560.866H229.607L229.124 562H228.186L230.391 557.1H231.287L233.499 562H232.547L232.057 560.866ZM231.756 560.152L230.832 558.01L229.915 560.152H231.756ZM239.421 557.1V562H238.672L235.97 558.682V562H235.067V557.1H235.816L238.518 560.418V557.1H239.421ZM243.198 562.07C242.82 562.07 242.454 562.016 242.099 561.909C241.749 561.802 241.472 561.659 241.266 561.482L241.581 560.775C241.782 560.934 242.027 561.064 242.316 561.167C242.61 561.265 242.904 561.314 243.198 561.314C243.562 561.314 243.833 561.256 244.01 561.139C244.192 561.022 244.283 560.868 244.283 560.677C244.283 560.537 244.232 560.423 244.129 560.334C244.031 560.241 243.905 560.168 243.751 560.117C243.597 560.066 243.387 560.007 243.121 559.942C242.748 559.853 242.445 559.765 242.211 559.676C241.983 559.587 241.784 559.45 241.616 559.263C241.453 559.072 241.371 558.815 241.371 558.493C241.371 558.222 241.444 557.977 241.588 557.758C241.738 557.534 241.959 557.357 242.253 557.226C242.552 557.095 242.916 557.03 243.345 557.03C243.644 557.03 243.938 557.067 244.227 557.142C244.517 557.217 244.766 557.324 244.976 557.464L244.689 558.171C244.475 558.045 244.251 557.949 244.017 557.884C243.784 557.819 243.558 557.786 243.338 557.786C242.979 557.786 242.711 557.847 242.533 557.968C242.361 558.089 242.274 558.25 242.274 558.451C242.274 558.591 242.323 558.705 242.421 558.794C242.524 558.883 242.652 558.953 242.806 559.004C242.96 559.055 243.17 559.114 243.436 559.179C243.8 559.263 244.099 559.352 244.332 559.445C244.566 559.534 244.764 559.671 244.927 559.858C245.095 560.045 245.179 560.297 245.179 560.614C245.179 560.885 245.105 561.13 244.955 561.349C244.811 561.568 244.589 561.743 244.29 561.874C243.992 562.005 243.628 562.07 243.198 562.07ZM250.205 560.866H247.755L247.272 562H246.334L248.539 557.1H249.435L251.647 562H250.695L250.205 560.866ZM249.904 560.152L248.98 558.01L248.063 560.152H249.904ZM255.414 562.07C254.92 562.07 254.472 561.963 254.07 561.748C253.674 561.529 253.361 561.228 253.132 560.845C252.908 560.462 252.796 560.031 252.796 559.55C252.796 559.069 252.911 558.638 253.139 558.255C253.368 557.872 253.681 557.574 254.077 557.359C254.479 557.14 254.927 557.03 255.421 557.03C255.823 557.03 256.189 557.1 256.52 557.24C256.852 557.38 257.132 557.583 257.36 557.849L256.772 558.402C256.418 558.019 255.981 557.828 255.463 557.828C255.127 557.828 254.826 557.903 254.56 558.052C254.294 558.197 254.087 558.4 253.937 558.661C253.788 558.922 253.713 559.219 253.713 559.55C253.713 559.881 253.788 560.178 253.937 560.439C254.087 560.7 254.294 560.906 254.56 561.055C254.826 561.2 255.127 561.272 255.463 561.272C255.981 561.272 256.418 561.078 256.772 560.691L257.36 561.251C257.132 561.517 256.849 561.72 256.513 561.86C256.182 562 255.816 562.07 255.414 562.07ZM260.117 557.87H258.493V557.1H262.651V557.87H261.027V562H260.117V557.87ZM264.279 557.1H265.189V562H264.279V557.1ZM269.748 562.07C269.249 562.07 268.798 561.963 268.397 561.748C267.996 561.529 267.681 561.228 267.452 560.845C267.223 560.458 267.109 560.026 267.109 559.55C267.109 559.074 267.223 558.645 267.452 558.262C267.681 557.875 267.996 557.574 268.397 557.359C268.798 557.14 269.249 557.03 269.748 557.03C270.247 557.03 270.698 557.14 271.099 557.359C271.5 557.574 271.815 557.872 272.044 558.255C272.273 558.638 272.387 559.069 272.387 559.55C272.387 560.031 272.273 560.462 272.044 560.845C271.815 561.228 271.5 561.529 271.099 561.748C270.698 561.963 270.247 562.07 269.748 562.07ZM269.748 561.272C270.075 561.272 270.369 561.2 270.63 561.055C270.891 560.906 271.097 560.7 271.246 560.439C271.395 560.173 271.47 559.877 271.47 559.55C271.47 559.223 271.395 558.929 271.246 558.668C271.097 558.402 270.891 558.197 270.63 558.052C270.369 557.903 270.075 557.828 269.748 557.828C269.421 557.828 269.127 557.903 268.866 558.052C268.605 558.197 268.399 558.402 268.25 558.668C268.101 558.929 268.026 559.223 268.026 559.55C268.026 559.877 268.101 560.173 268.25 560.439C268.399 560.7 268.605 560.906 268.866 561.055C269.127 561.2 269.421 561.272 269.748 561.272ZM278.65 557.1V562H277.901L275.199 558.682V562H274.296V557.1H275.045L277.747 560.418V557.1H278.65ZM282.427 562.07C282.049 562.07 281.683 562.016 281.328 561.909C280.978 561.802 280.701 561.659 280.495 561.482L280.81 560.775C281.011 560.934 281.256 561.064 281.545 561.167C281.839 561.265 282.133 561.314 282.427 561.314C282.791 561.314 283.062 561.256 283.239 561.139C283.421 561.022 283.512 560.868 283.512 560.677C283.512 560.537 283.461 560.423 283.358 560.334C283.26 560.241 283.134 560.168 282.98 560.117C282.826 560.066 282.616 560.007 282.35 559.942C281.977 559.853 281.674 559.765 281.44 559.676C281.212 559.587 281.013 559.45 280.845 559.263C280.682 559.072 280.6 558.815 280.6 558.493C280.6 558.222 280.673 557.977 280.817 557.758C280.967 557.534 281.188 557.357 281.482 557.226C281.781 557.095 282.145 557.03 282.574 557.03C282.873 557.03 283.167 557.067 283.456 557.142C283.746 557.217 283.995 557.324 284.205 557.464L283.918 558.171C283.704 558.045 283.48 557.949 283.246 557.884C283.013 557.819 282.787 557.786 282.567 557.786C282.208 557.786 281.94 557.847 281.762 557.968C281.59 558.089 281.503 558.25 281.503 558.451C281.503 558.591 281.552 558.705 281.65 558.794C281.753 558.883 281.881 558.953 282.035 559.004C282.189 559.055 282.399 559.114 282.665 559.179C283.029 559.263 283.328 559.352 283.561 559.445C283.795 559.534 283.993 559.671 284.156 559.858C284.324 560.045 284.408 560.297 284.408 560.614C284.408 560.885 284.334 561.13 284.184 561.349C284.04 561.568 283.818 561.743 283.519 561.874C283.221 562.005 282.857 562.07 282.427 562.07Z" fill="#338888"/>
<rect x="266" y="630" width="73" height="36" rx="18" fill="#42909A"/>
<path d="M296.024 651.138H293.792V654H291.524V651.138H284.612V649.518L290.822 641.4H293.324L287.474 649.158H291.596V646.62H293.792V649.158H296.024V651.138ZM308.512 652.02V654H299.224V652.434L304.228 647.682C304.792 647.142 305.17 646.674 305.362 646.278C305.566 645.87 305.668 645.468 305.668 645.072C305.668 644.484 305.47 644.034 305.074 643.722C304.678 643.41 304.096 643.254 303.328 643.254C302.044 643.254 301.06 643.692 300.376 644.568L298.738 643.308C299.23 642.648 299.89 642.138 300.718 641.778C301.558 641.406 302.494 641.22 303.526 641.22C304.894 641.22 305.986 641.544 306.802 642.192C307.618 642.84 308.026 643.722 308.026 644.838C308.026 645.522 307.882 646.164 307.594 646.764C307.306 647.364 306.754 648.048 305.938 648.816L302.572 652.02H308.512ZM317.496 654.18C316.488 654.18 315.588 653.928 314.796 653.424C314.004 652.908 313.38 652.164 312.924 651.192C312.468 650.208 312.24 649.044 312.24 647.7C312.24 646.356 312.468 645.198 312.924 644.226C313.38 643.242 314.004 642.498 314.796 641.994C315.588 641.478 316.488 641.22 317.496 641.22C318.504 641.22 319.404 641.478 320.196 641.994C321 642.498 321.63 643.242 322.086 644.226C322.542 645.198 322.77 646.356 322.77 647.7C322.77 649.044 322.542 650.208 322.086 651.192C321.63 652.164 321 652.908 320.196 653.424C319.404 653.928 318.504 654.18 317.496 654.18ZM317.496 652.146C318.396 652.146 319.104 651.774 319.62 651.03C320.148 650.286 320.412 649.176 320.412 647.7C320.412 646.224 320.148 645.114 319.62 644.37C319.104 643.626 318.396 643.254 317.496 643.254C316.608 643.254 315.9 643.626 315.372 644.37C314.856 645.114 314.598 646.224 314.598 647.7C314.598 649.176 314.856 650.286 315.372 651.03C315.9 651.774 316.608 652.146 317.496 652.146Z" fill="#00E0FF"/>
<path d="M367.135 653.13C365.878 653.13 364.899 652.779 364.197 652.077C363.495 651.366 363.144 650.352 363.144 649.035V643.9H364.834V648.97C364.834 650.755 365.605 651.648 367.148 651.648C368.682 651.648 369.449 650.755 369.449 648.97V643.9H371.113V649.035C371.113 650.352 370.762 651.366 370.06 652.077C369.367 652.779 368.392 653.13 367.135 653.13ZM378.056 653.13C377.354 653.13 376.673 653.03 376.015 652.831C375.365 652.632 374.849 652.367 374.468 652.038L375.053 650.725C375.425 651.02 375.88 651.262 376.418 651.453C376.964 651.635 377.51 651.726 378.056 651.726C378.732 651.726 379.234 651.618 379.564 651.401C379.902 651.184 380.071 650.898 380.071 650.543C380.071 650.283 379.975 650.071 379.785 649.906C379.603 649.733 379.369 649.598 379.083 649.503C378.797 649.408 378.407 649.299 377.913 649.178C377.219 649.013 376.656 648.849 376.223 648.684C375.798 648.519 375.43 648.264 375.118 647.917C374.814 647.562 374.663 647.085 374.663 646.487C374.663 645.984 374.797 645.529 375.066 645.122C375.343 644.706 375.755 644.377 376.301 644.134C376.855 643.891 377.531 643.77 378.329 643.77C378.883 643.77 379.429 643.839 379.967 643.978C380.504 644.117 380.968 644.316 381.358 644.576L380.825 645.889C380.426 645.655 380.01 645.477 379.577 645.356C379.143 645.235 378.723 645.174 378.316 645.174C377.648 645.174 377.15 645.287 376.821 645.512C376.5 645.737 376.34 646.036 376.34 646.409C376.34 646.669 376.431 646.881 376.613 647.046C376.803 647.211 377.042 647.341 377.328 647.436C377.614 647.531 378.004 647.64 378.498 647.761C379.174 647.917 379.728 648.082 380.162 648.255C380.595 648.42 380.963 648.675 381.267 649.022C381.579 649.369 381.735 649.837 381.735 650.426C381.735 650.929 381.596 651.384 381.319 651.791C381.05 652.198 380.638 652.523 380.084 652.766C379.529 653.009 378.853 653.13 378.056 653.13ZM385.166 643.9H389.144C390.114 643.9 390.977 644.091 391.731 644.472C392.485 644.845 393.07 645.378 393.486 646.071C393.902 646.756 394.11 647.549 394.11 648.45C394.11 649.351 393.902 650.149 393.486 650.842C393.07 651.527 392.485 652.06 391.731 652.441C390.977 652.814 390.114 653 389.144 653H385.166V643.9ZM389.066 651.57C389.733 651.57 390.318 651.444 390.821 651.193C391.332 650.933 391.722 650.569 391.991 650.101C392.268 649.624 392.407 649.074 392.407 648.45C392.407 647.826 392.268 647.28 391.991 646.812C391.722 646.335 391.332 645.971 390.821 645.72C390.318 645.46 389.733 645.33 389.066 645.33H386.856V651.57H389.066Z" fill="#338888"/>
<path d="M344.762 642L350.5 649.423L356.238 642L358 644.296L350.5 654L343 644.296L344.762 642Z" fill="#00E0FF"/>
<path d="M314.127 37.04V41H298.257V37.85L306.357 30.2C307.217 29.38 307.797 28.68 308.097 28.1C308.397 27.5 308.547 26.91 308.547 26.33C308.547 25.49 308.257 24.85 307.677 24.41C307.117 23.95 306.287 23.72 305.187 23.72C304.267 23.72 303.437 23.9 302.697 24.26C301.957 24.6 301.337 25.12 300.837 25.82L297.297 23.54C298.117 22.32 299.247 21.37 300.687 20.69C302.127 19.99 303.777 19.64 305.637 19.64C307.197 19.64 308.557 19.9 309.717 20.42C310.897 20.92 311.807 21.64 312.447 22.58C313.107 23.5 313.437 24.59 313.437 25.85C313.437 26.99 313.197 28.06 312.717 29.06C312.237 30.06 311.307 31.2 309.927 32.48L305.097 37.04H314.127ZM327.382 27.89C330.342 27.89 332.522 28.48 333.922 29.66C335.342 30.84 336.052 32.42 336.052 34.4C336.052 35.68 335.732 36.85 335.092 37.91C334.452 38.95 333.472 39.79 332.152 40.43C330.852 41.05 329.242 41.36 327.322 41.36C325.842 41.36 324.382 41.17 322.942 40.79C321.522 40.39 320.312 39.83 319.312 39.11L321.232 35.39C322.032 35.99 322.952 36.46 323.992 36.8C325.032 37.12 326.102 37.28 327.202 37.28C328.422 37.28 329.382 37.04 330.082 36.56C330.782 36.08 331.132 35.41 331.132 34.55C331.132 33.65 330.762 32.97 330.022 32.51C329.302 32.05 328.042 31.82 326.242 31.82H320.872L321.952 20H334.762V23.9H326.002L325.672 27.89H327.382ZM353.474 40.22C353.014 40.56 352.444 40.82 351.764 41C351.104 41.16 350.404 41.24 349.664 41.24C347.744 41.24 346.254 40.75 345.194 39.77C344.154 38.79 343.634 37.35 343.634 35.45V28.82H341.144V25.22H343.634V21.29H348.314V25.22H352.334V28.82H348.314V35.39C348.314 36.07 348.484 36.6 348.824 36.98C349.184 37.34 349.684 37.52 350.324 37.52C351.064 37.52 351.694 37.32 352.214 36.92L353.474 40.22ZM369.961 24.62C371.961 24.62 373.571 25.22 374.791 26.42C376.031 27.62 376.651 29.4 376.651 31.76V41H371.971V32.48C371.971 31.2 371.691 30.25 371.131 29.63C370.571 28.99 369.761 28.67 368.701 28.67C367.521 28.67 366.581 29.04 365.881 29.78C365.181 30.5 364.831 31.58 364.831 33.02V41H360.151V18.74H364.831V26.54C365.451 25.92 366.201 25.45 367.081 25.13C367.961 24.79 368.921 24.62 369.961 24.62ZM318.456 78.36C316.276 78.36 314.306 77.89 312.546 76.95C310.806 76.01 309.436 74.72 308.436 73.08C307.456 71.42 306.966 69.56 306.966 67.5C306.966 65.44 307.456 63.59 308.436 61.95C309.436 60.29 310.806 58.99 312.546 58.05C314.306 57.11 316.276 56.64 318.456 56.64C320.636 56.64 322.596 57.11 324.336 58.05C326.076 58.99 327.446 60.29 328.446 61.95C329.446 63.59 329.946 65.44 329.946 67.5C329.946 69.56 329.446 71.42 328.446 73.08C327.446 74.72 326.076 76.01 324.336 76.95C322.596 77.89 320.636 78.36 318.456 78.36ZM318.456 74.22C319.696 74.22 320.816 73.94 321.816 73.38C322.816 72.8 323.596 72 324.156 70.98C324.736 69.96 325.026 68.8 325.026 67.5C325.026 66.2 324.736 65.04 324.156 64.02C323.596 63 322.816 62.21 321.816 61.65C320.816 61.07 319.696 60.78 318.456 60.78C317.216 60.78 316.096 61.07 315.096 61.65C314.096 62.21 313.306 63 312.726 64.02C312.166 65.04 311.886 66.2 311.886 67.5C311.886 68.8 312.166 69.96 312.726 70.98C313.306 72 314.096 72.8 315.096 73.38C316.096 73.94 317.216 74.22 318.456 74.22ZM345.118 78.24C343.398 78.24 341.848 77.89 340.468 77.19C339.108 76.47 338.038 75.48 337.258 74.22C336.498 72.96 336.118 71.53 336.118 69.93C336.118 68.33 336.498 66.9 337.258 65.64C338.038 64.38 339.108 63.4 340.468 62.7C341.848 61.98 343.398 61.62 345.118 61.62C346.818 61.62 348.298 61.98 349.558 62.7C350.838 63.4 351.768 64.41 352.348 65.73L348.718 67.68C347.878 66.2 346.668 65.46 345.088 65.46C343.868 65.46 342.858 65.86 342.058 66.66C341.258 67.46 340.858 68.55 340.858 69.93C340.858 71.31 341.258 72.4 342.058 73.2C342.858 74 343.868 74.4 345.088 74.4C346.688 74.4 347.898 73.66 348.718 72.18L352.348 74.16C351.768 75.44 350.838 76.44 349.558 77.16C348.298 77.88 346.818 78.24 345.118 78.24ZM369.737 77.22C369.277 77.56 368.707 77.82 368.027 78C367.367 78.16 366.667 78.24 365.927 78.24C364.007 78.24 362.517 77.75 361.457 76.77C360.417 75.79 359.897 74.35 359.897 72.45V65.82H357.407V62.22H359.897V58.29H364.577V62.22H368.597V65.82H364.577V72.39C364.577 73.07 364.747 73.6 365.087 73.98C365.447 74.34 365.947 74.52 366.587 74.52C367.327 74.52 367.957 74.32 368.477 73.92L369.737 77.22ZM331.705 94L324.835 115H319.615L314.995 100.78L310.225 115H305.035L298.135 94H303.175L307.915 108.76L312.865 94H317.365L322.165 108.88L327.055 94H331.705ZM352.747 106.99C352.747 107.05 352.717 107.47 352.657 108.25H340.447C340.667 109.25 341.187 110.04 342.007 110.62C342.827 111.2 343.847 111.49 345.067 111.49C345.907 111.49 346.647 111.37 347.287 111.13C347.947 110.87 348.557 110.47 349.117 109.93L351.607 112.63C350.087 114.37 347.867 115.24 344.947 115.24C343.127 115.24 341.517 114.89 340.117 114.19C338.717 113.47 337.637 112.48 336.877 111.22C336.117 109.96 335.737 108.53 335.737 106.93C335.737 105.35 336.107 103.93 336.847 102.67C337.607 101.39 338.637 100.4 339.937 99.7C341.257 98.98 342.727 98.62 344.347 98.62C345.927 98.62 347.357 98.96 348.637 99.64C349.917 100.32 350.917 101.3 351.637 102.58C352.377 103.84 352.747 105.31 352.747 106.99ZM344.377 102.16C343.317 102.16 342.427 102.46 341.707 103.06C340.987 103.66 340.547 104.48 340.387 105.52H348.337C348.177 104.5 347.737 103.69 347.017 103.09C346.297 102.47 345.417 102.16 344.377 102.16ZM376.353 92.74V115H371.883V113.14C370.723 114.54 369.043 115.24 366.843 115.24C365.323 115.24 363.943 114.9 362.703 114.22C361.483 113.54 360.523 112.57 359.823 111.31C359.123 110.05 358.773 108.59 358.773 106.93C358.773 105.27 359.123 103.81 359.823 102.55C360.523 101.29 361.483 100.32 362.703 99.64C363.943 98.96 365.323 98.62 366.843 98.62C368.903 98.62 370.513 99.27 371.673 100.57V92.74H376.353ZM367.653 111.4C368.833 111.4 369.813 111 370.593 110.2C371.373 109.38 371.763 108.29 371.763 106.93C371.763 105.57 371.373 104.49 370.593 103.69C369.813 102.87 368.833 102.46 367.653 102.46C366.453 102.46 365.463 102.87 364.683 103.69C363.903 104.49 363.513 105.57 363.513 106.93C363.513 108.29 363.903 109.38 364.683 110.2C365.463 111 366.453 111.4 367.653 111.4Z" fill="#FFD54F"/>
<defs>
<filter id="filter0_bd" x="-77.97" y="64.0377" width="561.07" height="386.481" filterUnits="userSpaceOnUse" color-interpolation-filters="sRGB">
<feFlood flood-opacity="0" result="BackgroundImageFix"/>
<feGaussianBlur in="BackgroundImage" stdDeviation="50"/>
<feComposite in2="SourceAlpha" operator="in" result="effect1_backgroundBlur"/>
<feColorMatrix in="SourceAlpha" type="matrix" values="0 0 0 0 0 0 0 0 0 0 0 0 0 0 0 0 0 0 127 0"/>
<feOffset dy="4"/>
<feGaussianBlur stdDeviation="12"/>
<feColorMatrix type="matrix" values="0 0 0 0 0 0 0 0 0 0 0 0 0 0 0 0 0 0 0.3 0"/>
<feBlend mode="normal" in2="effect1_backgroundBlur" result="effect2_dropShadow"/>
<feBlend mode="normal" in="SourceGraphic" in2="effect2_dropShadow" result="shape"/>
</filter>
<filter id="filter1_d" x="24" y="165" width="100.674" height="107.864" filterUnits="userSpaceOnUse" color-interpolation-filters="sRGB">
<feFlood flood-opacity="0" result="BackgroundImageFix"/>
<feColorMatrix in="SourceAlpha" type="matrix" values="0 0 0 0 0 0 0 0 0 0 0 0 0 0 0 0 0 0 127 0"/>
<feOffset/>
<feGaussianBlur stdDeviation="10"/>
<feColorMatrix type="matrix" values="0 0 0 0 0 0 0 0 0 0.88 0 0 0 0 1 0 0 0 1 0"/>
<feBlend mode="normal" in2="BackgroundImageFix" result="effect1_dropShadow"/>
<feBlend mode="normal" in="SourceGraphic" in2="effect1_dropShadow" result="shape"/>
</filter>
<filter id="filter2_d" x="27.301" y="184.7" width="91.6942" height="62.8" filterUnits="userSpaceOnUse" color-interpolation-filters="sRGB">
<feFlood flood-opacity="0" result="BackgroundImageFix"/>
<feColorMatrix in="SourceAlpha" type="matrix" values="0 0 0 0 0 0 0 0 0 0 0 0 0 0 0 0 0 0 127 0"/>
<feOffset/>
<feGaussianBlur stdDeviation="10"/>
<feColorMatrix type="matrix" values="0 0 0 0 0 0 0 0 0 0.88 0 0 0 0 1 0 0 0 1 0"/>
<feBlend mode="normal" in2="BackgroundImageFix" result="effect1_dropShadow"/>
<feBlend mode="normal" in="SourceGraphic" in2="effect1_dropShadow" result="shape"/>
</filter>
<linearGradient id="paint0_linear" x1="121.034" y1="0.0291626" x2="229.857" y2="176.36" gradientUnits="userSpaceOnUse">
<stop stop-color="white" stop-opacity="0.86"/>
<stop offset="1" stop-color="white" stop-opacity="0.1"/>
<stop offset="1" stop-color="white"/>
</linearGradient>
<linearGradient id="paint1_linear" x1="132.94" y1="0.0142214" x2="290.585" y2="168.81" gradientUnits="userSpaceOnUse">
<stop stop-color="#FFFEFE" stop-opacity="0.8"/>
<stop offset="1" stop-color="#FFFEFE" stop-opacity="0.2"/>
</linearGradient>
<linearGradient id="paint2_linear" x1="206" y1="522" x2="206" y2="832" gradientUnits="userSpaceOnUse">
<stop stop-color="#FFD600"/>
<stop offset="1" stop-color="#C4C4C4" stop-opacity="0"/>
</linearGradient>
<clipPath id="clip0">
<rect width="66.4235" height="66.4652" fill="white" transform="translate(289.32 304.535)"/>
</clipPath>
</defs>
</svg>
