<svg width="414" height="896" viewBox="0 0 414 896" fill="none" xmlns="http://www.w3.org/2000/svg">
<g clip-path="url(#clip0)">
<rect x="5" y="5" width="404" height="886" rx="25" fill="url(#paint0_linear)"/>
<rect x="26" y="36" width="254" height="138" rx="30" fill="#00B9D2" fill-opacity="0.9"/>
<path d="M58.72 86V100H54.76V94.54H49.36V100H45.4V86H49.36V91.26H54.76V86H58.72ZM75.1133 94.6C75.1133 94.6267 75.0933 94.94 75.0533 95.54H67.1733C67.3333 96.1 67.6399 96.5333 68.0933 96.84C68.5599 97.1333 69.1399 97.28 69.8333 97.28C70.3533 97.28 70.7999 97.2067 71.1733 97.06C71.5599 96.9133 71.9466 96.6733 72.3333 96.34L74.3333 98.42C73.2799 99.5933 71.7399 100.18 69.7133 100.18C68.4466 100.18 67.3333 99.94 66.3733 99.46C65.4133 98.98 64.6666 98.3133 64.1333 97.46C63.6133 96.6067 63.3533 95.64 63.3533 94.56C63.3533 93.4933 63.6066 92.54 64.1133 91.7C64.6333 90.8467 65.3466 90.18 66.2533 89.7C67.1599 89.22 68.1799 88.98 69.3133 88.98C70.3933 88.98 71.3733 89.2067 72.2533 89.66C73.1333 90.1 73.8266 90.7467 74.3333 91.6C74.8533 92.44 75.1133 93.44 75.1133 94.6ZM69.3333 91.68C68.7466 91.68 68.2533 91.8467 67.8533 92.18C67.4666 92.5133 67.2199 92.9667 67.1133 93.54H71.5533C71.4466 92.9667 71.1933 92.5133 70.7933 92.18C70.4066 91.8467 69.9199 91.68 69.3333 91.68ZM79.5653 85.16H83.3653V100H79.5653V85.16ZM88.5348 85.16H92.3348V100H88.5348V85.16ZM97.5044 85.16H101.304V100H97.5044V85.16ZM111.914 100.18C110.754 100.18 109.707 99.94 108.774 99.46C107.841 98.98 107.107 98.3133 106.574 97.46C106.054 96.6067 105.794 95.64 105.794 94.56C105.794 93.4933 106.054 92.5333 106.574 91.68C107.107 90.8267 107.834 90.1667 108.754 89.7C109.687 89.22 110.741 88.98 111.914 88.98C113.087 88.98 114.141 89.22 115.074 89.7C116.007 90.1667 116.734 90.8267 117.254 91.68C117.774 92.52 118.034 93.48 118.034 94.56C118.034 95.64 117.774 96.6067 117.254 97.46C116.734 98.3133 116.007 98.98 115.074 99.46C114.141 99.94 113.087 100.18 111.914 100.18ZM111.914 97.16C112.581 97.16 113.127 96.9333 113.554 96.48C113.981 96.0133 114.194 95.3733 114.194 94.56C114.194 93.76 113.981 93.1333 113.554 92.68C113.127 92.2267 112.581 92 111.914 92C111.247 92 110.701 92.2267 110.274 92.68C109.847 93.1333 109.634 93.76 109.634 94.56C109.634 95.3733 109.847 96.0133 110.274 96.48C110.701 96.9333 111.247 97.16 111.914 97.16ZM134.255 100.28C133.228 100.28 132.295 100.107 131.455 99.76C130.615 99.4 129.928 98.8867 129.395 98.22L131.555 95.66C132.301 96.6333 133.108 97.12 133.975 97.12C134.548 97.12 134.981 96.9467 135.275 96.6C135.581 96.2533 135.735 95.7467 135.735 95.08V89.06H130.895V86H139.655V94.84C139.655 96.6533 139.195 98.0133 138.275 98.92C137.368 99.8267 136.028 100.28 134.255 100.28ZM150.287 100.18C149.127 100.18 148.081 99.94 147.147 99.46C146.214 98.98 145.481 98.3133 144.947 97.46C144.427 96.6067 144.167 95.64 144.167 94.56C144.167 93.4933 144.427 92.5333 144.947 91.68C145.481 90.8267 146.207 90.1667 147.127 89.7C148.061 89.22 149.114 88.98 150.287 88.98C151.461 88.98 152.514 89.22 153.447 89.7C154.381 90.1667 155.107 90.8267 155.627 91.68C156.147 92.52 156.407 93.48 156.407 94.56C156.407 95.64 156.147 96.6067 155.627 97.46C155.107 98.3133 154.381 98.98 153.447 99.46C152.514 99.94 151.461 100.18 150.287 100.18ZM150.287 97.16C150.954 97.16 151.501 96.9333 151.927 96.48C152.354 96.0133 152.567 95.3733 152.567 94.56C152.567 93.76 152.354 93.1333 151.927 92.68C151.501 92.2267 150.954 92 150.287 92C149.621 92 149.074 92.2267 148.647 92.68C148.221 93.1333 148.007 93.76 148.007 94.56C148.007 95.3733 148.221 96.0133 148.647 96.48C149.074 96.9333 149.621 97.16 150.287 97.16ZM167.928 88.98C169.274 88.98 170.354 89.38 171.168 90.18C171.994 90.98 172.408 92.1867 172.408 93.8V100H168.608V94.42C168.608 92.94 168.014 92.2 166.828 92.2C166.174 92.2 165.648 92.4133 165.248 92.84C164.861 93.2667 164.668 93.9067 164.668 94.76V100H160.868V85.16H164.668V90.16C165.081 89.7733 165.568 89.48 166.128 89.28C166.688 89.08 167.288 88.98 167.928 88.98ZM184.553 88.98C185.9 88.98 186.98 89.38 187.793 90.18C188.62 90.98 189.033 92.1867 189.033 93.8V100H185.233V94.42C185.233 92.94 184.64 92.2 183.453 92.2C182.8 92.2 182.273 92.4133 181.873 92.84C181.487 93.2667 181.293 93.9067 181.293 94.76V100H177.493V89.16H181.113V90.34C181.54 89.9 182.047 89.5667 182.633 89.34C183.22 89.1 183.86 88.98 184.553 88.98Z" fill="#97F3FF" fill-opacity="0.9"/>
<path d="M235 77.75C233.022 77.75 231.089 78.3273 229.444 79.409C227.8 80.4906 226.518 82.028 225.761 83.8267C225.004 85.6254 224.806 87.6047 225.192 89.5142C225.578 91.4237 226.53 93.1777 227.929 94.5543C229.327 95.931 231.109 96.8685 233.049 97.2484C234.989 97.6282 237 97.4332 238.827 96.6882C240.654 95.9431 242.216 94.6814 243.315 93.0626C244.414 91.4438 245 89.5407 245 87.5938C245 84.983 243.946 82.4792 242.071 80.6332C240.196 78.7871 237.652 77.75 235 77.75ZM235 93.5C233.813 93.5 232.653 93.1536 231.667 92.5046C230.68 91.8556 229.911 90.9332 229.457 89.854C229.003 88.7747 228.884 87.5872 229.115 86.4415C229.347 85.2958 229.918 84.2434 230.757 83.4174C231.596 82.5914 232.666 82.0289 233.829 81.801C234.993 81.5731 236.2 81.6901 237.296 82.1371C238.392 82.5841 239.33 83.3411 239.989 84.3124C240.648 85.2837 241 86.4256 241 87.5938C240.998 89.1597 240.366 90.6611 239.241 91.7684C238.116 92.8757 236.591 93.4984 235 93.5Z" fill="#E3E3E3"/>
<path d="M235 65.9375C229.462 65.9375 224.049 67.554 219.444 70.5826C214.839 73.6112 211.251 77.9159 209.131 82.9523C207.012 87.9887 206.458 93.5306 207.538 98.8772C208.618 104.224 211.285 109.135 215.201 112.99C219.117 116.844 224.106 119.469 229.537 120.533C234.969 121.596 240.599 121.051 245.715 118.964C250.831 116.878 255.204 113.346 258.281 108.813C261.358 104.28 263 98.9513 263 93.5C262.992 86.1925 260.039 79.1867 254.79 74.0196C249.54 68.8524 242.423 65.9458 235 65.9375ZM223 113.93V111.219C223.002 109.653 223.634 108.151 224.759 107.044C225.884 105.937 227.409 105.314 229 105.312H241C242.591 105.314 244.116 105.937 245.241 107.044C246.366 108.151 246.998 109.653 247 111.219V113.93C243.358 116.023 239.217 117.126 235 117.126C230.783 117.126 226.642 116.023 223 113.93ZM250.984 111.073C250.944 108.491 249.875 106.027 248.008 104.213C246.14 102.399 243.624 101.38 241 101.375H229C226.376 101.38 223.86 102.399 221.992 104.213C220.125 106.027 219.056 108.491 219.016 111.073C215.389 107.885 212.831 103.688 211.682 99.0374C210.532 94.3868 210.844 89.5021 212.577 85.0302C214.31 80.5582 217.382 76.7098 221.387 73.9947C225.391 71.2796 230.139 69.8258 235.001 69.8258C239.863 69.8258 244.611 71.2796 248.615 73.9947C252.62 76.7098 255.692 80.5582 257.425 85.0302C259.158 89.5021 259.47 94.3868 258.32 99.0374C257.171 103.688 254.613 107.885 250.986 111.073H250.984Z" fill="#EDEDED"/>
<g filter="url(#filter0_bd)">
<rect width="360.943" height="186.103" rx="30" transform="matrix(0.999999 0.00125635 -0.00100786 0.999999 22.1873 200)" fill="url(#paint1_linear)" fill-opacity="0.23"/>
<rect x="0.499496" y="0.500628" width="359.943" height="185.103" rx="29.5" transform="matrix(0.999999 0.00125635 -0.00100786 0.999999 22.1878 199.999)" stroke="url(#paint2_linear)"/>
</g>
<g filter="url(#filter1_d)">
<path d="M102.174 254.932C102.174 272.562 89.4547 286.364 74.3368 286.364C59.2189 286.364 46.5 272.562 46.5 254.932C46.5 237.302 59.2189 223.5 74.3368 223.5C89.4547 223.5 102.174 237.302 102.174 254.932Z" stroke="#00E0FF" stroke-width="5"/>
</g>
<g filter="url(#filter2_d)">
<path d="M47.3011 249.46H61.6711V247.42H47.3011V249.46ZM47.3011 256.66H61.6711V254.62H47.3011V256.66ZM74.4418 263.5C77.4118 263.5 79.8418 262.42 81.2518 260.95V251.71H74.0518V254.02H78.7018V259.78C77.8318 260.59 76.3018 261.07 74.7418 261.07C70.0018 261.07 67.3918 257.59 67.3918 252.04C67.3918 246.55 70.2718 243.13 74.6818 243.13C76.9318 243.13 78.3418 244.06 79.4518 245.23L80.9518 243.43C79.6918 242.08 77.6818 240.7 74.6218 240.7C68.8018 240.7 64.5418 245.02 64.5418 252.13C64.5418 259.27 68.6818 263.5 74.4418 263.5ZM84.6254 249.46H98.9954V247.42H84.6254V249.46ZM84.6254 256.66H98.9954V254.62H84.6254V256.66Z" fill="#00E0FF" fill-opacity="0.9"/>
</g>
<path d="M243.839 236.75H244.904V240.755C244.414 241.185 243.834 241.515 243.164 241.745C242.494 241.975 241.789 242.09 241.049 242.09C239.999 242.09 239.054 241.86 238.214 241.4C237.374 240.94 236.714 240.305 236.234 239.495C235.754 238.675 235.514 237.76 235.514 236.75C235.514 235.74 235.754 234.83 236.234 234.02C236.714 233.2 237.374 232.56 238.214 232.1C239.054 231.64 240.004 231.41 241.064 231.41C241.864 231.41 242.599 231.54 243.269 231.8C243.939 232.05 244.504 232.425 244.964 232.925L244.274 233.63C243.444 232.81 242.389 232.4 241.109 232.4C240.259 232.4 239.489 232.59 238.799 232.97C238.119 233.34 237.584 233.86 237.194 234.53C236.804 235.19 236.609 235.93 236.609 236.75C236.609 237.57 236.804 238.31 237.194 238.97C237.584 239.63 238.119 240.15 238.799 240.53C239.479 240.91 240.244 241.1 241.094 241.1C242.174 241.1 243.089 240.83 243.839 240.29V236.75ZM254.63 242.09C253.59 242.09 252.65 241.86 251.81 241.4C250.98 240.94 250.325 240.305 249.845 239.495C249.375 238.675 249.14 237.76 249.14 236.75C249.14 235.74 249.375 234.83 249.845 234.02C250.325 233.2 250.985 232.56 251.825 232.1C252.665 231.64 253.605 231.41 254.645 231.41C255.425 231.41 256.145 231.54 256.805 231.8C257.465 232.06 258.025 232.44 258.485 232.94L257.78 233.645C256.96 232.815 255.925 232.4 254.675 232.4C253.845 232.4 253.09 232.59 252.41 232.97C251.73 233.35 251.195 233.87 250.805 234.53C250.425 235.19 250.235 235.93 250.235 236.75C250.235 237.57 250.425 238.31 250.805 238.97C251.195 239.63 251.73 240.15 252.41 240.53C253.09 240.91 253.845 241.1 254.675 241.1C255.935 241.1 256.97 240.68 257.78 239.84L258.485 240.545C258.025 241.045 257.46 241.43 256.79 241.7C256.13 241.96 255.41 242.09 254.63 242.09ZM279.732 231.5V242H278.667V233.6L274.542 240.665H274.017L269.892 233.645V242H268.827V231.5H269.742L274.302 239.285L278.817 231.5H279.732ZM292.604 241.04V242H285.179V231.5H292.379V232.46H286.289V236.195H291.719V237.14H286.289V241.04H292.604ZM308.143 231.5V242H307.078V233.6L302.953 240.665H302.428L298.303 233.645V242H297.238V231.5H298.153L302.713 239.285L307.228 231.5H308.143ZM320.204 236.585C320.894 236.735 321.424 237.035 321.794 237.485C322.174 237.925 322.364 238.495 322.364 239.195C322.364 240.095 322.029 240.79 321.359 241.28C320.699 241.76 319.719 242 318.419 242H313.589V231.5H318.119C319.289 231.5 320.194 231.735 320.834 232.205C321.484 232.675 321.809 233.34 321.809 234.2C321.809 234.78 321.664 235.275 321.374 235.685C321.094 236.085 320.704 236.385 320.204 236.585ZM314.699 232.415V236.225H318.044C318.894 236.225 319.549 236.065 320.009 235.745C320.469 235.415 320.699 234.94 320.699 234.32C320.699 233.7 320.469 233.23 320.009 232.91C319.549 232.58 318.894 232.415 318.044 232.415H314.699ZM318.404 241.085C319.344 241.085 320.054 240.925 320.534 240.605C321.014 240.285 321.254 239.785 321.254 239.105C321.254 237.795 320.304 237.14 318.404 237.14H314.699V241.085H318.404ZM334.348 241.04V242H326.923V231.5H334.123V232.46H328.033V236.195H333.463V237.14H328.033V241.04H334.348ZM346.152 242L343.752 238.625C343.482 238.655 343.202 238.67 342.912 238.67H340.092V242H338.982V231.5H342.912C344.252 231.5 345.302 231.82 346.062 232.46C346.822 233.1 347.202 233.98 347.202 235.1C347.202 235.92 346.992 236.615 346.572 237.185C346.162 237.745 345.572 238.15 344.802 238.4L347.367 242H346.152ZM342.882 237.725C343.922 237.725 344.717 237.495 345.267 237.035C345.817 236.575 346.092 235.93 346.092 235.1C346.092 234.25 345.817 233.6 345.267 233.15C344.717 232.69 343.922 232.46 342.882 232.46H340.092V237.725H342.882Z" fill="white"/>
<g style="mix-blend-mode:overlay">
<path d="M56.95 334.04V335H49.585V334.235L53.95 329.96C54.5 329.42 54.87 328.955 55.06 328.565C55.26 328.165 55.36 327.765 55.36 327.365C55.36 326.745 55.145 326.265 54.715 325.925C54.295 325.575 53.69 325.4 52.9 325.4C51.67 325.4 50.715 325.79 50.035 326.57L49.27 325.91C49.68 325.43 50.2 325.06 50.83 324.8C51.47 324.54 52.19 324.41 52.99 324.41C54.06 324.41 54.905 324.665 55.525 325.175C56.155 325.675 56.47 326.365 56.47 327.245C56.47 327.785 56.35 328.305 56.11 328.805C55.87 329.305 55.415 329.88 54.745 330.53L51.175 334.04H56.95ZM64.2154 328.805C65.7354 328.805 66.8404 329.08 67.5304 329.63C68.2304 330.17 68.5804 330.93 68.5804 331.91C68.5804 332.52 68.4354 333.065 68.1454 333.545C67.8654 334.025 67.4404 334.405 66.8704 334.685C66.3004 334.955 65.6004 335.09 64.7704 335.09C64.0204 335.09 63.3054 334.97 62.6254 334.73C61.9554 334.48 61.4154 334.15 61.0054 333.74L61.5304 332.885C61.8804 333.245 62.3404 333.54 62.9104 333.77C63.4804 333.99 64.0954 334.1 64.7554 334.1C65.6254 334.1 66.2954 333.905 66.7654 333.515C67.2454 333.125 67.4854 332.605 67.4854 331.955C67.4854 331.235 67.2154 330.69 66.6754 330.32C66.1454 329.95 65.2454 329.765 63.9754 329.765H61.7404L62.2804 324.5H68.0254V325.46H63.2254L62.8654 328.805H64.2154ZM76.0115 324.5V335H74.9315V325.46H72.4565V324.5H76.0115ZM85.8564 335.09C85.0464 335.09 84.3214 334.875 83.6814 334.445C83.0514 334.015 82.5564 333.4 82.1964 332.6C81.8464 331.79 81.6714 330.84 81.6714 329.75C81.6714 328.66 81.8464 327.715 82.1964 326.915C82.5564 326.105 83.0514 325.485 83.6814 325.055C84.3214 324.625 85.0464 324.41 85.8564 324.41C86.6664 324.41 87.3864 324.625 88.0164 325.055C88.6564 325.485 89.1564 326.105 89.5164 326.915C89.8764 327.715 90.0564 328.66 90.0564 329.75C90.0564 330.84 89.8764 331.79 89.5164 332.6C89.1564 333.4 88.6564 334.015 88.0164 334.445C87.3864 334.875 86.6664 335.09 85.8564 335.09ZM85.8564 334.1C86.4664 334.1 87.0014 333.93 87.4614 333.59C87.9314 333.25 88.2964 332.755 88.5564 332.105C88.8164 331.455 88.9464 330.67 88.9464 329.75C88.9464 328.83 88.8164 328.045 88.5564 327.395C88.2964 326.745 87.9314 326.25 87.4614 325.91C87.0014 325.57 86.4664 325.4 85.8564 325.4C85.2464 325.4 84.7064 325.57 84.2364 325.91C83.7764 326.25 83.4164 326.745 83.1564 327.395C82.8964 328.045 82.7664 328.83 82.7664 329.75C82.7664 330.67 82.8964 331.455 83.1564 332.105C83.4164 332.755 83.7764 333.25 84.2364 333.59C84.7064 333.93 85.2464 334.1 85.8564 334.1ZM106.014 335.09C105.204 335.09 104.479 334.875 103.839 334.445C103.209 334.015 102.714 333.4 102.354 332.6C102.004 331.79 101.829 330.84 101.829 329.75C101.829 328.66 102.004 327.715 102.354 326.915C102.714 326.105 103.209 325.485 103.839 325.055C104.479 324.625 105.204 324.41 106.014 324.41C106.824 324.41 107.544 324.625 108.174 325.055C108.814 325.485 109.314 326.105 109.674 326.915C110.034 327.715 110.214 328.66 110.214 329.75C110.214 330.84 110.034 331.79 109.674 332.6C109.314 333.4 108.814 334.015 108.174 334.445C107.544 334.875 106.824 335.09 106.014 335.09ZM106.014 334.1C106.624 334.1 107.159 333.93 107.619 333.59C108.089 333.25 108.454 332.755 108.714 332.105C108.974 331.455 109.104 330.67 109.104 329.75C109.104 328.83 108.974 328.045 108.714 327.395C108.454 326.745 108.089 326.25 107.619 325.91C107.159 325.57 106.624 325.4 106.014 325.4C105.404 325.4 104.864 325.57 104.394 325.91C103.934 326.25 103.574 326.745 103.314 327.395C103.054 328.045 102.924 328.83 102.924 329.75C102.924 330.67 103.054 331.455 103.314 332.105C103.574 332.755 103.934 333.25 104.394 333.59C104.864 333.93 105.404 334.1 106.014 334.1ZM123.835 332.24H121.735V335H120.655V332.24H114.73V331.46L120.295 324.5H121.495L116.125 331.28H120.685V328.85H121.735V331.28H123.835V332.24ZM135.089 334.04V335H127.724V334.235L132.089 329.96C132.639 329.42 133.009 328.955 133.199 328.565C133.399 328.165 133.499 327.765 133.499 327.365C133.499 326.745 133.284 326.265 132.854 325.925C132.434 325.575 131.829 325.4 131.039 325.4C129.809 325.4 128.854 325.79 128.174 326.57L127.409 325.91C127.819 325.43 128.339 325.06 128.969 324.8C129.609 324.54 130.329 324.41 131.129 324.41C132.199 324.41 133.044 324.665 133.664 325.175C134.294 325.675 134.609 326.365 134.609 327.245C134.609 327.785 134.489 328.305 134.249 328.805C134.009 329.305 133.554 329.88 132.884 330.53L129.314 334.04H135.089ZM143.721 335.09C142.911 335.09 142.186 334.875 141.546 334.445C140.916 334.015 140.421 333.4 140.061 332.6C139.711 331.79 139.536 330.84 139.536 329.75C139.536 328.66 139.711 327.715 140.061 326.915C140.421 326.105 140.916 325.485 141.546 325.055C142.186 324.625 142.911 324.41 143.721 324.41C144.531 324.41 145.251 324.625 145.881 325.055C146.521 325.485 147.021 326.105 147.381 326.915C147.741 327.715 147.921 328.66 147.921 329.75C147.921 330.84 147.741 331.79 147.381 332.6C147.021 333.4 146.521 334.015 145.881 334.445C145.251 334.875 144.531 335.09 143.721 335.09ZM143.721 334.1C144.331 334.1 144.866 333.93 145.326 333.59C145.796 333.25 146.161 332.755 146.421 332.105C146.681 331.455 146.811 330.67 146.811 329.75C146.811 328.83 146.681 328.045 146.421 327.395C146.161 326.745 145.796 326.25 145.326 325.91C144.866 325.57 144.331 325.4 143.721 325.4C143.111 325.4 142.571 325.57 142.101 325.91C141.641 326.25 141.281 326.745 141.021 327.395C140.761 328.045 140.631 328.83 140.631 329.75C140.631 330.67 140.761 331.455 141.021 332.105C141.281 332.755 141.641 333.25 142.101 333.59C142.571 333.93 143.111 334.1 143.721 334.1ZM164.043 328.715C164.733 328.715 165.343 328.845 165.873 329.105C166.413 329.365 166.833 329.735 167.133 330.215C167.433 330.685 167.583 331.235 167.583 331.865C167.583 332.505 167.428 333.07 167.118 333.56C166.808 334.05 166.378 334.43 165.828 334.7C165.288 334.96 164.678 335.09 163.998 335.09C162.608 335.09 161.543 334.635 160.803 333.725C160.063 332.805 159.693 331.51 159.693 329.84C159.693 328.67 159.893 327.68 160.293 326.87C160.693 326.06 161.253 325.45 161.973 325.04C162.693 324.62 163.533 324.41 164.493 324.41C165.533 324.41 166.363 324.6 166.983 324.98L166.548 325.85C166.048 325.52 165.368 325.355 164.508 325.355C163.348 325.355 162.438 325.725 161.778 326.465C161.118 327.195 160.788 328.26 160.788 329.66C160.788 329.91 160.803 330.195 160.833 330.515C161.093 329.945 161.508 329.505 162.078 329.195C162.648 328.875 163.303 328.715 164.043 328.715ZM163.953 334.175C164.713 334.175 165.328 333.97 165.798 333.56C166.278 333.14 166.518 332.585 166.518 331.895C166.518 331.205 166.278 330.655 165.798 330.245C165.328 329.835 164.688 329.63 163.878 329.63C163.348 329.63 162.878 329.73 162.468 329.93C162.068 330.13 161.753 330.405 161.523 330.755C161.293 331.105 161.178 331.495 161.178 331.925C161.178 332.325 161.283 332.695 161.493 333.035C161.713 333.375 162.033 333.65 162.453 333.86C162.873 334.07 163.373 334.175 163.953 334.175ZM175.254 324.41C176.644 324.41 177.709 324.87 178.449 325.79C179.189 326.7 179.559 327.99 179.559 329.66C179.559 330.83 179.359 331.82 178.959 332.63C178.559 333.44 177.999 334.055 177.279 334.475C176.559 334.885 175.719 335.09 174.759 335.09C173.719 335.09 172.889 334.9 172.269 334.52L172.704 333.65C173.204 333.98 173.884 334.145 174.744 334.145C175.904 334.145 176.814 333.78 177.474 333.05C178.134 332.31 178.464 331.24 178.464 329.84C178.464 329.58 178.449 329.295 178.419 328.985C178.159 329.555 177.744 330 177.174 330.32C176.604 330.63 175.949 330.785 175.209 330.785C174.519 330.785 173.904 330.655 173.364 330.395C172.834 330.135 172.419 329.77 172.119 329.3C171.819 328.82 171.669 328.265 171.669 327.635C171.669 326.995 171.824 326.43 172.134 325.94C172.444 325.45 172.869 325.075 173.409 324.815C173.959 324.545 174.574 324.41 175.254 324.41ZM175.374 329.87C175.904 329.87 176.369 329.77 176.769 329.57C177.179 329.37 177.499 329.095 177.729 328.745C177.959 328.395 178.074 328.005 178.074 327.575C178.074 327.175 177.964 326.805 177.744 326.465C177.534 326.125 177.219 325.85 176.799 325.64C176.379 325.43 175.879 325.325 175.299 325.325C174.539 325.325 173.919 325.535 173.439 325.955C172.969 326.365 172.734 326.915 172.734 327.605C172.734 328.295 172.969 328.845 173.439 329.255C173.919 329.665 174.564 329.87 175.374 329.87ZM188.624 328.715C189.314 328.715 189.924 328.845 190.454 329.105C190.994 329.365 191.414 329.735 191.714 330.215C192.014 330.685 192.164 331.235 192.164 331.865C192.164 332.505 192.009 333.07 191.699 333.56C191.389 334.05 190.959 334.43 190.409 334.7C189.869 334.96 189.259 335.09 188.579 335.09C187.189 335.09 186.124 334.635 185.384 333.725C184.644 332.805 184.274 331.51 184.274 329.84C184.274 328.67 184.474 327.68 184.874 326.87C185.274 326.06 185.834 325.45 186.554 325.04C187.274 324.62 188.114 324.41 189.074 324.41C190.114 324.41 190.944 324.6 191.564 324.98L191.129 325.85C190.629 325.52 189.949 325.355 189.089 325.355C187.929 325.355 187.019 325.725 186.359 326.465C185.699 327.195 185.369 328.26 185.369 329.66C185.369 329.91 185.384 330.195 185.414 330.515C185.674 329.945 186.089 329.505 186.659 329.195C187.229 328.875 187.884 328.715 188.624 328.715ZM188.534 334.175C189.294 334.175 189.909 333.97 190.379 333.56C190.859 333.14 191.099 332.585 191.099 331.895C191.099 331.205 190.859 330.655 190.379 330.245C189.909 329.835 189.269 329.63 188.459 329.63C187.929 329.63 187.459 329.73 187.049 329.93C186.649 330.13 186.334 330.405 186.104 330.755C185.874 331.105 185.759 331.495 185.759 331.925C185.759 332.325 185.864 332.695 186.074 333.035C186.294 333.375 186.614 333.65 187.034 333.86C187.454 334.07 187.954 334.175 188.534 334.175ZM199.835 324.41C201.225 324.41 202.29 324.87 203.03 325.79C203.77 326.7 204.14 327.99 204.14 329.66C204.14 330.83 203.94 331.82 203.54 332.63C203.14 333.44 202.58 334.055 201.86 334.475C201.14 334.885 200.3 335.09 199.34 335.09C198.3 335.09 197.47 334.9 196.85 334.52L197.285 333.65C197.785 333.98 198.465 334.145 199.325 334.145C200.485 334.145 201.395 333.78 202.055 333.05C202.715 332.31 203.045 331.24 203.045 329.84C203.045 329.58 203.03 329.295 203 328.985C202.74 329.555 202.325 330 201.755 330.32C201.185 330.63 200.53 330.785 199.79 330.785C199.1 330.785 198.485 330.655 197.945 330.395C197.415 330.135 197 329.77 196.7 329.3C196.4 328.82 196.25 328.265 196.25 327.635C196.25 326.995 196.405 326.43 196.715 325.94C197.025 325.45 197.45 325.075 197.99 324.815C198.54 324.545 199.155 324.41 199.835 324.41ZM199.955 329.87C200.485 329.87 200.95 329.77 201.35 329.57C201.76 329.37 202.08 329.095 202.31 328.745C202.54 328.395 202.655 328.005 202.655 327.575C202.655 327.175 202.545 326.805 202.325 326.465C202.115 326.125 201.8 325.85 201.38 325.64C200.96 325.43 200.46 325.325 199.88 325.325C199.12 325.325 198.5 325.535 198.02 325.955C197.55 326.365 197.315 326.915 197.315 327.605C197.315 328.295 197.55 328.845 198.02 329.255C198.5 329.665 199.145 329.87 199.955 329.87Z" fill="white"/>
</g>
<g style="mix-blend-mode:overlay">
<path d="M53.78 367.12C52.98 367.12 52.24 366.947 51.56 366.6C50.88 366.253 50.3267 365.76 49.9 365.12L50.78 364.12C51.5533 365.267 52.56 365.84 53.8 365.84C55.5333 365.84 56.4 364.813 56.4 362.76V354.28H51.28V353H57.86V362.7C57.86 364.167 57.5133 365.273 56.82 366.02C56.14 366.753 55.1267 367.12 53.78 367.12ZM72.6195 367.12C71.2329 367.12 69.9729 366.813 68.8395 366.2C67.7195 365.573 66.8395 364.72 66.1995 363.64C65.5729 362.56 65.2595 361.347 65.2595 360C65.2595 358.653 65.5729 357.44 66.1995 356.36C66.8395 355.28 67.7195 354.433 68.8395 353.82C69.9729 353.193 71.2329 352.88 72.6195 352.88C74.0062 352.88 75.2529 353.187 76.3595 353.8C77.4795 354.413 78.3595 355.267 78.9995 356.36C79.6395 357.44 79.9595 358.653 79.9595 360C79.9595 361.347 79.6395 362.567 78.9995 363.66C78.3595 364.74 77.4795 365.587 76.3595 366.2C75.2529 366.813 74.0062 367.12 72.6195 367.12ZM72.6195 365.8C73.7262 365.8 74.7262 365.553 75.6195 365.06C76.5129 364.553 77.2129 363.86 77.7195 362.98C78.2262 362.087 78.4795 361.093 78.4795 360C78.4795 358.907 78.2262 357.92 77.7195 357.04C77.2129 356.147 76.5129 355.453 75.6195 354.96C74.7262 354.453 73.7262 354.2 72.6195 354.2C71.5129 354.2 70.5062 354.453 69.5995 354.96C68.7062 355.453 67.9995 356.147 67.4795 357.04C66.9729 357.92 66.7195 358.907 66.7195 360C66.7195 361.093 66.9729 362.087 67.4795 362.98C67.9995 363.86 68.7062 364.553 69.5995 365.06C70.5062 365.553 71.5129 365.8 72.6195 365.8ZM99.1769 353V367H97.7169V360.54H88.9569V367H87.4769V353H88.9569V359.24H97.7169V353H99.1769ZM119.646 353V367H118.426L109.426 355.64V367H107.946V353H109.166L118.186 364.36V353H119.646ZM137.85 353H143.55C145.03 353 146.337 353.3 147.47 353.9C148.604 354.487 149.484 355.313 150.11 356.38C150.737 357.433 151.05 358.64 151.05 360C151.05 361.36 150.737 362.573 150.11 363.64C149.484 364.693 148.604 365.52 147.47 366.12C146.337 366.707 145.03 367 143.55 367H137.85V353ZM143.47 365.72C144.697 365.72 145.77 365.48 146.69 365C147.61 364.507 148.324 363.833 148.83 362.98C149.337 362.113 149.59 361.12 149.59 360C149.59 358.88 149.337 357.893 148.83 357.04C148.324 356.173 147.61 355.5 146.69 355.02C145.77 354.527 144.697 354.28 143.47 354.28H139.33V365.72H143.47ZM164.694 367.12C163.307 367.12 162.047 366.813 160.914 366.2C159.794 365.573 158.914 364.72 158.274 363.64C157.647 362.56 157.334 361.347 157.334 360C157.334 358.653 157.647 357.44 158.274 356.36C158.914 355.28 159.794 354.433 160.914 353.82C162.047 353.193 163.307 352.88 164.694 352.88C166.08 352.88 167.327 353.187 168.434 353.8C169.554 354.413 170.434 355.267 171.074 356.36C171.714 357.44 172.034 358.653 172.034 360C172.034 361.347 171.714 362.567 171.074 363.66C170.434 364.74 169.554 365.587 168.434 366.2C167.327 366.813 166.08 367.12 164.694 367.12ZM164.694 365.8C165.8 365.8 166.8 365.553 167.694 365.06C168.587 364.553 169.287 363.86 169.794 362.98C170.3 362.087 170.554 361.093 170.554 360C170.554 358.907 170.3 357.92 169.794 357.04C169.287 356.147 168.587 355.453 167.694 354.96C166.8 354.453 165.8 354.2 164.694 354.2C163.587 354.2 162.58 354.453 161.674 354.96C160.78 355.453 160.074 356.147 159.554 357.04C159.047 357.92 158.794 358.907 158.794 360C158.794 361.093 159.047 362.087 159.554 362.98C160.074 363.86 160.78 364.553 161.674 365.06C162.58 365.553 163.587 365.8 164.694 365.8ZM189.451 365.72V367H179.551V353H189.151V354.28H181.031V359.26H188.271V360.52H181.031V365.72H189.451Z" fill="white"/>
</g>
<g clip-path="url(#clip1)">
<path opacity="0.5" d="M341.244 357.695C339.958 357.226 338.598 356.991 337.228 357C332.8 357 329.673 359.232 329.651 362.437C329.623 364.791 331.873 366.117 333.575 366.904C335.322 367.712 335.906 368.222 335.9 368.945C335.889 370.044 334.505 370.543 333.218 370.543C331.45 370.543 330.484 370.296 328.998 369.679L328.447 369.421L327.818 373.11C328.895 373.558 330.835 373.943 332.839 373.977C337.547 373.977 340.624 371.758 340.66 368.349C340.699 366.469 339.481 365.048 336.919 363.874C335.36 363.112 334.394 362.603 334.394 361.83C334.394 361.146 335.222 360.415 336.952 360.415C338.103 360.387 339.247 360.603 340.309 361.049L340.724 361.235L341.352 357.67L341.244 357.695ZM352.736 357.299H349.276C348.199 357.299 347.389 357.596 346.918 358.665L340.265 373.747H344.972L345.913 371.274L351.659 371.279C351.795 371.858 352.21 373.747 352.21 373.747H356.361L352.736 357.299ZM323.282 357.161H327.769L324.962 373.617H320.481L323.282 357.155V357.161ZM311.893 366.231L312.358 368.515L316.742 357.299H321.494L314.434 373.725H309.693L305.818 359.817C305.756 359.587 305.608 359.39 305.406 359.266C304.01 358.544 302.53 357.996 301 357.634L301.061 357.288H308.282C309.261 357.327 310.05 357.634 310.313 358.681L311.891 366.239V366.231H311.893ZM347.2 367.909L348.988 363.306C348.966 363.356 349.356 362.356 349.583 361.739L349.89 363.159L350.928 367.906H347.198V367.909H347.2Z" fill="black"/>
</g>
<path d="M328.799 293.659V278.267C328.799 276.728 329.927 275.469 331.305 275.469H350.104C351.483 275.469 352.611 276.728 352.611 278.267V293.659C352.611 295.199 351.483 296.458 350.104 296.458H331.305C329.927 296.458 328.799 295.199 328.799 293.659Z" fill="#FF9800"/>
<path d="M352.611 283.864V282.465H345.091C344.402 282.465 343.838 281.836 343.838 281.066C343.838 280.296 344.402 279.667 345.091 279.667H345.718V278.267H345.091C343.713 278.267 342.585 279.527 342.585 281.066C342.585 282.605 343.713 283.864 345.091 283.864H346.971V288.062H345.091C343.337 288.062 341.958 289.601 341.958 291.56C341.958 293.519 343.337 295.059 345.091 295.059H346.345V293.659H345.091C344.026 293.659 343.212 292.75 343.212 291.56C343.212 290.371 344.026 289.462 345.091 289.462H352.611V288.062H348.225V283.864H352.611Z" fill="#FFD54F"/>
<path d="M336.318 288.062H334.439V283.864H336.318C337.697 283.864 338.825 282.605 338.825 281.066C338.825 279.527 337.697 278.267 336.318 278.267H334.439V279.667H336.318C337.008 279.667 337.572 280.296 337.572 281.066C337.572 281.836 337.008 282.465 336.318 282.465H328.799V283.864H333.185V288.062H328.799V289.462H336.318C337.384 289.462 338.198 290.371 338.198 291.56C338.198 292.75 337.384 293.659 336.318 293.659H335.065V295.059H336.318C338.073 295.059 339.452 293.519 339.452 291.56C339.452 289.601 338.073 288.062 336.318 288.062Z" fill="#FFD54F"/>
<rect x="26" y="448" width="278" height="62" rx="30" fill="#00B9D2" fill-opacity="0.9"/>
<path d="M224.682 470.9V487H220.128V474.419H217.138V470.9H224.682ZM238.442 476.742C239.454 476.742 240.382 476.957 241.225 477.386C242.069 477.8 242.736 478.398 243.226 479.18C243.732 479.947 243.985 480.828 243.985 481.825C243.985 482.914 243.702 483.88 243.134 484.723C242.582 485.551 241.823 486.195 240.857 486.655C239.907 487.1 238.841 487.322 237.66 487.322C235.36 487.322 233.543 486.64 232.209 485.275C230.875 483.91 230.208 481.948 230.208 479.387C230.208 477.547 230.561 475.968 231.266 474.649C231.987 473.315 232.991 472.303 234.279 471.613C235.567 470.923 237.062 470.578 238.764 470.578C239.684 470.578 240.558 470.678 241.386 470.877C242.214 471.076 242.92 471.368 243.502 471.751L241.846 475.017C241.064 474.465 240.075 474.189 238.879 474.189C237.714 474.189 236.771 474.511 236.05 475.155C235.33 475.799 234.916 476.727 234.808 477.938C235.728 477.141 236.94 476.742 238.442 476.742ZM237.384 484.079C238.028 484.079 238.55 483.895 238.948 483.527C239.362 483.159 239.569 482.661 239.569 482.032C239.569 481.419 239.362 480.928 238.948 480.56C238.55 480.192 238.021 480.008 237.361 480.008C236.702 480.008 236.165 480.2 235.751 480.583C235.337 480.951 235.13 481.442 235.13 482.055C235.13 482.653 235.33 483.144 235.728 483.527C236.142 483.895 236.694 484.079 237.384 484.079ZM250.935 487.207C250.199 487.207 249.578 486.962 249.072 486.471C248.566 485.98 248.313 485.359 248.313 484.608C248.313 483.841 248.559 483.22 249.049 482.745C249.555 482.27 250.184 482.032 250.935 482.032C251.702 482.032 252.331 482.27 252.821 482.745C253.312 483.22 253.557 483.841 253.557 484.608C253.557 485.359 253.304 485.98 252.798 486.471C252.308 486.962 251.687 487.207 250.935 487.207ZM270.761 483.389V487H258.226V484.148L264.252 478.513C264.834 477.961 265.225 477.493 265.425 477.11C265.624 476.711 265.724 476.313 265.724 475.914C265.724 475.393 265.547 474.986 265.195 474.695C264.842 474.404 264.328 474.258 263.654 474.258C263.056 474.258 262.504 474.396 261.998 474.672C261.507 474.933 261.101 475.316 260.779 475.822L257.398 473.936C258.026 472.893 258.908 472.073 260.043 471.475C261.177 470.877 262.519 470.578 264.068 470.578C265.294 470.578 266.375 470.777 267.311 471.176C268.261 471.575 268.997 472.15 269.519 472.901C270.055 473.637 270.324 474.496 270.324 475.477C270.324 476.351 270.132 477.179 269.749 477.961C269.381 478.728 268.66 479.602 267.587 480.583L264.551 483.389H270.761Z" fill="white"/>
<path d="M55.8 478.72C56.5733 478.973 57.1867 479.4 57.64 480C58.0933 480.587 58.32 481.32 58.32 482.2C58.32 483.413 57.8533 484.353 56.92 485.02C55.9867 485.673 54.6267 486 52.84 486H45.88V472H52.44C54.0933 472 55.3667 472.327 56.26 472.98C57.1533 473.62 57.6 474.507 57.6 475.64C57.6 476.333 57.44 476.947 57.12 477.48C56.8 478.013 56.36 478.427 55.8 478.72ZM48.48 474.04V477.9H52.16C53.0667 477.9 53.76 477.74 54.24 477.42C54.7333 477.087 54.98 476.607 54.98 475.98C54.98 475.34 54.7333 474.86 54.24 474.54C53.76 474.207 53.0667 474.04 52.16 474.04H48.48ZM52.68 483.96C54.6933 483.96 55.7 483.287 55.7 481.94C55.7 480.593 54.6933 479.92 52.68 479.92H48.48V483.96H52.68ZM67.6348 475.2C69.2082 475.2 70.4082 475.58 71.2348 476.34C72.0748 477.087 72.4948 478.22 72.4948 479.74V486H70.1348V484.7C69.8282 485.167 69.3882 485.527 68.8148 485.78C68.2548 486.02 67.5748 486.14 66.7748 486.14C65.9748 486.14 65.2748 486.007 64.6748 485.74C64.0748 485.46 63.6082 485.08 63.2748 484.6C62.9548 484.107 62.7948 483.553 62.7948 482.94C62.7948 481.98 63.1482 481.213 63.8548 480.64C64.5748 480.053 65.7015 479.76 67.2348 479.76H69.9948V479.6C69.9948 478.853 69.7682 478.28 69.3148 477.88C68.8748 477.48 68.2148 477.28 67.3348 477.28C66.7348 477.28 66.1415 477.373 65.5548 477.56C64.9815 477.747 64.4948 478.007 64.0948 478.34L63.1148 476.52C63.6748 476.093 64.3482 475.767 65.1348 475.54C65.9215 475.313 66.7548 475.2 67.6348 475.2ZM67.2948 484.32C67.9215 484.32 68.4748 484.18 68.9548 483.9C69.4482 483.607 69.7948 483.193 69.9948 482.66V481.42H67.4148C65.9748 481.42 65.2548 481.893 65.2548 482.84C65.2548 483.293 65.4348 483.653 65.7948 483.92C66.1548 484.187 66.6548 484.32 67.2948 484.32ZM78.4033 471.16H80.9033V486H78.4033V471.16ZM90.9645 475.2C92.5379 475.2 93.7379 475.58 94.5645 476.34C95.4045 477.087 95.8245 478.22 95.8245 479.74V486H93.4645V484.7C93.1579 485.167 92.7179 485.527 92.1445 485.78C91.5845 486.02 90.9045 486.14 90.1045 486.14C89.3045 486.14 88.6045 486.007 88.0045 485.74C87.4045 485.46 86.9379 485.08 86.6045 484.6C86.2845 484.107 86.1245 483.553 86.1245 482.94C86.1245 481.98 86.4779 481.213 87.1845 480.64C87.9045 480.053 89.0312 479.76 90.5645 479.76H93.3245V479.6C93.3245 478.853 93.0979 478.28 92.6445 477.88C92.2045 477.48 91.5445 477.28 90.6645 477.28C90.0645 477.28 89.4712 477.373 88.8845 477.56C88.3112 477.747 87.8245 478.007 87.4245 478.34L86.4445 476.52C87.0045 476.093 87.6779 475.767 88.4645 475.54C89.2512 475.313 90.0845 475.2 90.9645 475.2ZM90.6245 484.32C91.2512 484.32 91.8045 484.18 92.2845 483.9C92.7779 483.607 93.1245 483.193 93.3245 482.66V481.42H90.7445C89.3045 481.42 88.5845 481.893 88.5845 482.84C88.5845 483.293 88.7645 483.653 89.1245 483.92C89.4845 484.187 89.9845 484.32 90.6245 484.32ZM107.793 475.2C109.14 475.2 110.22 475.593 111.033 476.38C111.846 477.167 112.253 478.333 112.253 479.88V486H109.753V480.2C109.753 479.267 109.533 478.567 109.093 478.1C108.653 477.62 108.026 477.38 107.213 477.38C106.293 477.38 105.566 477.66 105.033 478.22C104.5 478.767 104.233 479.56 104.233 480.6V486H101.733V475.32H104.113V476.7C104.526 476.207 105.046 475.833 105.673 475.58C106.3 475.327 107.006 475.2 107.793 475.2ZM123.122 486.14C122.015 486.14 121.022 485.907 120.142 485.44C119.262 484.973 118.575 484.327 118.082 483.5C117.589 482.66 117.342 481.713 117.342 480.66C117.342 479.607 117.589 478.667 118.082 477.84C118.575 477.013 119.255 476.367 120.122 475.9C121.002 475.433 122.002 475.2 123.122 475.2C124.175 475.2 125.095 475.413 125.882 475.84C126.682 476.267 127.282 476.88 127.682 477.68L125.762 478.8C125.455 478.307 125.069 477.94 124.602 477.7C124.149 477.447 123.649 477.32 123.102 477.32C122.169 477.32 121.395 477.627 120.782 478.24C120.169 478.84 119.862 479.647 119.862 480.66C119.862 481.673 120.162 482.487 120.762 483.1C121.375 483.7 122.155 484 123.102 484C123.649 484 124.149 483.88 124.602 483.64C125.069 483.387 125.455 483.013 125.762 482.52L127.682 483.64C127.269 484.44 126.662 485.06 125.862 485.5C125.075 485.927 124.162 486.14 123.122 486.14ZM142.427 480.72C142.427 480.893 142.414 481.14 142.387 481.46H134.007C134.154 482.247 134.534 482.873 135.147 483.34C135.774 483.793 136.547 484.02 137.467 484.02C138.64 484.02 139.607 483.633 140.367 482.86L141.707 484.4C141.227 484.973 140.62 485.407 139.887 485.7C139.154 485.993 138.327 486.14 137.407 486.14C136.234 486.14 135.2 485.907 134.307 485.44C133.414 484.973 132.72 484.327 132.227 483.5C131.747 482.66 131.507 481.713 131.507 480.66C131.507 479.62 131.74 478.687 132.207 477.86C132.687 477.02 133.347 476.367 134.187 475.9C135.027 475.433 135.974 475.2 137.027 475.2C138.067 475.2 138.994 475.433 139.807 475.9C140.634 476.353 141.274 477 141.727 477.84C142.194 478.667 142.427 479.627 142.427 480.72ZM137.027 477.2C136.227 477.2 135.547 477.44 134.987 477.92C134.44 478.387 134.107 479.013 133.987 479.8H140.047C139.94 479.027 139.614 478.4 139.067 477.92C138.52 477.44 137.84 477.2 137.027 477.2ZM165.556 478.84H168.016V484.42C167.296 484.993 166.456 485.433 165.496 485.74C164.536 486.047 163.549 486.2 162.536 486.2C161.109 486.2 159.822 485.893 158.676 485.28C157.529 484.653 156.629 483.793 155.976 482.7C155.322 481.607 154.996 480.373 154.996 479C154.996 477.627 155.322 476.393 155.976 475.3C156.629 474.207 157.529 473.353 158.676 472.74C159.836 472.113 161.136 471.8 162.576 471.8C163.749 471.8 164.816 471.993 165.776 472.38C166.736 472.767 167.542 473.333 168.196 474.08L166.556 475.68C165.489 474.613 164.202 474.08 162.696 474.08C161.709 474.08 160.829 474.287 160.056 474.7C159.296 475.113 158.696 475.693 158.256 476.44C157.829 477.187 157.616 478.04 157.616 479C157.616 479.933 157.829 480.773 158.256 481.52C158.696 482.267 159.296 482.853 160.056 483.28C160.829 483.707 161.702 483.92 162.676 483.92C163.769 483.92 164.729 483.68 165.556 483.2V478.84ZM180.625 486.2C179.212 486.2 177.932 485.893 176.785 485.28C175.652 484.653 174.758 483.793 174.105 482.7C173.465 481.607 173.145 480.373 173.145 479C173.145 477.627 173.472 476.393 174.125 475.3C174.778 474.207 175.672 473.353 176.805 472.74C177.952 472.113 179.232 471.8 180.645 471.8C181.792 471.8 182.838 472 183.785 472.4C184.732 472.8 185.532 473.38 186.185 474.14L184.505 475.72C183.492 474.627 182.245 474.08 180.765 474.08C179.805 474.08 178.945 474.293 178.185 474.72C177.425 475.133 176.832 475.713 176.405 476.46C175.978 477.207 175.765 478.053 175.765 479C175.765 479.947 175.978 480.793 176.405 481.54C176.832 482.287 177.425 482.873 178.185 483.3C178.945 483.713 179.805 483.92 180.765 483.92C182.245 483.92 183.492 483.367 184.505 482.26L186.185 483.86C185.532 484.62 184.725 485.2 183.765 485.6C182.818 486 181.772 486.2 180.625 486.2ZM200.163 478.52C199.71 478.52 199.323 478.367 199.003 478.06C198.683 477.74 198.523 477.34 198.523 476.86C198.523 476.367 198.677 475.967 198.983 475.66C199.303 475.353 199.697 475.2 200.163 475.2C200.63 475.2 201.017 475.353 201.323 475.66C201.643 475.967 201.803 476.367 201.803 476.86C201.803 477.34 201.643 477.74 201.323 478.06C201.003 478.367 200.617 478.52 200.163 478.52ZM200.163 486.14C199.71 486.14 199.323 485.987 199.003 485.68C198.683 485.36 198.523 484.96 198.523 484.48C198.523 483.987 198.677 483.587 198.983 483.28C199.303 482.973 199.697 482.82 200.163 482.82C200.63 482.82 201.017 482.973 201.323 483.28C201.643 483.587 201.803 483.987 201.803 484.48C201.803 484.96 201.643 485.36 201.323 485.68C201.003 485.987 200.617 486.14 200.163 486.14Z" fill="#97F3FF" fill-opacity="0.9"/>
<path d="M11 588C11 571.431 24.4315 558 41 558H371C387.569 558 401 571.431 401 588V868H11V588Z" fill="url(#paint3_linear)"/>
<path d="M130.112 764.3H123.152V761H140.972V764.3H134.012V782H130.112V764.3ZM152.86 765.8C155.22 765.8 157.02 766.37 158.26 767.51C159.52 768.63 160.15 770.33 160.15 772.61V782H156.61V780.05C156.15 780.75 155.49 781.29 154.63 781.67C153.79 782.03 152.77 782.21 151.57 782.21C150.37 782.21 149.32 782.01 148.42 781.61C147.52 781.19 146.82 780.62 146.32 779.9C145.84 779.16 145.6 778.33 145.6 777.41C145.6 775.97 146.13 774.82 147.19 773.96C148.27 773.08 149.96 772.64 152.26 772.64H156.4V772.4C156.4 771.28 156.06 770.42 155.38 769.82C154.72 769.22 153.73 768.92 152.41 768.92C151.51 768.92 150.62 769.06 149.74 769.34C148.88 769.62 148.15 770.01 147.55 770.51L146.08 767.78C146.92 767.14 147.93 766.65 149.11 766.31C150.29 765.97 151.54 765.8 152.86 765.8ZM152.35 779.48C153.29 779.48 154.12 779.27 154.84 778.85C155.58 778.41 156.1 777.79 156.4 776.99V775.13H152.53C150.37 775.13 149.29 775.84 149.29 777.26C149.29 777.94 149.56 778.48 150.1 778.88C150.64 779.28 151.39 779.48 152.35 779.48ZM177.892 765.8C179.452 765.8 180.842 766.14 182.062 766.82C183.302 767.5 184.272 768.46 184.972 769.7C185.672 770.94 186.022 772.37 186.022 773.99C186.022 775.61 185.672 777.05 184.972 778.31C184.272 779.55 183.302 780.51 182.062 781.19C180.842 781.87 179.452 782.21 177.892 782.21C175.732 782.21 174.022 781.49 172.762 780.05V787.82H169.012V765.98H172.582V768.08C173.202 767.32 173.962 766.75 174.862 766.37C175.782 765.99 176.792 765.8 177.892 765.8ZM177.472 779C178.852 779 179.982 778.54 180.862 777.62C181.762 776.7 182.212 775.49 182.212 773.99C182.212 772.49 181.762 771.28 180.862 770.36C179.982 769.44 178.852 768.98 177.472 768.98C176.572 768.98 175.762 769.19 175.042 769.61C174.322 770.01 173.752 770.59 173.332 771.35C172.912 772.11 172.702 772.99 172.702 773.99C172.702 774.99 172.912 775.87 173.332 776.63C173.752 777.39 174.322 777.98 175.042 778.4C175.762 778.8 176.572 779 177.472 779ZM220.97 765.98L213.47 783.29C212.77 785.03 211.92 786.25 210.92 786.95C209.92 787.67 208.71 788.03 207.29 788.03C206.49 788.03 205.7 787.9 204.92 787.64C204.14 787.38 203.5 787.02 203 786.56L204.5 783.8C204.86 784.14 205.28 784.41 205.76 784.61C206.26 784.81 206.76 784.91 207.26 784.91C207.92 784.91 208.46 784.74 208.88 784.4C209.32 784.06 209.72 783.49 210.08 782.69L210.35 782.06L203.36 765.98H207.26L212.3 777.83L217.37 765.98H220.97ZM234.124 782.21C232.504 782.21 231.044 781.86 229.744 781.16C228.444 780.46 227.424 779.49 226.684 778.25C225.964 776.99 225.604 775.57 225.604 773.99C225.604 772.41 225.964 771 226.684 769.76C227.424 768.52 228.444 767.55 229.744 766.85C231.044 766.15 232.504 765.8 234.124 765.8C235.764 765.8 237.234 766.15 238.534 766.85C239.834 767.55 240.844 768.52 241.564 769.76C242.304 771 242.674 772.41 242.674 773.99C242.674 775.57 242.304 776.99 241.564 778.25C240.844 779.49 239.834 780.46 238.534 781.16C237.234 781.86 235.764 782.21 234.124 782.21ZM234.124 779C235.504 779 236.644 778.54 237.544 777.62C238.444 776.7 238.894 775.49 238.894 773.99C238.894 772.49 238.444 771.28 237.544 770.36C236.644 769.44 235.504 768.98 234.124 768.98C232.744 768.98 231.604 769.44 230.704 770.36C229.824 771.28 229.384 772.49 229.384 773.99C229.384 775.49 229.824 776.7 230.704 777.62C231.604 778.54 232.744 779 234.124 779ZM265.82 765.98V782H262.25V779.96C261.65 780.68 260.9 781.24 260 781.64C259.1 782.02 258.13 782.21 257.09 782.21C254.95 782.21 253.26 781.62 252.02 780.44C250.8 779.24 250.19 777.47 250.19 775.13V765.98H253.94V774.62C253.94 776.06 254.26 777.14 254.9 777.86C255.56 778.56 256.49 778.91 257.69 778.91C259.03 778.91 260.09 778.5 260.87 777.68C261.67 776.84 262.07 775.64 262.07 774.08V765.98H265.82ZM278.35 768.32C279.43 766.64 281.33 765.8 284.05 765.8V769.37C283.73 769.31 283.44 769.28 283.18 769.28C281.72 769.28 280.58 769.71 279.76 770.57C278.94 771.41 278.53 772.63 278.53 774.23V782H274.78V765.98H278.35V768.32ZM127.092 802.8C128.652 802.8 130.042 803.14 131.262 803.82C132.502 804.5 133.472 805.46 134.172 806.7C134.872 807.94 135.222 809.37 135.222 810.99C135.222 812.61 134.872 814.05 134.172 815.31C133.472 816.55 132.502 817.51 131.262 818.19C130.042 818.87 128.652 819.21 127.092 819.21C124.932 819.21 123.222 818.49 121.962 817.05V824.82H118.212V802.98H121.782V805.08C122.402 804.32 123.162 803.75 124.062 803.37C124.982 802.99 125.992 802.8 127.092 802.8ZM126.672 816C128.052 816 129.182 815.54 130.062 814.62C130.962 813.7 131.412 812.49 131.412 810.99C131.412 809.49 130.962 808.28 130.062 807.36C129.182 806.44 128.052 805.98 126.672 805.98C125.772 805.98 124.962 806.19 124.242 806.61C123.522 807.01 122.952 807.59 122.532 808.35C122.112 809.11 121.902 809.99 121.902 810.99C121.902 811.99 122.112 812.87 122.532 813.63C122.952 814.39 123.522 814.98 124.242 815.4C124.962 815.8 125.772 816 126.672 816ZM151.919 802.8C153.939 802.8 155.559 803.39 156.779 804.57C157.999 805.75 158.609 807.5 158.609 809.82V819H154.859V810.3C154.859 808.9 154.529 807.85 153.869 807.15C153.209 806.43 152.269 806.07 151.049 806.07C149.669 806.07 148.579 806.49 147.779 807.33C146.979 808.15 146.579 809.34 146.579 810.9V819H142.829V796.74H146.579V804.84C147.199 804.18 147.959 803.68 148.859 803.34C149.779 802.98 150.799 802.8 151.919 802.8ZM174.762 819.21C173.142 819.21 171.682 818.86 170.382 818.16C169.082 817.46 168.062 816.49 167.322 815.25C166.602 813.99 166.242 812.57 166.242 810.99C166.242 809.41 166.602 808 167.322 806.76C168.062 805.52 169.082 804.55 170.382 803.85C171.682 803.15 173.142 802.8 174.762 802.8C176.402 802.8 177.872 803.15 179.172 803.85C180.472 804.55 181.482 805.52 182.202 806.76C182.942 808 183.312 809.41 183.312 810.99C183.312 812.57 182.942 813.99 182.202 815.25C181.482 816.49 180.472 817.46 179.172 818.16C177.872 818.86 176.402 819.21 174.762 819.21ZM174.762 816C176.142 816 177.282 815.54 178.182 814.62C179.082 813.7 179.532 812.49 179.532 810.99C179.532 809.49 179.082 808.28 178.182 807.36C177.282 806.44 176.142 805.98 174.762 805.98C173.382 805.98 172.242 806.44 171.342 807.36C170.462 808.28 170.022 809.49 170.022 810.99C170.022 812.49 170.462 813.7 171.342 814.62C172.242 815.54 173.382 816 174.762 816ZM200.038 802.8C202.058 802.8 203.678 803.39 204.898 804.57C206.118 805.75 206.728 807.5 206.728 809.82V819H202.978V810.3C202.978 808.9 202.648 807.85 201.988 807.15C201.328 806.43 200.388 806.07 199.168 806.07C197.788 806.07 196.698 806.49 195.898 807.33C195.098 808.15 194.698 809.34 194.698 810.9V819H190.948V802.98H194.518V805.05C195.138 804.31 195.918 803.75 196.858 803.37C197.798 802.99 198.858 802.8 200.038 802.8ZM230.742 811.08C230.742 811.34 230.722 811.71 230.682 812.19H218.112C218.332 813.37 218.902 814.31 219.822 815.01C220.762 815.69 221.922 816.03 223.302 816.03C225.062 816.03 226.512 815.45 227.652 814.29L229.662 816.6C228.942 817.46 228.032 818.11 226.932 818.55C225.832 818.99 224.592 819.21 223.212 819.21C221.452 819.21 219.902 818.86 218.562 818.16C217.222 817.46 216.182 816.49 215.442 815.25C214.722 813.99 214.362 812.57 214.362 810.99C214.362 809.43 214.712 808.03 215.412 806.79C216.132 805.53 217.122 804.55 218.382 803.85C219.642 803.15 221.062 802.8 222.642 802.8C224.202 802.8 225.592 803.15 226.812 803.85C228.052 804.53 229.012 805.5 229.692 806.76C230.392 808 230.742 809.44 230.742 811.08ZM222.642 805.8C221.442 805.8 220.422 806.16 219.582 806.88C218.762 807.58 218.262 808.52 218.082 809.7H227.172C227.012 808.54 226.522 807.6 225.702 806.88C224.882 806.16 223.862 805.8 222.642 805.8ZM257.935 819.21C256.315 819.21 254.855 818.86 253.555 818.16C252.255 817.46 251.235 816.49 250.495 815.25C249.775 813.99 249.415 812.57 249.415 810.99C249.415 809.41 249.775 808 250.495 806.76C251.235 805.52 252.255 804.55 253.555 803.85C254.855 803.15 256.315 802.8 257.935 802.8C259.575 802.8 261.045 803.15 262.345 803.85C263.645 804.55 264.655 805.52 265.375 806.76C266.115 808 266.485 809.41 266.485 810.99C266.485 812.57 266.115 813.99 265.375 815.25C264.655 816.49 263.645 817.46 262.345 818.16C261.045 818.86 259.575 819.21 257.935 819.21ZM257.935 816C259.315 816 260.455 815.54 261.355 814.62C262.255 813.7 262.705 812.49 262.705 810.99C262.705 809.49 262.255 808.28 261.355 807.36C260.455 806.44 259.315 805.98 257.935 805.98C256.555 805.98 255.415 806.44 254.515 807.36C253.635 808.28 253.195 809.49 253.195 810.99C253.195 812.49 253.635 813.7 254.515 814.62C255.415 815.54 256.555 816 257.935 816ZM283.211 802.8C285.231 802.8 286.851 803.39 288.071 804.57C289.291 805.75 289.901 807.5 289.901 809.82V819H286.151V810.3C286.151 808.9 285.821 807.85 285.161 807.15C284.501 806.43 283.561 806.07 282.341 806.07C280.961 806.07 279.871 806.49 279.071 807.33C278.271 808.15 277.871 809.34 277.871 810.9V819H274.121V802.98H277.691V805.05C278.311 804.31 279.091 803.75 280.031 803.37C280.971 802.99 282.031 802.8 283.211 802.8ZM122.258 835V856H119.048L107.468 841.78V856H103.598V835H106.808L118.388 849.22V835H122.258ZM135.835 838.27V844.66H145.975V847.96H135.835V856H131.935V835H147.265V838.27H135.835ZM164.572 856.3C162.452 856.3 160.532 855.84 158.812 854.92C157.112 853.98 155.772 852.69 154.792 851.05C153.832 849.41 153.352 847.56 153.352 845.5C153.352 843.44 153.842 841.59 154.822 839.95C155.802 838.31 157.142 837.03 158.842 836.11C160.562 835.17 162.482 834.7 164.602 834.7C166.322 834.7 167.892 835 169.312 835.6C170.732 836.2 171.932 837.07 172.912 838.21L170.392 840.58C168.872 838.94 167.002 838.12 164.782 838.12C163.342 838.12 162.052 838.44 160.912 839.08C159.772 839.7 158.882 840.57 158.242 841.69C157.602 842.81 157.282 844.08 157.282 845.5C157.282 846.92 157.602 848.19 158.242 849.31C158.882 850.43 159.772 851.31 160.912 851.95C162.052 852.57 163.342 852.88 164.782 852.88C167.002 852.88 168.872 852.05 170.392 850.39L172.912 852.79C171.932 853.93 170.722 854.8 169.282 855.4C167.862 856 166.292 856.3 164.572 856.3ZM196.25 842.32C197.33 840.64 199.23 839.8 201.95 839.8V843.37C201.63 843.31 201.34 843.28 201.08 843.28C199.62 843.28 198.48 843.71 197.66 844.57C196.84 845.41 196.43 846.63 196.43 848.23V856H192.68V839.98H196.25V842.32ZM224.095 848.08C224.095 848.34 224.075 848.71 224.035 849.19H211.465C211.685 850.37 212.255 851.31 213.175 852.01C214.115 852.69 215.275 853.03 216.655 853.03C218.415 853.03 219.865 852.45 221.005 851.29L223.015 853.6C222.295 854.46 221.385 855.11 220.285 855.55C219.185 855.99 217.945 856.21 216.565 856.21C214.805 856.21 213.255 855.86 211.915 855.16C210.575 854.46 209.535 853.49 208.795 852.25C208.075 850.99 207.715 849.57 207.715 847.99C207.715 846.43 208.065 845.03 208.765 843.79C209.485 842.53 210.475 841.55 211.735 840.85C212.995 840.15 214.415 839.8 215.995 839.8C217.555 839.8 218.945 840.15 220.165 840.85C221.405 841.53 222.365 842.5 223.045 843.76C223.745 845 224.095 846.44 224.095 848.08ZM215.995 842.8C214.795 842.8 213.775 843.16 212.935 843.88C212.115 844.58 211.615 845.52 211.435 846.7H220.525C220.365 845.54 219.875 844.6 219.055 843.88C218.235 843.16 217.215 842.8 215.995 842.8ZM237.427 839.8C239.787 839.8 241.587 840.37 242.827 841.51C244.087 842.63 244.717 844.33 244.717 846.61V856H241.177V854.05C240.717 854.75 240.057 855.29 239.197 855.67C238.357 856.03 237.337 856.21 236.137 856.21C234.937 856.21 233.887 856.01 232.987 855.61C232.087 855.19 231.387 854.62 230.887 853.9C230.407 853.16 230.167 852.33 230.167 851.41C230.167 849.97 230.697 848.82 231.757 847.96C232.837 847.08 234.527 846.64 236.827 846.64H240.967V846.4C240.967 845.28 240.627 844.42 239.947 843.82C239.287 843.22 238.297 842.92 236.977 842.92C236.077 842.92 235.187 843.06 234.307 843.34C233.447 843.62 232.717 844.01 232.117 844.51L230.647 841.78C231.487 841.14 232.497 840.65 233.677 840.31C234.857 839.97 236.107 839.8 237.427 839.8ZM236.917 853.48C237.857 853.48 238.687 853.27 239.407 852.85C240.147 852.41 240.667 851.79 240.967 850.99V849.13H237.097C234.937 849.13 233.857 849.84 233.857 851.26C233.857 851.94 234.127 852.48 234.667 852.88C235.207 853.28 235.957 853.48 236.917 853.48ZM269.417 833.74V856H265.817V853.93C265.197 854.69 264.427 855.26 263.507 855.64C262.607 856.02 261.607 856.21 260.507 856.21C258.967 856.21 257.577 855.87 256.337 855.19C255.117 854.51 254.157 853.55 253.457 852.31C252.757 851.05 252.407 849.61 252.407 847.99C252.407 846.37 252.757 844.94 253.457 843.7C254.157 842.46 255.117 841.5 256.337 840.82C257.577 840.14 258.967 839.8 260.507 839.8C261.567 839.8 262.537 839.98 263.417 840.34C264.297 840.7 265.047 841.24 265.667 841.96V833.74H269.417ZM260.957 853C261.857 853 262.667 852.8 263.387 852.4C264.107 851.98 264.677 851.39 265.097 850.63C265.517 849.87 265.727 848.99 265.727 847.99C265.727 846.99 265.517 846.11 265.097 845.35C264.677 844.59 264.107 844.01 263.387 843.61C262.667 843.19 261.857 842.98 260.957 842.98C260.057 842.98 259.247 843.19 258.527 843.61C257.807 844.01 257.237 844.59 256.817 845.35C256.397 846.11 256.187 846.99 256.187 847.99C256.187 848.99 256.397 849.87 256.817 850.63C257.237 851.39 257.807 851.98 258.527 852.4C259.247 852.8 260.057 853 260.957 853ZM293.432 848.08C293.432 848.34 293.412 848.71 293.372 849.19H280.802C281.022 850.37 281.592 851.31 282.512 852.01C283.452 852.69 284.612 853.03 285.992 853.03C287.752 853.03 289.202 852.45 290.342 851.29L292.352 853.6C291.632 854.46 290.722 855.11 289.622 855.55C288.522 855.99 287.282 856.21 285.902 856.21C284.142 856.21 282.592 855.86 281.252 855.16C279.912 854.46 278.872 853.49 278.132 852.25C277.412 850.99 277.052 849.57 277.052 847.99C277.052 846.43 277.402 845.03 278.102 843.79C278.822 842.53 279.812 841.55 281.072 840.85C282.332 840.15 283.752 839.8 285.332 839.8C286.892 839.8 288.282 840.15 289.502 840.85C290.742 841.53 291.702 842.5 292.382 843.76C293.082 845 293.432 846.44 293.432 848.08ZM285.332 842.8C284.132 842.8 283.112 843.16 282.272 843.88C281.452 844.58 280.952 845.52 280.772 846.7H289.862C289.702 845.54 289.212 844.6 288.392 843.88C287.572 843.16 286.552 842.8 285.332 842.8ZM304.654 842.32C305.734 840.64 307.634 839.8 310.354 839.8V843.37C310.034 843.31 309.744 843.28 309.484 843.28C308.024 843.28 306.884 843.71 306.064 844.57C305.244 845.41 304.834 846.63 304.834 848.23V856H301.084V839.98H304.654V842.32Z" fill="#FF9800"/>
<path d="M40.856 690.384V693H28.256V676.2H40.52V678.816H31.376V683.184H39.488V685.752H31.376V690.384H40.856ZM54.5581 680.04C56.1741 680.04 57.4701 680.512 58.4461 681.456C59.4221 682.4 59.9101 683.8 59.9101 685.656V693H56.9101V686.04C56.9101 684.92 56.6461 684.08 56.1181 683.52C55.5901 682.944 54.8381 682.656 53.8621 682.656C52.7581 682.656 51.8861 682.992 51.2461 683.664C50.6061 684.32 50.2861 685.272 50.2861 686.52V693H47.2861V680.184H50.1421V681.84C50.6381 681.248 51.2621 680.8 52.0141 680.496C52.7661 680.192 53.6141 680.04 54.5581 680.04ZM74.6598 692.304C74.3078 692.592 73.8758 692.808 73.3638 692.952C72.8678 693.096 72.3398 693.168 71.7798 693.168C70.3718 693.168 69.2838 692.8 68.5158 692.064C67.7478 691.328 67.3638 690.256 67.3638 688.848V682.68H65.2518V680.28H67.3638V677.352H70.3638V680.28H73.7958V682.68H70.3638V688.776C70.3638 689.4 70.5158 689.88 70.8198 690.216C71.1238 690.536 71.5638 690.696 72.1398 690.696C72.8118 690.696 73.3718 690.52 73.8198 690.168L74.6598 692.304ZM91.9938 686.664C91.9938 686.872 91.9778 687.168 91.9458 687.552H81.8898C82.0658 688.496 82.5218 689.248 83.2578 689.808C84.0098 690.352 84.9378 690.624 86.0418 690.624C87.4498 690.624 88.6098 690.16 89.5218 689.232L91.1298 691.08C90.5538 691.768 89.8258 692.288 88.9458 692.64C88.0658 692.992 87.0738 693.168 85.9698 693.168C84.5618 693.168 83.3218 692.888 82.2498 692.328C81.1778 691.768 80.3458 690.992 79.7538 690C79.1778 688.992 78.8898 687.856 78.8898 686.592C78.8898 685.344 79.1698 684.224 79.7298 683.232C80.3058 682.224 81.0978 681.44 82.1058 680.88C83.1138 680.32 84.2498 680.04 85.5138 680.04C86.7618 680.04 87.8738 680.32 88.8498 680.88C89.8418 681.424 90.6098 682.2 91.1538 683.208C91.7138 684.2 91.9938 685.352 91.9938 686.664ZM85.5138 682.44C84.5538 682.44 83.7378 682.728 83.0658 683.304C82.4098 683.864 82.0098 684.616 81.8658 685.56H89.1378C89.0098 684.632 88.6178 683.88 87.9618 683.304C87.3058 682.728 86.4898 682.44 85.5138 682.44ZM100.971 682.056C101.835 680.712 103.355 680.04 105.531 680.04V682.896C105.275 682.848 105.043 682.824 104.835 682.824C103.667 682.824 102.755 683.168 102.099 683.856C101.443 684.528 101.115 685.504 101.115 686.784V693H98.1155V680.184H100.971V682.056ZM132.49 689.112H124.09L122.434 693H119.218L126.778 676.2H129.85L137.434 693H134.17L132.49 689.112ZM131.458 686.664L128.29 679.32L125.146 686.664H131.458ZM158.699 680.04C160.315 680.04 161.595 680.512 162.539 681.456C163.483 682.384 163.955 683.784 163.955 685.656V693H160.955V686.04C160.955 684.92 160.707 684.08 160.211 683.52C159.715 682.944 159.003 682.656 158.075 682.656C157.067 682.656 156.259 682.992 155.651 683.664C155.043 684.32 154.739 685.264 154.739 686.496V693H151.739V686.04C151.739 684.92 151.491 684.08 150.995 683.52C150.499 682.944 149.787 682.656 148.859 682.656C147.835 682.656 147.019 682.984 146.411 683.64C145.819 684.296 145.523 685.248 145.523 686.496V693H142.523V680.184H145.379V681.816C145.859 681.24 146.459 680.8 147.179 680.496C147.899 680.192 148.699 680.04 149.579 680.04C150.539 680.04 151.387 680.224 152.123 680.592C152.875 680.944 153.467 681.472 153.899 682.176C154.427 681.504 155.107 680.984 155.939 680.616C156.771 680.232 157.691 680.04 158.699 680.04ZM176.906 693.168C175.61 693.168 174.442 692.888 173.402 692.328C172.362 691.768 171.546 690.992 170.954 690C170.378 688.992 170.09 687.856 170.09 686.592C170.09 685.328 170.378 684.2 170.954 683.208C171.546 682.216 172.362 681.44 173.402 680.88C174.442 680.32 175.61 680.04 176.906 680.04C178.218 680.04 179.394 680.32 180.434 680.88C181.474 681.44 182.282 682.216 182.858 683.208C183.45 684.2 183.746 685.328 183.746 686.592C183.746 687.856 183.45 688.992 182.858 690C182.282 690.992 181.474 691.768 180.434 692.328C179.394 692.888 178.218 693.168 176.906 693.168ZM176.906 690.6C178.01 690.6 178.922 690.232 179.642 689.496C180.362 688.76 180.722 687.792 180.722 686.592C180.722 685.392 180.362 684.424 179.642 683.688C178.922 682.952 178.01 682.584 176.906 682.584C175.802 682.584 174.89 682.952 174.17 683.688C173.466 684.424 173.114 685.392 173.114 686.592C173.114 687.792 173.466 688.76 174.17 689.496C174.89 690.232 175.802 690.6 176.906 690.6ZM202.263 680.184V693H199.407V691.368C198.927 691.944 198.327 692.392 197.607 692.712C196.887 693.016 196.111 693.168 195.279 693.168C193.567 693.168 192.215 692.696 191.223 691.752C190.247 690.792 189.759 689.376 189.759 687.504V680.184H192.759V687.096C192.759 688.248 193.015 689.112 193.527 689.688C194.055 690.248 194.799 690.528 195.759 690.528C196.831 690.528 197.679 690.2 198.303 689.544C198.943 688.872 199.263 687.912 199.263 686.664V680.184H202.263ZM216.702 680.04C218.318 680.04 219.614 680.512 220.59 681.456C221.566 682.4 222.054 683.8 222.054 685.656V693H219.054V686.04C219.054 684.92 218.79 684.08 218.262 683.52C217.734 682.944 216.982 682.656 216.006 682.656C214.902 682.656 214.03 682.992 213.39 683.664C212.75 684.32 212.43 685.272 212.43 686.52V693H209.43V680.184H212.286V681.84C212.782 681.248 213.406 680.8 214.158 680.496C214.91 680.192 215.758 680.04 216.702 680.04ZM236.804 692.304C236.452 692.592 236.02 692.808 235.508 692.952C235.012 693.096 234.484 693.168 233.924 693.168C232.516 693.168 231.428 692.8 230.66 692.064C229.892 691.328 229.508 690.256 229.508 688.848V682.68H227.396V680.28H229.508V677.352H232.508V680.28H235.94V682.68H232.508V688.776C232.508 689.4 232.66 689.88 232.964 690.216C233.268 690.536 233.708 690.696 234.284 690.696C234.956 690.696 235.516 690.52 235.964 690.168L236.804 692.304ZM253.345 684.024C252.801 684.024 252.337 683.84 251.953 683.472C251.569 683.088 251.377 682.608 251.377 682.032C251.377 681.44 251.561 680.96 251.929 680.592C252.313 680.224 252.785 680.04 253.345 680.04C253.905 680.04 254.369 680.224 254.737 680.592C255.121 680.96 255.313 681.44 255.313 682.032C255.313 682.608 255.121 683.088 254.737 683.472C254.353 683.84 253.889 684.024 253.345 684.024ZM253.345 693.168C252.801 693.168 252.337 692.984 251.953 692.616C251.569 692.232 251.377 691.752 251.377 691.176C251.377 690.584 251.561 690.104 251.929 689.736C252.313 689.368 252.785 689.184 253.345 689.184C253.905 689.184 254.369 689.368 254.737 689.736C255.121 690.104 255.313 690.584 255.313 691.176C255.313 691.752 255.121 692.232 254.737 692.616C254.353 692.984 253.889 693.168 253.345 693.168Z" fill="#217682"/>
<rect x="113" y="575" width="180" height="40" rx="20" fill="#00B9D2" fill-opacity="0.9"/>
<rect x="117" y="580" width="76" height="31" rx="15.5" fill="#00FFE0"/>
<path d="M142.73 589.5C143.64 589.5 144.43 589.65 145.1 589.95C145.78 590.25 146.3 590.68 146.66 591.24C147.02 591.8 147.2 592.465 147.2 593.235C147.2 593.995 147.02 594.66 146.66 595.23C146.3 595.79 145.78 596.22 145.1 596.52C144.43 596.82 143.64 596.97 142.73 596.97H140.36V600H138.41V589.5H142.73ZM142.64 595.32C143.49 595.32 144.135 595.14 144.575 594.78C145.015 594.42 145.235 593.905 145.235 593.235C145.235 592.565 145.015 592.05 144.575 591.69C144.135 591.33 143.49 591.15 142.64 591.15H140.36V595.32H142.64ZM157.455 597.57H152.205L151.17 600H149.16L153.885 589.5H155.805L160.545 600H158.505L157.455 597.57ZM156.81 596.04L154.83 591.45L152.865 596.04H156.81ZM167.805 596.295V600H165.855V596.325L161.73 589.5H163.815L166.89 594.615L169.995 589.5H171.915L167.805 596.295Z" fill="#338888"/>
<rect x="213" y="580" width="76" height="31" rx="15.5" fill="#C4C4C4"/>
<path d="M218.652 593.87H217.028V593.1H221.186V593.87H219.562V598H218.652V593.87ZM226.02 598L225.019 596.565C224.977 596.57 224.914 596.572 224.83 596.572H223.724V598H222.814V593.1H224.83C225.255 593.1 225.623 593.17 225.936 593.31C226.253 593.45 226.496 593.651 226.664 593.912C226.832 594.173 226.916 594.484 226.916 594.843C226.916 595.212 226.825 595.529 226.643 595.795C226.466 596.061 226.209 596.259 225.873 596.39L227 598H226.02ZM225.999 594.843C225.999 594.53 225.896 594.29 225.691 594.122C225.486 593.954 225.185 593.87 224.788 593.87H223.724V595.823H224.788C225.185 595.823 225.486 595.739 225.691 595.571C225.896 595.398 225.999 595.156 225.999 594.843ZM232.057 596.866H229.607L229.124 598H228.186L230.391 593.1H231.287L233.499 598H232.547L232.057 596.866ZM231.756 596.152L230.832 594.01L229.915 596.152H231.756ZM239.421 593.1V598H238.672L235.97 594.682V598H235.067V593.1H235.816L238.518 596.418V593.1H239.421ZM243.198 598.07C242.82 598.07 242.454 598.016 242.099 597.909C241.749 597.802 241.472 597.659 241.266 597.482L241.581 596.775C241.782 596.934 242.027 597.064 242.316 597.167C242.61 597.265 242.904 597.314 243.198 597.314C243.562 597.314 243.833 597.256 244.01 597.139C244.192 597.022 244.283 596.868 244.283 596.677C244.283 596.537 244.232 596.423 244.129 596.334C244.031 596.241 243.905 596.168 243.751 596.117C243.597 596.066 243.387 596.007 243.121 595.942C242.748 595.853 242.445 595.765 242.211 595.676C241.983 595.587 241.784 595.45 241.616 595.263C241.453 595.072 241.371 594.815 241.371 594.493C241.371 594.222 241.444 593.977 241.588 593.758C241.738 593.534 241.959 593.357 242.253 593.226C242.552 593.095 242.916 593.03 243.345 593.03C243.644 593.03 243.938 593.067 244.227 593.142C244.517 593.217 244.766 593.324 244.976 593.464L244.689 594.171C244.475 594.045 244.251 593.949 244.017 593.884C243.784 593.819 243.558 593.786 243.338 593.786C242.979 593.786 242.711 593.847 242.533 593.968C242.361 594.089 242.274 594.25 242.274 594.451C242.274 594.591 242.323 594.705 242.421 594.794C242.524 594.883 242.652 594.953 242.806 595.004C242.96 595.055 243.17 595.114 243.436 595.179C243.8 595.263 244.099 595.352 244.332 595.445C244.566 595.534 244.764 595.671 244.927 595.858C245.095 596.045 245.179 596.297 245.179 596.614C245.179 596.885 245.105 597.13 244.955 597.349C244.811 597.568 244.589 597.743 244.29 597.874C243.992 598.005 243.628 598.07 243.198 598.07ZM250.205 596.866H247.755L247.272 598H246.334L248.539 593.1H249.435L251.647 598H250.695L250.205 596.866ZM249.904 596.152L248.98 594.01L248.063 596.152H249.904ZM255.414 598.07C254.92 598.07 254.472 597.963 254.07 597.748C253.674 597.529 253.361 597.228 253.132 596.845C252.908 596.462 252.796 596.031 252.796 595.55C252.796 595.069 252.911 594.638 253.139 594.255C253.368 593.872 253.681 593.574 254.077 593.359C254.479 593.14 254.927 593.03 255.421 593.03C255.823 593.03 256.189 593.1 256.52 593.24C256.852 593.38 257.132 593.583 257.36 593.849L256.772 594.402C256.418 594.019 255.981 593.828 255.463 593.828C255.127 593.828 254.826 593.903 254.56 594.052C254.294 594.197 254.087 594.4 253.937 594.661C253.788 594.922 253.713 595.219 253.713 595.55C253.713 595.881 253.788 596.178 253.937 596.439C254.087 596.7 254.294 596.906 254.56 597.055C254.826 597.2 255.127 597.272 255.463 597.272C255.981 597.272 256.418 597.078 256.772 596.691L257.36 597.251C257.132 597.517 256.849 597.72 256.513 597.86C256.182 598 255.816 598.07 255.414 598.07ZM260.117 593.87H258.493V593.1H262.651V593.87H261.027V598H260.117V593.87ZM264.279 593.1H265.189V598H264.279V593.1ZM269.748 598.07C269.249 598.07 268.798 597.963 268.397 597.748C267.996 597.529 267.681 597.228 267.452 596.845C267.223 596.458 267.109 596.026 267.109 595.55C267.109 595.074 267.223 594.645 267.452 594.262C267.681 593.875 267.996 593.574 268.397 593.359C268.798 593.14 269.249 593.03 269.748 593.03C270.247 593.03 270.698 593.14 271.099 593.359C271.5 593.574 271.815 593.872 272.044 594.255C272.273 594.638 272.387 595.069 272.387 595.55C272.387 596.031 272.273 596.462 272.044 596.845C271.815 597.228 271.5 597.529 271.099 597.748C270.698 597.963 270.247 598.07 269.748 598.07ZM269.748 597.272C270.075 597.272 270.369 597.2 270.63 597.055C270.891 596.906 271.097 596.7 271.246 596.439C271.395 596.173 271.47 595.877 271.47 595.55C271.47 595.223 271.395 594.929 271.246 594.668C271.097 594.402 270.891 594.197 270.63 594.052C270.369 593.903 270.075 593.828 269.748 593.828C269.421 593.828 269.127 593.903 268.866 594.052C268.605 594.197 268.399 594.402 268.25 594.668C268.101 594.929 268.026 595.223 268.026 595.55C268.026 595.877 268.101 596.173 268.25 596.439C268.399 596.7 268.605 596.906 268.866 597.055C269.127 597.2 269.421 597.272 269.748 597.272ZM278.65 593.1V598H277.901L275.199 594.682V598H274.296V593.1H275.045L277.747 596.418V593.1H278.65ZM282.427 598.07C282.049 598.07 281.683 598.016 281.328 597.909C280.978 597.802 280.701 597.659 280.495 597.482L280.81 596.775C281.011 596.934 281.256 597.064 281.545 597.167C281.839 597.265 282.133 597.314 282.427 597.314C282.791 597.314 283.062 597.256 283.239 597.139C283.421 597.022 283.512 596.868 283.512 596.677C283.512 596.537 283.461 596.423 283.358 596.334C283.26 596.241 283.134 596.168 282.98 596.117C282.826 596.066 282.616 596.007 282.35 595.942C281.977 595.853 281.674 595.765 281.44 595.676C281.212 595.587 281.013 595.45 280.845 595.263C280.682 595.072 280.6 594.815 280.6 594.493C280.6 594.222 280.673 593.977 280.817 593.758C280.967 593.534 281.188 593.357 281.482 593.226C281.781 593.095 282.145 593.03 282.574 593.03C282.873 593.03 283.167 593.067 283.456 593.142C283.746 593.217 283.995 593.324 284.205 593.464L283.918 594.171C283.704 594.045 283.48 593.949 283.246 593.884C283.013 593.819 282.787 593.786 282.567 593.786C282.208 593.786 281.94 593.847 281.762 593.968C281.59 594.089 281.503 594.25 281.503 594.451C281.503 594.591 281.552 594.705 281.65 594.794C281.753 594.883 281.881 594.953 282.035 595.004C282.189 595.055 282.399 595.114 282.665 595.179C283.029 595.263 283.328 595.352 283.561 595.445C283.795 595.534 283.993 595.671 284.156 595.858C284.324 596.045 284.408 596.297 284.408 596.614C284.408 596.885 284.334 597.13 284.184 597.349C284.04 597.568 283.818 597.743 283.519 597.874C283.221 598.005 282.857 598.07 282.427 598.07Z" fill="#338888"/>
<rect x="266" y="666" width="73" height="36" rx="18" fill="#42909A"/>
<path d="M296.024 687.138H293.792V690H291.524V687.138H284.612V685.518L290.822 677.4H293.324L287.474 685.158H291.596V682.62H293.792V685.158H296.024V687.138ZM308.512 688.02V690H299.224V688.434L304.228 683.682C304.792 683.142 305.17 682.674 305.362 682.278C305.566 681.87 305.668 681.468 305.668 681.072C305.668 680.484 305.47 680.034 305.074 679.722C304.678 679.41 304.096 679.254 303.328 679.254C302.044 679.254 301.06 679.692 300.376 680.568L298.738 679.308C299.23 678.648 299.89 678.138 300.718 677.778C301.558 677.406 302.494 677.22 303.526 677.22C304.894 677.22 305.986 677.544 306.802 678.192C307.618 678.84 308.026 679.722 308.026 680.838C308.026 681.522 307.882 682.164 307.594 682.764C307.306 683.364 306.754 684.048 305.938 684.816L302.572 688.02H308.512ZM317.496 690.18C316.488 690.18 315.588 689.928 314.796 689.424C314.004 688.908 313.38 688.164 312.924 687.192C312.468 686.208 312.24 685.044 312.24 683.7C312.24 682.356 312.468 681.198 312.924 680.226C313.38 679.242 314.004 678.498 314.796 677.994C315.588 677.478 316.488 677.22 317.496 677.22C318.504 677.22 319.404 677.478 320.196 677.994C321 678.498 321.63 679.242 322.086 680.226C322.542 681.198 322.77 682.356 322.77 683.7C322.77 685.044 322.542 686.208 322.086 687.192C321.63 688.164 321 688.908 320.196 689.424C319.404 689.928 318.504 690.18 317.496 690.18ZM317.496 688.146C318.396 688.146 319.104 687.774 319.62 687.03C320.148 686.286 320.412 685.176 320.412 683.7C320.412 682.224 320.148 681.114 319.62 680.37C319.104 679.626 318.396 679.254 317.496 679.254C316.608 679.254 315.9 679.626 315.372 680.37C314.856 681.114 314.598 682.224 314.598 683.7C314.598 685.176 314.856 686.286 315.372 687.03C315.9 687.774 316.608 688.146 317.496 688.146Z" fill="#00E0FF"/>
<path d="M367.135 689.13C365.878 689.13 364.899 688.779 364.197 688.077C363.495 687.366 363.144 686.352 363.144 685.035V679.9H364.834V684.97C364.834 686.755 365.605 687.648 367.148 687.648C368.682 687.648 369.449 686.755 369.449 684.97V679.9H371.113V685.035C371.113 686.352 370.762 687.366 370.06 688.077C369.367 688.779 368.392 689.13 367.135 689.13ZM378.056 689.13C377.354 689.13 376.673 689.03 376.015 688.831C375.365 688.632 374.849 688.367 374.468 688.038L375.053 686.725C375.425 687.02 375.88 687.262 376.418 687.453C376.964 687.635 377.51 687.726 378.056 687.726C378.732 687.726 379.234 687.618 379.564 687.401C379.902 687.184 380.071 686.898 380.071 686.543C380.071 686.283 379.975 686.071 379.785 685.906C379.603 685.733 379.369 685.598 379.083 685.503C378.797 685.408 378.407 685.299 377.913 685.178C377.219 685.013 376.656 684.849 376.223 684.684C375.798 684.519 375.43 684.264 375.118 683.917C374.814 683.562 374.663 683.085 374.663 682.487C374.663 681.984 374.797 681.529 375.066 681.122C375.343 680.706 375.755 680.377 376.301 680.134C376.855 679.891 377.531 679.77 378.329 679.77C378.883 679.77 379.429 679.839 379.967 679.978C380.504 680.117 380.968 680.316 381.358 680.576L380.825 681.889C380.426 681.655 380.01 681.477 379.577 681.356C379.143 681.235 378.723 681.174 378.316 681.174C377.648 681.174 377.15 681.287 376.821 681.512C376.5 681.737 376.34 682.036 376.34 682.409C376.34 682.669 376.431 682.881 376.613 683.046C376.803 683.211 377.042 683.341 377.328 683.436C377.614 683.531 378.004 683.64 378.498 683.761C379.174 683.917 379.728 684.082 380.162 684.255C380.595 684.42 380.963 684.675 381.267 685.022C381.579 685.369 381.735 685.837 381.735 686.426C381.735 686.929 381.596 687.384 381.319 687.791C381.05 688.198 380.638 688.523 380.084 688.766C379.529 689.009 378.853 689.13 378.056 689.13ZM385.166 679.9H389.144C390.114 679.9 390.977 680.091 391.731 680.472C392.485 680.845 393.07 681.378 393.486 682.071C393.902 682.756 394.11 683.549 394.11 684.45C394.11 685.351 393.902 686.149 393.486 686.842C393.07 687.527 392.485 688.06 391.731 688.441C390.977 688.814 390.114 689 389.144 689H385.166V679.9ZM389.066 687.57C389.733 687.57 390.318 687.444 390.821 687.193C391.332 686.933 391.722 686.569 391.991 686.101C392.268 685.624 392.407 685.074 392.407 684.45C392.407 683.826 392.268 683.28 391.991 682.812C391.722 682.335 391.332 681.971 390.821 681.72C390.318 681.46 389.733 681.33 389.066 681.33H386.856V687.57H389.066Z" fill="#338888"/>
<path d="M344.762 678L350.5 685.423L356.238 678L358 680.296L350.5 690L343 680.296L344.762 678Z" fill="#00E0FF"/>
<path d="M314.127 73.04V77H298.257V73.85L306.357 66.2C307.217 65.38 307.797 64.68 308.097 64.1C308.397 63.5 308.547 62.91 308.547 62.33C308.547 61.49 308.257 60.85 307.677 60.41C307.117 59.95 306.287 59.72 305.187 59.72C304.267 59.72 303.437 59.9 302.697 60.26C301.957 60.6 301.337 61.12 300.837 61.82L297.297 59.54C298.117 58.32 299.247 57.37 300.687 56.69C302.127 55.99 303.777 55.64 305.637 55.64C307.197 55.64 308.557 55.9 309.717 56.42C310.897 56.92 311.807 57.64 312.447 58.58C313.107 59.5 313.437 60.59 313.437 61.85C313.437 62.99 313.197 64.06 312.717 65.06C312.237 66.06 311.307 67.2 309.927 68.48L305.097 73.04H314.127ZM327.382 63.89C330.342 63.89 332.522 64.48 333.922 65.66C335.342 66.84 336.052 68.42 336.052 70.4C336.052 71.68 335.732 72.85 335.092 73.91C334.452 74.95 333.472 75.79 332.152 76.43C330.852 77.05 329.242 77.36 327.322 77.36C325.842 77.36 324.382 77.17 322.942 76.79C321.522 76.39 320.312 75.83 319.312 75.11L321.232 71.39C322.032 71.99 322.952 72.46 323.992 72.8C325.032 73.12 326.102 73.28 327.202 73.28C328.422 73.28 329.382 73.04 330.082 72.56C330.782 72.08 331.132 71.41 331.132 70.55C331.132 69.65 330.762 68.97 330.022 68.51C329.302 68.05 328.042 67.82 326.242 67.82H320.872L321.952 56H334.762V59.9H326.002L325.672 63.89H327.382ZM353.474 76.22C353.014 76.56 352.444 76.82 351.764 77C351.104 77.16 350.404 77.24 349.664 77.24C347.744 77.24 346.254 76.75 345.194 75.77C344.154 74.79 343.634 73.35 343.634 71.45V64.82H341.144V61.22H343.634V57.29H348.314V61.22H352.334V64.82H348.314V71.39C348.314 72.07 348.484 72.6 348.824 72.98C349.184 73.34 349.684 73.52 350.324 73.52C351.064 73.52 351.694 73.32 352.214 72.92L353.474 76.22ZM369.961 60.62C371.961 60.62 373.571 61.22 374.791 62.42C376.031 63.62 376.651 65.4 376.651 67.76V77H371.971V68.48C371.971 67.2 371.691 66.25 371.131 65.63C370.571 64.99 369.761 64.67 368.701 64.67C367.521 64.67 366.581 65.04 365.881 65.78C365.181 66.5 364.831 67.58 364.831 69.02V77H360.151V54.74H364.831V62.54C365.451 61.92 366.201 61.45 367.081 61.13C367.961 60.79 368.921 60.62 369.961 60.62ZM318.456 114.36C316.276 114.36 314.306 113.89 312.546 112.95C310.806 112.01 309.436 110.72 308.436 109.08C307.456 107.42 306.966 105.56 306.966 103.5C306.966 101.44 307.456 99.59 308.436 97.95C309.436 96.29 310.806 94.99 312.546 94.05C314.306 93.11 316.276 92.64 318.456 92.64C320.636 92.64 322.596 93.11 324.336 94.05C326.076 94.99 327.446 96.29 328.446 97.95C329.446 99.59 329.946 101.44 329.946 103.5C329.946 105.56 329.446 107.42 328.446 109.08C327.446 110.72 326.076 112.01 324.336 112.95C322.596 113.89 320.636 114.36 318.456 114.36ZM318.456 110.22C319.696 110.22 320.816 109.94 321.816 109.38C322.816 108.8 323.596 108 324.156 106.98C324.736 105.96 325.026 104.8 325.026 103.5C325.026 102.2 324.736 101.04 324.156 100.02C323.596 99 322.816 98.21 321.816 97.65C320.816 97.07 319.696 96.78 318.456 96.78C317.216 96.78 316.096 97.07 315.096 97.65C314.096 98.21 313.306 99 312.726 100.02C312.166 101.04 311.886 102.2 311.886 103.5C311.886 104.8 312.166 105.96 312.726 106.98C313.306 108 314.096 108.8 315.096 109.38C316.096 109.94 317.216 110.22 318.456 110.22ZM345.118 114.24C343.398 114.24 341.848 113.89 340.468 113.19C339.108 112.47 338.038 111.48 337.258 110.22C336.498 108.96 336.118 107.53 336.118 105.93C336.118 104.33 336.498 102.9 337.258 101.64C338.038 100.38 339.108 99.4 340.468 98.7C341.848 97.98 343.398 97.62 345.118 97.62C346.818 97.62 348.298 97.98 349.558 98.7C350.838 99.4 351.768 100.41 352.348 101.73L348.718 103.68C347.878 102.2 346.668 101.46 345.088 101.46C343.868 101.46 342.858 101.86 342.058 102.66C341.258 103.46 340.858 104.55 340.858 105.93C340.858 107.31 341.258 108.4 342.058 109.2C342.858 110 343.868 110.4 345.088 110.4C346.688 110.4 347.898 109.66 348.718 108.18L352.348 110.16C351.768 111.44 350.838 112.44 349.558 113.16C348.298 113.88 346.818 114.24 345.118 114.24ZM369.737 113.22C369.277 113.56 368.707 113.82 368.027 114C367.367 114.16 366.667 114.24 365.927 114.24C364.007 114.24 362.517 113.75 361.457 112.77C360.417 111.79 359.897 110.35 359.897 108.45V101.82H357.407V98.22H359.897V94.29H364.577V98.22H368.597V101.82H364.577V108.39C364.577 109.07 364.747 109.6 365.087 109.98C365.447 110.34 365.947 110.52 366.587 110.52C367.327 110.52 367.957 110.32 368.477 109.92L369.737 113.22ZM331.705 130L324.835 151H319.615L314.995 136.78L310.225 151H305.035L298.135 130H303.175L307.915 144.76L312.865 130H317.365L322.165 144.88L327.055 130H331.705ZM352.747 142.99C352.747 143.05 352.717 143.47 352.657 144.25H340.447C340.667 145.25 341.187 146.04 342.007 146.62C342.827 147.2 343.847 147.49 345.067 147.49C345.907 147.49 346.647 147.37 347.287 147.13C347.947 146.87 348.557 146.47 349.117 145.93L351.607 148.63C350.087 150.37 347.867 151.24 344.947 151.24C343.127 151.24 341.517 150.89 340.117 150.19C338.717 149.47 337.637 148.48 336.877 147.22C336.117 145.96 335.737 144.53 335.737 142.93C335.737 141.35 336.107 139.93 336.847 138.67C337.607 137.39 338.637 136.4 339.937 135.7C341.257 134.98 342.727 134.62 344.347 134.62C345.927 134.62 347.357 134.96 348.637 135.64C349.917 136.32 350.917 137.3 351.637 138.58C352.377 139.84 352.747 141.31 352.747 142.99ZM344.377 138.16C343.317 138.16 342.427 138.46 341.707 139.06C340.987 139.66 340.547 140.48 340.387 141.52H348.337C348.177 140.5 347.737 139.69 347.017 139.09C346.297 138.47 345.417 138.16 344.377 138.16ZM376.353 128.74V151H371.883V149.14C370.723 150.54 369.043 151.24 366.843 151.24C365.323 151.24 363.943 150.9 362.703 150.22C361.483 149.54 360.523 148.57 359.823 147.31C359.123 146.05 358.773 144.59 358.773 142.93C358.773 141.27 359.123 139.81 359.823 138.55C360.523 137.29 361.483 136.32 362.703 135.64C363.943 134.96 365.323 134.62 366.843 134.62C368.903 134.62 370.513 135.27 371.673 136.57V128.74H376.353ZM367.653 147.4C368.833 147.4 369.813 147 370.593 146.2C371.373 145.38 371.763 144.29 371.763 142.93C371.763 141.57 371.373 140.49 370.593 139.69C369.813 138.87 368.833 138.46 367.653 138.46C366.453 138.46 365.463 138.87 364.683 139.69C363.903 140.49 363.513 141.57 363.513 142.93C363.513 144.29 363.903 145.38 364.683 146.2C365.463 147 366.453 147.4 367.653 147.4Z" fill="#FFD54F"/>
</g>
<rect x="5" y="5" width="404" height="886" rx="25" stroke="url(#paint4_linear)" stroke-width="10"/>
<defs>
<filter id="filter0_bd" x="-77.97" y="100.038" width="561.07" height="386.481" filterUnits="userSpaceOnUse" color-interpolation-filters="sRGB">
<feFlood flood-opacity="0" result="BackgroundImageFix"/>
<feGaussianBlur in="BackgroundImage" stdDeviation="50"/>
<feComposite in2="SourceAlpha" operator="in" result="effect1_backgroundBlur"/>
<feColorMatrix in="SourceAlpha" type="matrix" values="0 0 0 0 0 0 0 0 0 0 0 0 0 0 0 0 0 0 127 0"/>
<feOffset dy="4"/>
<feGaussianBlur stdDeviation="12"/>
<feColorMatrix type="matrix" values="0 0 0 0 0 0 0 0 0 0 0 0 0 0 0 0 0 0 0.3 0"/>
<feBlend mode="normal" in2="effect1_backgroundBlur" result="effect2_dropShadow"/>
<feBlend mode="normal" in="SourceGraphic" in2="effect2_dropShadow" result="shape"/>
</filter>
<filter id="filter1_d" x="24" y="201" width="100.674" height="107.864" filterUnits="userSpaceOnUse" color-interpolation-filters="sRGB">
<feFlood flood-opacity="0" result="BackgroundImageFix"/>
<feColorMatrix in="SourceAlpha" type="matrix" values="0 0 0 0 0 0 0 0 0 0 0 0 0 0 0 0 0 0 127 0"/>
<feOffset/>
<feGaussianBlur stdDeviation="10"/>
<feColorMatrix type="matrix" values="0 0 0 0 0 0 0 0 0 0.88 0 0 0 0 1 0 0 0 1 0"/>
<feBlend mode="normal" in2="BackgroundImageFix" result="effect1_dropShadow"/>
<feBlend mode="normal" in="SourceGraphic" in2="effect1_dropShadow" result="shape"/>
</filter>
<filter id="filter2_d" x="27.301" y="220.7" width="91.6942" height="62.8" filterUnits="userSpaceOnUse" color-interpolation-filters="sRGB">
<feFlood flood-opacity="0" result="BackgroundImageFix"/>
<feColorMatrix in="SourceAlpha" type="matrix" values="0 0 0 0 0 0 0 0 0 0 0 0 0 0 0 0 0 0 127 0"/>
<feOffset/>
<feGaussianBlur stdDeviation="10"/>
<feColorMatrix type="matrix" values="0 0 0 0 0 0 0 0 0 0.88 0 0 0 0 1 0 0 0 1 0"/>
<feBlend mode="normal" in2="BackgroundImageFix" result="effect1_dropShadow"/>
<feBlend mode="normal" in="SourceGraphic" in2="effect1_dropShadow" result="shape"/>
</filter>
<linearGradient id="paint0_linear" x1="207" y1="0" x2="207" y2="896" gradientUnits="userSpaceOnUse">
<stop stop-color="#739CA2"/>
<stop offset="1" stop-color="white" stop-opacity="0"/>
</linearGradient>
<linearGradient id="paint1_linear" x1="121.034" y1="0.0291626" x2="229.857" y2="176.36" gradientUnits="userSpaceOnUse">
<stop stop-color="white" stop-opacity="0.86"/>
<stop offset="1" stop-color="white" stop-opacity="0.1"/>
<stop offset="1" stop-color="white"/>
</linearGradient>
<linearGradient id="paint2_linear" x1="132.94" y1="0.0142214" x2="290.585" y2="168.81" gradientUnits="userSpaceOnUse">
<stop stop-color="#FFFEFE" stop-opacity="0.8"/>
<stop offset="1" stop-color="#FFFEFE" stop-opacity="0.2"/>
</linearGradient>
<linearGradient id="paint3_linear" x1="206" y1="558" x2="206" y2="868" gradientUnits="userSpaceOnUse">
<stop stop-color="#FFD600"/>
<stop offset="1" stop-color="#C4C4C4" stop-opacity="0"/>
</linearGradient>
<linearGradient id="paint4_linear" x1="207" y1="0" x2="207" y2="896" gradientUnits="userSpaceOnUse">
<stop stop-color="#474747"/>
<stop offset="1" stop-opacity="0.16"/>
</linearGradient>
<clipPath id="clip0">
</clipPath>
<clipPath id="clip1">
<rect width="66.4235" height="66.4652" fill="white" transform="translate(289.32 340.535)"/>
</clipPath>
</defs>
</svg>
