<svg width="138" height="122" viewBox="0 0 138 122" fill="none" xmlns="http://www.w3.org/2000/svg">
<path fill-rule="evenodd" clip-rule="evenodd" d="M93.6035 90.472C93.9212 91.1814 94.5386 91.735 95.3694 92.0555C96.2001 92.3759 97.2027 92.447 98.2366 92.2589C99.2706 92.0708 100.284 91.6329 101.136 91.0065C101.987 90.38 102.634 89.5964 102.986 88.7653L122.26 43.3305C122.636 42.4442 122.656 41.5526 122.316 40.7965C121.976 40.0404 121.296 39.463 120.384 39.1556L73.614 23.3956C72.7592 23.1065 71.7438 23.0697 70.7099 23.2904C69.6761 23.5111 68.6755 23.9782 67.8483 24.6264C67.021 25.2746 66.4085 26.0714 66.0964 26.9053C65.7843 27.7392 65.7883 28.5685 66.1077 29.2771L72.2026 42.842C46.6564 53.8627 32.9069 55.8687 25.088 54.8463C17.6551 53.8752 14.6933 50.1352 11.5989 46.2137L10.7994 45.2041C10.2215 44.4843 9.27542 44.0307 8.13904 43.9287C7.00266 43.8266 5.75433 44.0832 4.62895 44.6501C3.50357 45.217 2.57869 46.0552 2.02832 47.0069C1.47795 47.9586 1.34003 48.9583 1.6405 49.8178C5.03151 59.5227 12.3266 72.5156 26.5714 79.7259C40.3976 86.7238 60.2014 87.9836 87.4597 76.7983L93.6035 90.472Z" fill="white"/>
</svg>
